<svg width="104" height="104" viewBox="0 0 104 104" fill="none" xmlns="http://www.w3.org/2000/svg">
  <g filter="url(#filter0_d_2222_2291)">
    <path
      d="M4 47.9998C4 21.4899 25.4903 0 51.9997 0C78.5096 0 100 21.4899 100 47.9998C100 74.5096 78.5096 96 51.9997 96C25.4903 96 4 74.5096 4 47.9998Z"
      fill="white" />
    <path d="M77.5619 21.373L55.1016 38.0372L59.2783 28.2165L77.5619 21.373Z" fill="#E17726" stroke="#E17726"
      stroke-width="0.25" stroke-linecap="round" stroke-linejoin="round" />
    <path d="M25.7656 21.373L48.226 38.0372L44.2137 28.1532L25.7656 21.373Z" fill="#E27625" stroke="#E27625"
      stroke-width="0.25" stroke-linecap="round" stroke-linejoin="round" />
    <path d="M69.4869 59.7725L63.4375 68.921L76.3909 72.4517L80.1017 59.9724L69.4869 59.7725Z" fill="#E27625"
      stroke="#E27625" stroke-width="0.25" stroke-linecap="round" stroke-linejoin="round" />
    <path d="M23.2344 59.9724L26.9325 72.4517L39.8985 68.921L33.8552 59.7725L23.2344 59.9724Z" fill="#E27625"
      stroke="#E27625" stroke-width="0.25" stroke-linecap="round" stroke-linejoin="round" />
    <path d="M39.1059 44.5139L35.5469 49.7883L48.2261 50.3549L47.8035 36.9512L39.1059 44.5139Z" fill="#E27625"
      stroke="#E27625" stroke-width="0.25" stroke-linecap="round" stroke-linejoin="round" />
    <path d="M64.2217 44.4225L55.3908 36.5879L55.1016 50.3539L67.7808 49.7785L64.2217 44.4225Z" fill="#E27625"
      stroke="#E27625" stroke-width="0.25" stroke-linecap="round" stroke-linejoin="round" />
    <path d="M39.8984 69.1923L47.506 65.4018L40.9569 60.1357L39.8984 69.1923Z" fill="#E27625" stroke="#E27625"
      stroke-width="0.25" stroke-linecap="round" stroke-linejoin="round" />
    <path d="M55.8359 65.4018L63.4435 69.1923L62.404 60.1357L55.8359 65.4018Z" fill="#E27625" stroke="#E27625"
      stroke-width="0.25" stroke-linecap="round" stroke-linejoin="round" />
    <path d="M63.4435 69L55.8359 65.207L56.4551 70.2946L56.3887 72.4523L63.4435 69Z" fill="#D5BFB2" stroke="#D5BFB2"
      stroke-width="0.25" stroke-linecap="round" stroke-linejoin="round" />
    <path d="M39.8984 69L46.9548 72.4523L46.9107 70.2946L47.506 65.207L39.8984 69Z" fill="#D5BFB2" stroke="#D5BFB2"
      stroke-width="0.25" stroke-linecap="round" stroke-linejoin="round" />
    <path d="M47.1379 56.8746L40.6172 54.9835L45.2227 52.8896L47.1379 56.8746Z" fill="#233447" stroke="#233447"
      stroke-width="0.25" stroke-linecap="round" stroke-linejoin="round" />
    <path d="M56.1953 56.8746L58.1039 52.8896L62.7161 54.9835L56.1953 56.8746Z" fill="#233447" stroke="#233447"
      stroke-width="0.25" stroke-linecap="round" stroke-linejoin="round" />
    <path d="M39.8404 69.1913L40.9797 59.7725L33.7344 59.9784L39.8404 69.1913Z" fill="#CC6228" stroke="#CC6228"
      stroke-width="0.25" stroke-linecap="round" stroke-linejoin="round" />
    <path d="M62.3516 59.7725L63.468 69.1913L69.5968 59.9784L62.3516 59.7725Z" fill="#CC6228" stroke="#CC6228"
      stroke-width="0.25" stroke-linecap="round" stroke-linejoin="round" />
    <path d="M67.7808 49.9922L55.1016 50.5532L56.2805 56.8752L58.1491 53.056L62.6647 55.0627L67.7808 49.9922Z"
      fill="#CC6228" stroke="#CC6228" stroke-width="0.25" stroke-linecap="round" stroke-linejoin="round" />
    <path d="M40.6853 55.0627L45.1786 53.056L47.0472 56.8752L48.2261 50.5532L35.5469 49.9922L40.6853 55.0627Z"
      fill="#CC6228" stroke="#CC6228" stroke-width="0.25" stroke-linecap="round" stroke-linejoin="round" />
    <path d="M35.5469 49.9922L40.9808 60.1356L40.7988 55.0965L35.5469 49.9922Z" fill="#E27525" stroke="#E27525"
      stroke-width="0.25" stroke-linecap="round" stroke-linejoin="round" />
    <path d="M62.5562 55.0965L62.3516 60.1356L67.7855 49.9922L62.5562 55.0965Z" fill="#E27525" stroke="#E27525"
      stroke-width="0.25" stroke-linecap="round" stroke-linejoin="round" />
    <path d="M48.3036 50.3545L47.1328 56.8329L48.6127 64.4828L48.9441 54.4007L48.3036 50.3545Z" fill="#E27525"
      stroke="#E27525" stroke-width="0.25" stroke-linecap="round" stroke-linejoin="round" />
    <path d="M55.009 50.3545L54.3828 54.3787L54.6959 64.4828L56.1941 56.8329L55.009 50.3545Z" fill="#E27525"
      stroke="#E27525" stroke-width="0.25" stroke-linecap="round" stroke-linejoin="round" />
    <path d="M56.2584 56.8999L54.75 64.4635L55.8307 65.2069L62.5172 60.1352L62.7198 55.0635L56.2584 56.8999Z"
      fill="#F5841F" stroke="#F5841F" stroke-width="0.25" stroke-linecap="round" stroke-linejoin="round" />
    <path d="M40.6172 55.0635L40.7979 60.1352L47.5032 65.2069L48.587 64.4635L47.0743 56.8999L40.6172 55.0635Z"
      fill="#F5841F" stroke="#F5841F" stroke-width="0.25" stroke-linecap="round" stroke-linejoin="round" />
    <path
      d="M56.4058 72.5095L56.4719 70.4363L55.8982 69.9562H47.4681L46.9163 70.4363L46.9605 72.5095L39.8984 69.1924L42.3701 71.2001L47.3797 74.6263H55.9643L60.996 71.2001L63.4456 69.1924L56.4058 72.5095Z"
      fill="#C0AC9D" stroke="#C0AC9D" stroke-width="0.25" stroke-linecap="round" stroke-linejoin="round" />
    <path
      d="M55.922 65.2462L54.8377 64.4824H48.4676L47.3834 65.2462L46.7734 70.2786L47.3382 69.7843H55.9672L56.5546 70.2786L55.922 65.2462Z"
      fill="#161616" stroke="#161616" stroke-width="0.25" stroke-linecap="round" stroke-linejoin="round" />
    <path
      d="M78.5749 39.0105L80.4699 29.8717L77.6163 21.373L55.8359 37.3771L64.2181 44.3967L76.0558 47.8183L78.6641 44.7941L77.5272 43.9773L79.3329 42.3439L77.9508 41.2843L79.7565 39.9156L78.5749 39.0105Z"
      fill="#763E1A" stroke="#763E1A" stroke-width="0.25" stroke-linecap="round" stroke-linejoin="round" />
    <path
      d="M22.8672 29.8717L24.7844 39.0105L23.5583 39.9156L25.3863 41.2843L24.0041 42.3439L25.8099 43.9773L24.6729 44.7941L27.2812 47.8183L39.119 44.3967L47.5012 37.3771L25.7207 21.373L22.8672 29.8717Z"
      fill="#763E1A" stroke="#763E1A" stroke-width="0.25" stroke-linecap="round" stroke-linejoin="round" />
    <path d="M76.0928 47.964L64.1312 44.5586L67.7355 49.8756L62.3516 60.136L69.47 60.0481H80.1025L76.0928 47.964Z"
      fill="#F5841F" stroke="#F5841F" stroke-width="0.25" stroke-linecap="round" stroke-linejoin="round" />
    <path d="M39.2035 44.5586L27.2267 47.964L23.2344 60.0481H33.8579L40.9853 60.136L35.5947 49.8756L39.2035 44.5586Z"
      fill="#F5841F" stroke="#F5841F" stroke-width="0.25" stroke-linecap="round" stroke-linejoin="round" />
    <path
      d="M55.2876 50.3854L56.0417 37.4568L59.4573 28.2568H44.2422L47.6578 37.4568L48.4119 50.3854L48.7002 54.4448L48.7224 64.4832H54.977L54.9992 54.4448L55.2876 50.3854Z"
      fill="#F5841F" stroke="#F5841F" stroke-width="0.25" stroke-linecap="round" stroke-linejoin="round" />
  </g>
  <defs>
    <filter id="filter0_d_2222_2291" x="0" y="0" width="104" height="104" filterUnits="userSpaceOnUse"
      color-interpolation-filters="sRGB">
      <feFlood flood-opacity="0" result="BackgroundImageFix" />
      <feColorMatrix in="SourceAlpha" type="matrix" values="0 0 0 0 0 0 0 0 0 0 0 0 0 0 0 0 0 0 127 0"
        result="hardAlpha" />
      <feOffset dy="4" />
      <feGaussianBlur stdDeviation="2" />
      <feComposite in2="hardAlpha" operator="out" />
      <feColorMatrix type="matrix" values="0 0 0 0 0 0 0 0 0 0 0 0 0 0 0 0 0 0 0.25 0" />
      <feBlend mode="normal" in2="BackgroundImageFix" result="effect1_dropShadow_2222_2291" />
      <feBlend mode="normal" in="SourceGraphic" in2="effect1_dropShadow_2222_2291" result="shape" />
    </filter>
  </defs>
</svg>