<svg width="97" height="96" viewBox="0 0 97 96" fill="none" xmlns="http://www.w3.org/2000/svg">
  <path
    d="M0.5 47.9998C0.5 21.4899 21.9903 0 48.4997 0C75.0096 0 96.5 21.4899 96.5 47.9998C96.5 74.5096 75.0096 96 48.4997 96C21.9903 96 0.5 74.5096 0.5 47.9998Z"
    fill="#3375BB" />
  <path fill-rule="evenodd" clip-rule="evenodd"
    d="M46.2076 17.8308C47.4238 16.8129 49.1925 16.8129 50.4087 17.8307C58.6644 24.7398 68.079 24.6872 71.7446 24.6667C71.9269 24.6657 72.0949 24.6648 72.2479 24.6648C73.1256 24.6648 73.9667 25.0176 74.5826 25.6443C75.1985 26.2709 75.5379 27.1189 75.5246 27.9984C75.351 39.5384 74.8895 47.7855 73.9817 53.8363C73.0745 59.8829 71.6796 64.0563 69.4144 67.2114C67.1321 70.3901 64.2001 72.1904 61.1146 73.8993C60.5786 74.1962 60.0327 74.493 59.4744 74.7965C56.7697 76.2668 53.7756 77.8946 50.2183 80.4518C49.0766 81.2726 47.5398 81.2726 46.398 80.4518C42.8443 77.897 39.8542 76.2701 37.1538 74.8008C36.5928 74.4956 36.0444 74.1971 35.506 73.8986C32.4228 72.1892 29.4948 70.3883 27.217 67.2084C24.9568 64.0532 23.5668 59.8801 22.663 53.8346C21.7585 47.7846 21.2991 39.538 21.1254 27.9985C21.1121 27.119 21.4515 26.2709 22.0674 25.6443C22.6833 25.0176 23.5244 24.6648 24.4021 24.6648C24.5534 24.6648 24.7198 24.6657 24.9005 24.6667C28.5366 24.6873 37.9516 24.7404 46.2076 17.8308ZM48.3082 24.4981C40.6054 30.0016 32.4655 31.0299 27.7386 31.2065C27.9459 40.9243 28.3913 47.8215 29.1448 52.8614C29.9817 58.4595 31.157 61.4455 32.5413 63.3781C33.9081 65.2861 35.7039 66.5019 38.6788 68.1513C39.1622 68.4193 39.6728 68.6968 40.2094 68.9884C42.4711 70.2175 45.1963 71.6986 48.3083 73.7876C51.4248 71.6958 54.1543 70.2137 56.42 68.9835C56.9542 68.6934 57.4627 68.4174 57.9443 68.1506C60.9232 66.5007 62.7236 65.2843 64.0943 63.3751C65.482 61.4424 66.6607 58.4566 67.5004 52.8597C68.2565 47.8206 68.7038 40.9242 68.9114 31.2072C64.173 31.0325 56.021 30.0084 48.3082 24.4981Z"
    fill="white" />
</svg>