<svg width="89" height="42" viewBox="0 0 89 42" fill="none" xmlns="http://www.w3.org/2000/svg">
<path d="M15.1044 23.4284V18.832H10.5723V15.1356H15.1044V10.5713H18.8651V15.1356H23.4294V18.832H18.8651V23.4284H15.1044Z" fill="#E0EAF8"/>
<rect x="2" y="2" width="30" height="30" rx="15" stroke="#E0EAF8" stroke-width="4"/>
<g filter="url(#filter0_d_5392_47469)">
<path d="M82.8656 1L69.3691 11.0135L71.8789 5.11223L82.8656 1Z" fill="#E17726" stroke="#E17726" stroke-width="0.25" stroke-linecap="round" stroke-linejoin="round"/>
<path d="M51.7422 1L65.2387 11.0135L62.8276 5.07419L51.7422 1Z" fill="#E27625" stroke="#E27625" stroke-width="0.25" stroke-linecap="round" stroke-linejoin="round"/>
<path d="M78.014 24.0742L74.3789 29.5716L82.1626 31.6932L84.3924 24.1944L78.014 24.0742Z" fill="#E27625" stroke="#E27625" stroke-width="0.25" stroke-linecap="round" stroke-linejoin="round"/>
<path d="M50.2207 24.1944L52.4429 31.6932L60.2342 29.5716L56.6028 24.0742L50.2207 24.1944Z" fill="#E27625" stroke="#E27625" stroke-width="0.25" stroke-linecap="round" stroke-linejoin="round"/>
<path d="M59.7578 14.9058L57.6191 18.0752L65.2381 18.4157L64.9842 10.3613L59.7578 14.9058Z" fill="#E27625" stroke="#E27625" stroke-width="0.25" stroke-linecap="round" stroke-linejoin="round"/>
<path d="M74.8494 14.8504L69.5429 10.1426L69.3691 18.4146L76.9881 18.0688L74.8494 14.8504Z" fill="#E27625" stroke="#E27625" stroke-width="0.25" stroke-linecap="round" stroke-linejoin="round"/>
<path d="M60.2344 29.7351L64.8058 27.4573L60.8704 24.293L60.2344 29.7351Z" fill="#E27625" stroke="#E27625" stroke-width="0.25" stroke-linecap="round" stroke-linejoin="round"/>
<path d="M69.8105 27.4573L74.3819 29.7351L73.7573 24.293L69.8105 27.4573Z" fill="#E27625" stroke="#E27625" stroke-width="0.25" stroke-linecap="round" stroke-linejoin="round"/>
<path d="M74.3819 29.619L69.8105 27.3398L70.1826 30.397L70.1427 31.6935L74.3819 29.619Z" fill="#D5BFB2" stroke="#D5BFB2" stroke-width="0.25" stroke-linecap="round" stroke-linejoin="round"/>
<path d="M60.2344 29.619L64.4746 31.6935L64.4481 30.397L64.8058 27.3398L60.2344 29.619Z" fill="#D5BFB2" stroke="#D5BFB2" stroke-width="0.25" stroke-linecap="round" stroke-linejoin="round"/>
<path d="M64.5843 22.333L60.666 21.1967L63.4335 19.9385L64.5843 22.333Z" fill="#233447" stroke="#233447" stroke-width="0.25" stroke-linecap="round" stroke-linejoin="round"/>
<path d="M70.0273 22.333L71.1742 19.9385L73.9457 21.1967L70.0273 22.333Z" fill="#233447" stroke="#233447" stroke-width="0.25" stroke-linecap="round" stroke-linejoin="round"/>
<path d="M60.1984 29.734L60.883 24.0742L56.5293 24.1979L60.1984 29.734Z" fill="#CC6228" stroke="#CC6228" stroke-width="0.25" stroke-linecap="round" stroke-linejoin="round"/>
<path d="M73.7266 24.0742L74.3974 29.734L78.0803 24.1979L73.7266 24.0742Z" fill="#CC6228" stroke="#CC6228" stroke-width="0.25" stroke-linecap="round" stroke-linejoin="round"/>
<path d="M76.9881 18.1973L69.3691 18.5344L70.0775 22.3333L71.2004 20.0383L73.9138 21.2441L76.9881 18.1973Z" fill="#CC6228" stroke="#CC6228" stroke-width="0.25" stroke-linecap="round" stroke-linejoin="round"/>
<path d="M60.7068 21.2441L63.4069 20.0383L64.5297 22.3333L65.2381 18.5344L57.6191 18.1973L60.7068 21.2441Z" fill="#CC6228" stroke="#CC6228" stroke-width="0.25" stroke-linecap="round" stroke-linejoin="round"/>
<path d="M57.6191 18.1973L60.8844 24.2925L60.775 21.2644L57.6191 18.1973Z" fill="#E27525" stroke="#E27525" stroke-width="0.25" stroke-linecap="round" stroke-linejoin="round"/>
<path d="M73.8495 21.2644L73.7266 24.2925L76.9918 18.1973L73.8495 21.2644Z" fill="#E27525" stroke="#E27525" stroke-width="0.25" stroke-linecap="round" stroke-linejoin="round"/>
<path d="M65.2856 18.415L64.582 22.3079L65.4713 26.9048L65.6705 20.8464L65.2856 18.415Z" fill="#E27525" stroke="#E27525" stroke-width="0.25" stroke-linecap="round" stroke-linejoin="round"/>
<path d="M69.3138 18.415L68.9375 20.8332L69.1256 26.9048L70.0259 22.3079L69.3138 18.415Z" fill="#E27525" stroke="#E27525" stroke-width="0.25" stroke-linecap="round" stroke-linejoin="round"/>
<path d="M70.0646 22.3486L69.1582 26.8936L69.8076 27.3403L73.8255 24.2927L73.9473 21.2451L70.0646 22.3486Z" fill="#F5841F" stroke="#F5841F" stroke-width="0.25" stroke-linecap="round" stroke-linejoin="round"/>
<path d="M60.666 21.2451L60.7746 24.2927L64.8039 27.3403L65.4551 26.8936L64.5461 22.3486L60.666 21.2451Z" fill="#F5841F" stroke="#F5841F" stroke-width="0.25" stroke-linecap="round" stroke-linejoin="round"/>
<path d="M70.1537 31.7276L70.1934 30.4819L69.8487 30.1933H64.783L64.4514 30.4819L64.478 31.7276L60.2344 29.7344L61.7196 30.9408L64.7299 32.9997H69.8884L72.9119 30.9408L74.3839 29.7344L70.1537 31.7276Z" fill="#C0AC9D" stroke="#C0AC9D" stroke-width="0.25" stroke-linecap="round" stroke-linejoin="round"/>
<path d="M69.8626 27.3632L69.211 26.9043H65.3832L64.7318 27.3632L64.3652 30.3873L64.7046 30.0902H69.8898L70.2427 30.3873L69.8626 27.3632Z" fill="#161616" stroke="#161616" stroke-width="0.25" stroke-linecap="round" stroke-linejoin="round"/>
<path d="M83.4744 11.5984L84.6131 6.10687L82.8984 1L69.8105 10.6169L74.8474 14.835L81.9607 16.891L83.528 15.0738L82.8449 14.5829L83.9299 13.6014L83.0994 12.9647L84.1845 12.1423L83.4744 11.5984Z" fill="#763E1A" stroke="#763E1A" stroke-width="0.25" stroke-linecap="round" stroke-linejoin="round"/>
<path d="M50 6.10687L51.1521 11.5984L50.4153 12.1423L51.5138 12.9647L50.6832 13.6014L51.7683 14.5829L51.0851 15.0738L52.6524 16.891L59.7658 14.835L64.8026 10.6169L51.7147 1L50 6.10687Z" fill="#763E1A" stroke="#763E1A" stroke-width="0.25" stroke-linecap="round" stroke-linejoin="round"/>
<path d="M81.9837 16.9789L74.7959 14.9326L76.9618 18.1276L73.7266 24.2931L78.004 24.2403H84.3931L81.9837 16.9789Z" fill="#F5841F" stroke="#F5841F" stroke-width="0.25" stroke-linecap="round" stroke-linejoin="round"/>
<path d="M59.8165 14.9326L52.6197 16.9789L50.2207 24.2403H56.6044L60.8873 24.2931L57.648 18.1276L59.8165 14.9326Z" fill="#F5841F" stroke="#F5841F" stroke-width="0.25" stroke-linecap="round" stroke-linejoin="round"/>
<path d="M69.481 18.4338L69.9341 10.665L71.9865 5.13672H62.8438L64.8962 10.665L65.3493 18.4338L65.5226 20.8731L65.5359 26.9052H69.2943L69.3077 20.8731L69.481 18.4338Z" fill="#F5841F" stroke="#F5841F" stroke-width="0.25" stroke-linecap="round" stroke-linejoin="round"/>
</g>
<defs>
<filter id="filter0_d_5392_47469" x="45.875" y="0.875" width="42.8633" height="40.25" filterUnits="userSpaceOnUse" color-interpolation-filters="sRGB">
<feFlood flood-opacity="0" result="BackgroundImageFix"/>
<feColorMatrix in="SourceAlpha" type="matrix" values="0 0 0 0 0 0 0 0 0 0 0 0 0 0 0 0 0 0 127 0" result="hardAlpha"/>
<feOffset dy="4"/>
<feGaussianBlur stdDeviation="2"/>
<feComposite in2="hardAlpha" operator="out"/>
<feColorMatrix type="matrix" values="0 0 0 0 0 0 0 0 0 0 0 0 0 0 0 0 0 0 0.25 0"/>
<feBlend mode="normal" in2="BackgroundImageFix" result="effect1_dropShadow_5392_47469"/>
<feBlend mode="normal" in="SourceGraphic" in2="effect1_dropShadow_5392_47469" result="shape"/>
</filter>
</defs>
</svg>
