<svg width="59" height="53" viewBox="0 0 59 53" fill="none" xmlns="http://www.w3.org/2000/svg">
<path d="M0.0029438 32.7777C1.57428 30.494 3.13168 28.1932 4.72294 25.9172C5.3453 25.0256 6.55617 24.9657 7.41154 25.7583C8.53777 26.805 9.63611 27.8726 10.7474 28.9316C11.4511 29.6034 12.1551 30.2752 12.8594 30.9469C13.4101 31.4703 13.6222 32.0812 13.3494 32.7938C13.0765 33.5065 12.4721 33.811 11.7093 33.8786C10.8719 33.9538 10.0364 34.0394 9.08345 34.1317C9.33538 34.7502 9.54051 35.3458 9.81336 35.912C12.9829 42.4889 18.1779 46.8612 25.4979 48.7737C30.9458 50.201 36.2941 49.7528 41.4443 47.4844C46.1812 45.3977 49.8247 42.1559 52.36 37.8141C54.6443 33.9014 55.5943 29.689 55.2637 25.2112C54.9719 21.2576 53.6585 17.638 51.3801 14.3467C49.1491 11.1084 46.0829 8.47367 42.4769 6.69646C39.0912 5.00655 35.4865 4.18349 31.6737 4.14353C30.6102 4.13211 29.8454 3.40515 29.8614 2.47741C29.8773 1.54968 30.658 0.838892 31.7245 0.859826C40.8299 1.05013 48.1548 4.62785 53.5848 11.6006C57.3608 16.4534 58.9829 21.9865 58.7559 28.0144C58.3207 39.5525 49.5021 49.6995 37.6683 52.1783C29.4531 53.8996 21.8931 52.359 15.1527 47.5491C10.6717 44.3482 7.55792 40.1329 5.78643 35.0432C5.63407 34.6075 5.45483 34.439 4.94997 34.5133C4.10157 34.637 3.23325 34.6446 2.38385 34.7692C1.24468 34.9367 0.442087 34.5789 0.00195312 33.5436L0.0029438 32.7777Z" fill="#30D1FF"/>
<path d="M20.9655 5.53637C20.9426 6.21861 20.5732 6.67248 19.9887 7.04548C18.7191 7.85427 17.4315 8.64784 16.2396 9.55369C14.4621 10.902 13.0122 12.5548 11.7526 14.3579C11.2965 15.0107 10.6811 15.357 9.85264 15.1838C8.62385 14.9269 8.08911 13.6138 8.85686 12.6024C9.79887 11.3654 10.7688 10.1341 11.8442 9.00276C13.6934 7.05785 15.8701 5.48212 18.265 4.18425C19.5256 3.50391 20.9586 4.22708 20.9655 5.53637Z" fill="#30D1FF"/>
<path d="M33.5737 20.1389C32.8497 20.0685 32.1278 20.6213 32.08 21.313C32.0511 21.7555 32.0621 22.1999 32.0541 22.6452C32.0501 22.6978 32.0431 22.7502 32.0332 22.8022C32.5799 22.8022 33.1286 22.8107 33.6723 22.7879C33.8319 22.776 33.9872 22.7331 34.1288 22.6617C34.2705 22.5904 34.3953 22.4921 34.4958 22.373C34.8791 21.9572 34.9747 21.4748 34.7567 20.9667C34.5465 20.471 34.1403 20.1998 33.5737 20.1389Z" fill="#30D1FF"/>
<path d="M31.1021 22.6584C31.1021 22.295 31.1021 21.9315 31.1021 21.568C31.1042 21.4386 31.0912 21.3093 31.0632 21.1826C31.0214 20.9985 30.9392 20.8249 30.822 20.6733C30.7049 20.5218 30.5554 20.3957 30.3834 20.3034C30.2115 20.2112 30.021 20.1548 29.8246 20.1381C29.6282 20.1213 29.4303 20.1446 29.2439 20.2064C28.9687 20.2965 28.7294 20.4659 28.5591 20.6914C28.3888 20.9168 28.2958 21.1872 28.293 21.4652C28.293 22.0285 28.6803 22.5766 29.234 22.7279C29.8544 22.8973 30.4936 22.7964 31.126 22.7993C31.1145 22.7529 31.1065 22.7059 31.1021 22.6584Z" fill="#30D1FF"/>
<path d="M31.5732 12.0469C23.0573 12.0593 16.0899 18.7218 16.0879 26.8535C16.0859 34.9852 23.0524 41.6459 31.5703 41.6621C40.0882 41.6782 47.0486 35.0328 47.0755 26.883C47.1024 18.7332 40.1001 12.0345 31.5732 12.0469ZM31.0913 34.4962H25.3247C24.8866 34.4962 24.7213 34.3363 24.7213 33.9167V26.3997H31.0943L31.0913 34.4962ZM38.5377 26.5662C38.5377 29.0255 38.5377 31.4849 38.5377 33.9443C38.5377 34.3249 38.3625 34.4923 37.9671 34.4933H32.1657V26.4054H38.5387L38.5377 26.5662ZM39.6002 25.4767H32.0592V25.2864C32.0592 24.5137 32.0592 23.7414 32.0592 22.9694C32.0558 22.9119 32.0485 22.8547 32.0373 22.7981H31.1291C31.1171 22.8546 31.1094 22.9119 31.1062 22.9694C31.1062 23.7427 31.1062 24.516 31.1062 25.2892V25.4624H23.5702C23.5702 25.4177 23.5632 25.3672 23.5632 25.3225C23.5632 24.6641 23.5632 24.0056 23.5632 23.3472C23.5632 22.9837 23.7484 22.8096 24.1328 22.8096H27.7883C27.3372 22.1616 27.2028 21.4841 27.4507 20.7581C27.6176 20.2645 27.9605 19.8425 28.4196 19.5658C29.3377 18.9949 30.7099 19.0682 31.5812 20.093C32.1319 19.4621 32.8329 19.151 33.6952 19.2185C34.178 19.2557 34.6352 19.4409 34.9987 19.7466C35.456 20.1133 35.7483 20.6338 35.8153 21.2005C35.8909 21.781 35.7246 22.3024 35.3791 22.801C35.4518 22.801 35.5066 22.8086 35.5603 22.8086C36.7035 22.8086 37.8506 22.8143 38.9898 22.8086C39.2885 22.8086 39.4937 22.9038 39.6002 23.1711V25.4767Z" fill="#30D1FF"/>
</svg>
