<svg width="59" height="53" viewBox="0 0 59 53" fill="none" xmlns="http://www.w3.org/2000/svg">
<path d="M0.00294185 32.276C1.57119 29.9926 3.12552 27.691 4.71364 25.4152C5.33478 24.5237 6.54326 24.4637 7.39695 25.2563C8.52096 26.3029 9.61714 27.3704 10.7262 28.4294C11.4285 29.1011 12.1312 29.7728 12.8341 30.4445C13.3837 30.9678 13.5954 31.5796 13.3231 32.2913C13.0508 33.003 12.4475 33.3084 11.6863 33.3769C10.8505 33.4511 10.0166 33.5367 9.06557 33.629C9.317 34.2475 9.52173 34.8431 9.79404 35.4092C12.9574 41.9856 18.1421 46.3574 25.4477 48.2708C30.8848 49.698 36.2226 49.2498 41.3627 46.9806C46.0902 44.8941 49.7266 41.6525 52.2569 37.3111C54.5367 33.3988 55.4848 29.1877 55.1549 24.7092C54.8637 20.756 53.5528 17.1376 51.279 13.8456C49.0523 10.6075 45.9921 7.97306 42.3932 6.19599C39.0143 4.50717 35.4166 3.68322 31.6113 3.64326C30.5499 3.6328 29.7867 2.90494 29.8026 1.97728C29.8185 1.04962 30.5976 0.338894 31.662 0.359826C40.7495 0.555823 48.06 4.12755 53.4793 11.0997C57.2478 15.9521 58.8668 21.4848 58.6402 27.5122C58.2059 39.0494 49.4046 49.1956 37.5941 51.6789C29.3951 53.3991 21.85 51.8587 15.1229 47.0491C10.6507 43.8485 7.54304 39.6336 5.77504 34.5443C5.62298 34.1085 5.44409 33.9401 4.94023 34.0143C4.09349 34.138 3.22689 34.1466 2.37916 34.2703C1.24224 34.4377 0.441221 34.08 0.00195312 33.0458L0.00294185 32.276Z" fill="#30D1FF"/>
<path d="M21.2037 4.69809C21.1803 5.39097 20.8033 5.85192 20.2068 6.23074C18.9111 7.05311 17.5971 7.85809 16.3807 8.77807C14.5668 10.1474 13.0872 11.8269 11.8017 13.6572C11.3363 14.3202 10.7083 14.6719 9.86281 14.496C8.60881 14.2351 8.06311 12.9015 8.8466 11.8743C9.80793 10.618 10.7977 9.36755 11.8952 8.21855C13.7823 6.2433 16.0037 4.643 18.4477 3.32488C19.7342 2.63393 21.1965 3.36934 21.2037 4.69809Z" fill="#30D1FF"/>
<path d="M31.4423 11.1651C23.0908 11.1775 16.2578 17.8634 16.2559 26.0236C16.2539 34.1838 23.0859 40.8611 31.4394 40.8793C39.7929 40.8974 46.621 34.2268 46.6454 26.0494C46.6698 17.872 39.8046 11.1479 31.4423 11.1651ZM26.0849 30.0398C25.9785 30.3586 25.7817 30.6413 25.5175 30.8552C25.2441 31.0825 24.8567 31.2562 24.3554 31.3766C23.7177 31.5104 23.0662 31.571 22.414 31.557C22.1048 31.557 21.7676 31.5459 21.4023 31.5236C21.0371 31.5013 20.679 31.4657 20.3281 31.4167C19.9779 31.3683 19.6657 31.3215 19.3916 31.2763V29.6053L20.4033 29.6855C20.7503 29.7122 21.0807 29.7323 21.3945 29.7456C21.7083 29.759 21.9749 29.7657 22.1943 29.7657C22.5205 29.7702 22.8467 29.7545 23.1709 29.7189C23.2713 29.7134 23.3694 29.6873 23.4589 29.6424C23.5484 29.5975 23.6272 29.5348 23.6904 29.4582C23.7959 29.316 23.8476 29.0839 23.8476 28.7631C23.8596 28.5287 23.8224 28.2944 23.7383 28.0747C23.7025 27.9977 23.6495 27.9295 23.5833 27.8751C23.5171 27.8208 23.4392 27.7816 23.3554 27.7605C23.1053 27.6992 22.8476 27.6722 22.5898 27.6803H21.0176V25.9109H22.5898C22.8223 25.9176 23.0547 25.8929 23.2802 25.8374C23.3582 25.8179 23.4312 25.7829 23.4947 25.7346C23.5582 25.6863 23.6109 25.6258 23.6494 25.5567C23.7275 25.4182 23.7656 25.2072 23.7656 24.9217C23.7656 24.6009 23.7207 24.3717 23.6289 24.2333C23.5371 24.0948 23.3691 24.0108 23.123 23.9793C22.7688 23.9427 22.4127 23.9271 22.0566 23.9325C21.793 23.9325 21.5029 23.9411 21.1885 23.9592C20.874 23.9774 20.5644 23.9974 20.2588 24.0194C19.9531 24.0413 19.6826 24.0709 19.4453 24.1063V22.4219C19.7103 22.3684 20.0179 22.3194 20.3681 22.2748C20.7184 22.2303 21.0739 22.1969 21.4346 22.1746C21.7946 22.1529 22.125 22.1418 22.4258 22.1412C23.0292 22.1301 23.6321 22.1839 24.2236 22.3016C24.6329 22.3793 25.0215 22.5386 25.3652 22.7695C25.6366 22.9602 25.8475 23.222 25.9736 23.5248C26.1025 23.8553 26.1652 24.2071 26.1582 24.5608C26.1582 25.2292 26.0215 25.7282 25.748 26.058C25.4746 26.3877 25.069 26.6105 24.5312 26.7264V26.7799C24.8584 26.8455 25.1724 26.9629 25.4609 27.1274C25.7217 27.2849 25.9251 27.5188 26.042 27.7958C26.1722 28.0899 26.2373 28.4865 26.2373 28.9856C26.2434 29.341 26.192 29.6952 26.0849 30.035V30.0398ZM35.2382 29.8488C35.156 30.2222 34.9635 30.5639 34.6845 30.8313C34.3677 31.1051 33.9839 31.2939 33.5703 31.3794C33.0963 31.4953 32.4778 31.5532 31.7148 31.5532C31.1618 31.558 30.6091 31.5261 30.0605 31.4577C29.6572 31.413 29.2682 31.2855 28.9189 31.0834C28.5922 30.8718 28.3338 30.5738 28.1738 30.224C28.0696 29.9763 27.9917 29.7187 27.9414 29.4554C27.8703 29.089 27.8246 28.7183 27.8046 28.3458C27.7773 27.9136 27.7636 27.4212 27.7636 26.8687C27.7636 26.4052 27.775 25.9841 27.7978 25.6054C27.8162 25.26 27.8573 24.9162 27.9209 24.5761C27.9711 24.2989 28.0513 24.0278 28.1601 23.7673C28.2978 23.3845 28.5415 23.0466 28.8642 22.7914C29.215 22.5397 29.6192 22.3684 30.0468 22.2901C30.6267 22.1823 31.2165 22.134 31.8066 22.1459C32.0709 22.1459 32.374 22.1593 32.7158 22.186C33.0576 22.2128 33.4156 22.2446 33.79 22.2815C34.1643 22.3216 34.5152 22.3729 34.8427 22.4353V24.1063C34.5172 24.0706 34.1868 24.0388 33.8515 24.0108C33.5162 23.9828 33.2132 23.9627 32.9423 23.9506C32.6689 23.9373 32.441 23.9306 32.2587 23.9306C31.8785 23.9227 31.4983 23.9518 31.124 24.0175C30.8794 24.0551 30.6552 24.1729 30.4882 24.3517C30.3291 24.5602 30.2321 24.8077 30.208 25.0669C30.1564 25.4786 30.1335 25.8934 30.1396 26.3082H30.2216C30.3203 26.2071 30.4303 26.1174 30.5498 26.0408C30.7502 25.9198 30.9696 25.8317 31.1992 25.7801C31.5733 25.6953 31.9569 25.6571 32.3408 25.6665C32.785 25.662 33.2286 25.6981 33.666 25.7744C34.0123 25.8304 34.3402 25.9655 34.623 26.1688C34.8928 26.3817 35.0926 26.6676 35.1972 26.9909C35.3274 27.3474 35.3925 27.8108 35.3925 28.3812C35.4 28.8743 35.3482 29.3665 35.2382 29.8478V29.8488ZM43.161 30.8113C42.883 31.0659 42.4957 31.2531 41.9989 31.3727C41.3681 31.5065 40.7234 31.5671 40.078 31.5532C39.7773 31.5532 39.4446 31.5421 39.08 31.5198C38.7154 31.4975 38.3554 31.4657 37.9999 31.4243C37.6445 31.3842 37.3209 31.333 37.0292 31.2706V29.6129C37.3489 29.6397 37.6793 29.6642 38.0204 29.6864C38.3616 29.7087 38.6871 29.7266 38.997 29.7399C39.3066 29.7533 39.5761 29.76 39.8036 29.76C40.0974 29.7645 40.391 29.7488 40.6825 29.7132C40.8638 29.6945 41.0387 29.6375 41.1952 29.5461C41.3208 29.4621 41.4108 29.3361 41.4482 29.1918C41.4986 28.9975 41.5216 28.7974 41.5165 28.597C41.5227 28.3873 41.4974 28.1778 41.4413 27.9753C41.4004 27.8308 41.3052 27.7067 41.1747 27.6278C41.0098 27.541 40.8282 27.4887 40.6415 27.474C40.3496 27.4441 40.0561 27.4307 39.7626 27.4339C39.5256 27.4339 39.2522 27.4406 38.9423 27.454C38.6327 27.4674 38.3222 27.4855 38.0126 27.5075C37.7031 27.5294 37.4111 27.5543 37.1337 27.581V22.2481H43.204V24.0557H39.2118V25.7744C39.3671 25.7563 39.5468 25.7391 39.7519 25.7209C39.957 25.7028 40.164 25.6894 40.3739 25.6808C40.5839 25.6722 40.7753 25.6675 40.9482 25.6675C41.4437 25.6551 41.9381 25.7195 42.413 25.8584C42.7566 25.9596 43.0675 26.1462 43.3153 26.3998C43.5387 26.6446 43.6961 26.94 43.7733 27.2592C43.8655 27.6447 43.9091 28.0398 43.9032 28.4356C43.9118 28.9085 43.8566 29.3804 43.7392 29.8392C43.6443 30.2099 43.4439 30.5466 43.161 30.8103V30.8113Z" fill="#30D1FF"/>
<path d="M32.9373 27.5798C32.8061 27.4805 32.6552 27.4224 32.4992 27.4113C32.2559 27.3831 32.0114 27.3703 31.7669 27.373C31.5167 27.3673 31.2666 27.3878 31.0196 27.4343C30.8687 27.458 30.7263 27.5295 30.6076 27.6411C30.5163 27.738 30.4543 27.8671 30.4311 28.0089C30.4023 28.1893 30.3892 28.3726 30.3918 28.5561C30.3848 28.8445 30.4089 29.1328 30.4637 29.4141C30.4966 29.5897 30.5768 29.7482 30.6926 29.8661C30.8147 29.9709 30.96 30.032 31.1111 30.0423C31.2861 30.0635 31.5041 30.0737 31.765 30.073C32.0074 30.0758 32.2497 30.063 32.4908 30.0347C32.6465 30.0219 32.7971 29.964 32.9289 29.8661C33.0402 29.7675 33.1187 29.6267 33.1513 29.4678C33.2004 29.2348 33.2224 28.9951 33.2166 28.7553C33.2225 28.5002 33.2005 28.2454 33.1513 27.9968C33.1227 27.8333 33.0472 27.6861 32.9373 27.5798V27.5798Z" fill="#30D1FF"/>
</svg>