<svg width="30" height="30" viewBox="0 0 30 30" fill="none" xmlns="http://www.w3.org/2000/svg">
  <path
    d="M14.1181 0H15.8757L16.5119 0.071994C19.6625 0.385117 22.6299 1.69878 24.9792 3.82043C27.5148 6.05074 29.2053 9.08521 29.7668 12.4142C29.8663 12.9781 29.9228 13.5489 30 14.1162V15.8747C29.9811 15.9776 29.9606 16.0821 29.9451 16.1867C29.8508 16.8328 29.7977 17.4876 29.6605 18.1235C28.8734 21.7348 27.0146 24.6914 24.0687 26.9144C20.4317 29.6567 16.3352 30.572 11.8752 29.6567C8.25367 28.9077 5.30946 27.0121 3.07515 24.0743C0.576773 20.7904 -0.390344 17.0676 0.141226 12.9781C0.511586 10.0523 1.76807 7.30965 3.74218 5.11789C5.98065 2.53503 9.04801 0.810586 12.4188 0.239959C12.9778 0.131979 13.5488 0.0771284 14.1181 0ZM27.9475 14.9989C27.9416 11.5669 26.575 8.27709 24.1471 5.85028C21.7191 3.42347 18.4279 2.0575 14.9943 2.05161C11.5656 2.05884 8.27923 3.42242 5.85334 5.84432C3.42745 8.26622 2.05934 11.5495 2.04802 14.9766C2.04982 18.4087 3.41249 21.7001 5.83751 24.1298C8.26253 26.5595 11.5522 27.9294 14.9857 27.9393C18.4195 27.9353 21.7116 26.5711 24.1411 24.1456C26.5706 21.7201 27.9393 18.4311 27.9475 14.9989V14.9989Z"
    fill="#30D1FF" />
  <path
    d="M10.4281 13.9575H10.866H21.8014C21.9517 13.9551 22.102 13.9615 22.2515 13.9766C22.5081 14.0022 22.7458 14.1218 22.9176 14.312C23.0894 14.5021 23.183 14.7489 23.18 15.0038C23.1814 15.2588 23.0859 15.505 22.9123 15.6936C22.7387 15.8823 22.4997 15.9996 22.2427 16.0222C22.0931 16.0358 21.9429 16.0416 21.7926 16.0396H10.8572H10.4387C10.56 16.1682 10.6268 16.2482 10.7007 16.3212C11.9198 17.525 13.1384 18.7289 14.3564 19.9327C14.5877 20.1264 14.7323 20.4024 14.7591 20.7009C14.7784 20.8999 14.7366 21.1001 14.639 21.2753C14.5414 21.4505 14.3927 21.5925 14.2122 21.6828C14.0426 21.782 13.8467 21.8284 13.6501 21.816C13.4535 21.8036 13.2651 21.733 13.1097 21.6133C12.9978 21.5306 12.8936 21.4381 12.7984 21.337L7.29469 15.8988C6.65464 15.2645 6.6564 14.7274 7.30349 14.0896C9.15097 12.2612 10.9984 10.434 12.8459 8.60797C13.1202 8.33511 13.4209 8.14045 13.8253 8.18911C14.0234 8.20311 14.2128 8.27505 14.3693 8.39575C14.5259 8.51646 14.6426 8.68048 14.7045 8.86693C14.7751 9.04336 14.7933 9.23606 14.7569 9.42234C14.7204 9.60862 14.6309 9.78074 14.4988 9.91842C14.4337 9.99316 14.3617 10.0627 14.2913 10.1322L10.7218 13.6603C10.6391 13.735 10.5671 13.8132 10.4281 13.9575Z"
    fill="#30D1FF" />
</svg>