<svg width="16" height="25" viewBox="0 0 16 25" fill="none" xmlns="http://www.w3.org/2000/svg">
<path d="M2.08405 24.2659C1.30501 24.0262 0.829306 23.4691 0.312241 22.9719C-0.115199 22.5586 -0.0807276 21.8816 0.312241 21.4383C0.401866 21.3365 0.505281 21.2406 0.615588 21.1508C3.85586 18.3352 7.09613 15.5197 10.3364 12.7042C10.4122 12.6383 10.5088 12.5963 10.5984 12.5484C10.5984 12.5125 10.5984 12.4825 10.5984 12.4466C10.5088 12.3927 10.4122 12.3507 10.3433 12.2908C7.08234 9.4573 3.82139 6.62978 0.560435 3.79626C-0.0186771 3.29306 -0.191034 2.66406 0.2433 2.16085C0.643163 1.69359 1.14644 1.27426 1.67729 0.926809C2.18057 0.591339 2.87688 0.693176 3.36637 1.05261C3.4491 1.11251 3.52494 1.17841 3.60077 1.23831C7.53046 4.64692 11.4602 8.05552 15.3898 11.4641C15.4864 11.548 15.5898 11.6378 15.6725 11.7337C16.1137 12.2069 16.1068 12.8 15.6656 13.2733C15.5691 13.3751 15.4657 13.465 15.3623 13.5608C11.5291 16.8795 7.69592 20.1983 3.86275 23.523C3.50425 23.8285 3.15955 24.1401 2.66316 24.2778C2.47013 24.2659 2.27709 24.2659 2.08405 24.2659Z" fill="#F26929"/>
</svg>
