<svg width="15" height="8" viewBox="0 0 15 8" fill="none" xmlns="http://www.w3.org/2000/svg">
<path d="M0.729551 1.04202C0.867435 0.652503 1.18801 0.414653 1.47412 0.156121C1.71197 -0.0575993 2.1015 -0.0403638 2.35658 0.156121C2.41518 0.200933 2.47033 0.25264 2.52204 0.307794C4.14218 1.92793 5.76231 3.54806 7.38245 5.1682C7.42036 5.20612 7.44449 5.25438 7.47207 5.29919C7.49275 5.29919 7.50999 5.29919 7.53067 5.29919C7.56169 5.25438 7.58583 5.20612 7.6203 5.17165C9.25077 3.54117 10.8778 1.91069 12.5083 0.280217C12.7978 -0.00933867 13.1598 -0.0955174 13.4493 0.12165C13.7182 0.321581 13.9595 0.573219 14.1594 0.838645C14.3525 1.09028 14.2939 1.43844 14.087 1.68318C14.0526 1.72455 14.0147 1.76247 13.9802 1.80039C12.0188 3.76523 10.0574 5.73008 8.096 7.69492C8.04774 7.74318 7.99603 7.79489 7.94088 7.83625C7.66856 8.05687 7.32729 8.05342 7.05497 7.83281C6.99637 7.78455 6.94467 7.73284 6.88951 7.68113C4.97982 5.76455 3.07013 3.84796 1.15699 1.93138C0.981189 1.75213 0.801939 1.57977 0.722656 1.33158C0.72955 1.23506 0.729551 1.13854 0.729551 1.04202Z" fill="#E0EAF8"/>
</svg>