<svg width="28" height="28" viewBox="0 0 28 28" fill="none" xmlns="http://www.w3.org/2000/svg">
<path d="M18.2022 1.01679C15.7864 0.732697 13.3446 1.25641 11.2579 2.50618C9.17111 3.75595 7.55684 5.66144 6.66703 7.92523C5.99148 9.64632 5.76145 11.5101 5.99828 13.3438C6.23511 15.1775 6.93109 16.9217 8.02175 18.4147L0.099225 25.1726C0.0678368 25.2029 0.042872 25.2392 0.0258217 25.2793C0.00877137 25.3195 0 25.3627 0 25.4063C0 25.4499 0.00877137 25.4931 0.0258217 25.5332C0.042872 25.5734 0.0678368 25.6097 0.099225 25.64L1.40646 27.177C1.46335 27.244 1.54441 27.2857 1.63199 27.2932C1.71957 27.3006 1.80651 27.273 1.87386 27.2166L9.94697 20.3715C11.7356 21.869 13.9567 22.7546 16.285 22.8988C18.6212 23.0514 20.9453 22.4555 22.9198 21.1975C24.8944 19.9396 26.4166 18.0851 27.2656 15.9032C27.8697 14.3319 28.1051 12.6429 27.9539 10.9662C27.8027 9.28953 27.2688 7.66992 26.3934 6.232C25.5179 4.79408 24.3242 3.57618 22.9041 2.67204C21.4841 1.7679 19.8755 1.20162 18.2022 1.01679ZM11.785 11.3953V10.8724H21.9892V11.3953H11.785ZM21.9892 12.4965V13.0194H11.785V12.4965H21.9892ZM11.785 9.77118V9.24037H21.9892V9.77118H11.785ZM11.785 8.18667V7.65586H21.9892V8.18667H11.785ZM11.785 17.5432H16.9108V17.8442H11.785V17.5432ZM11.785 17.1471V16.8539H16.9108V17.1471H11.785ZM11.785 16.4578V16.1647H16.9108V16.4578H11.785ZM11.785 14.6831V14.1603H21.9892V14.6831H11.785ZM21.9892 6.56256H11.785V6.03175H21.9892V6.56256ZM20.4047 3.39355C20.7657 3.54437 21.1175 3.71632 21.4583 3.90851H12.4029C13.605 3.22202 14.9456 2.81372 16.3263 2.71364C17.7069 2.61355 19.0924 2.82422 20.3809 3.33017L20.4047 3.39355ZM7.72862 10.8566C8.00511 8.63079 9.08054 6.5812 10.755 5.08897V18.9138C9.62249 17.9116 8.752 16.6479 8.21904 15.2327C7.68608 13.8174 7.5068 12.2935 7.6969 10.7932L7.72862 10.8566ZM13.4566 20.6013C13.0923 20.452 12.7377 20.2801 12.395 20.0863H21.4504C20.2329 20.7608 18.8789 21.1517 17.4893 21.2299C16.0997 21.3081 14.7103 21.0715 13.4249 20.5379L13.4566 20.6013ZM26.1326 13.1382C25.8534 15.3649 24.7751 17.4144 23.0983 18.9059V5.08104C24.2034 6.07522 25.0535 7.32017 25.5774 8.71121C26.1013 10.1023 26.2835 11.5987 26.1088 13.0749L26.1326 13.1382Z" fill="#30D1FF"/>
</svg>
