<svg width="26" height="27" viewBox="0 0 26 27" fill="none" xmlns="http://www.w3.org/2000/svg">
<circle cx="13" cy="13.5" r="13" fill="#E0EAF8"/>
<path d="M16.4906 11.1908L17.4418 8.51782H13.9258V16.7184H12.0752V8.51906H8.5591C8.87616 9.4082 9.18952 10.2874 9.51091 11.1902C9.18767 11.1902 8.88603 11.1939 8.58562 11.1846C8.55169 11.1846 8.50543 11.1159 8.48877 11.07C8.31359 10.591 8.14395 10.1102 7.97185 9.63065C7.95149 9.5724 7.92805 9.51602 7.89536 9.43051C7.78186 9.74527 7.67822 10.0346 7.57459 10.324C7.48391 10.5762 7.39632 10.829 7.30071 11.0793C7.28405 11.1227 7.2347 11.1846 7.19893 11.1859C6.9016 11.1939 6.60428 11.1902 6.28906 11.1902C6.3125 11.1152 6.32792 11.057 6.35075 11.0006C6.73999 9.90885 7.13169 8.81833 7.51722 7.72534C7.52652 7.67871 7.55325 7.63744 7.59192 7.61001C7.63059 7.58258 7.67825 7.57108 7.7251 7.57787C9.10769 7.582 10.4903 7.58303 11.8729 7.58097H12.0696C12.0733 7.51901 12.0783 7.47192 12.0783 7.42235C12.0783 7.09209 12.0752 6.76122 12.0783 6.43097C12.0781 6.30892 12.1018 6.18802 12.1481 6.07518C12.1944 5.96234 12.2624 5.85976 12.3482 5.77332C12.434 5.68687 12.5359 5.61824 12.648 5.57134C12.7602 5.52445 12.8805 5.5002 13.002 5.5C13.1235 5.4998 13.2439 5.52364 13.3562 5.57016C13.4686 5.61668 13.5707 5.68497 13.6567 5.77113C13.7428 5.85729 13.8111 5.95963 13.8578 6.07231C13.9045 6.185 13.9286 6.30582 13.9288 6.42787C13.935 6.80398 13.9288 7.1807 13.9288 7.58097H14.1139C15.5018 7.58097 16.8895 7.58097 18.2771 7.58097C18.3795 7.58097 18.4424 7.59522 18.4825 7.70923C18.8736 8.82453 19.2721 9.9324 19.6675 11.0434C19.6829 11.0861 19.6952 11.1301 19.7143 11.1927C19.4016 11.1927 19.1049 11.197 18.8082 11.1871C18.7693 11.1871 18.7156 11.1177 18.6978 11.07C18.522 10.591 18.3523 10.1102 18.1808 9.63003C18.1599 9.5724 18.137 9.51602 18.1043 9.43175C17.9403 9.8884 17.7873 10.319 17.6312 10.749C17.5788 10.894 17.559 11.0911 17.4548 11.1648C17.3505 11.2385 17.1587 11.1902 17.0051 11.1927C16.841 11.1927 16.6776 11.1908 16.4906 11.1908Z" fill="#0A0E24"/>
<path d="M7.57812 20.0273H18.4287V21.4986H7.57812V20.0273Z" fill="#0A0E24"/>
<path d="M15.3122 12.1211H20.9731C21.1042 12.9816 20.7153 14.0332 19.8745 14.6689C19.4318 15.0037 18.9001 15.2025 18.3451 15.2407C17.7901 15.279 17.236 15.1551 16.751 14.8842C16.266 14.6134 15.8713 14.2075 15.6157 13.7165C15.36 13.2255 15.2546 12.6709 15.3122 12.1211Z" fill="#0A0E24"/>
<path d="M5.0039 12.1211H10.6967C10.7477 13.241 10.3598 14.1519 9.40576 14.7604C8.40385 15.4006 7.34967 15.4105 6.33642 14.7859C5.35718 14.1811 4.95541 13.2603 5.0039 12.1211Z" fill="#0A0E24"/>
<path d="M8.49219 19.1077V17.8203H17.5037V19.1077H8.49219Z" fill="#0A0E24"/>
</svg>
