<svg width="9" height="5" viewBox="0 0 9 5" fill="none" xmlns="http://www.w3.org/2000/svg">
<path d="M0.189575 0.772323C0.270142 0.544811 0.457459 0.405887 0.624635 0.254883C0.763613 0.130054 0.991213 0.140121 1.14026 0.254883C1.1745 0.281057 1.20673 0.311259 1.23694 0.343473C2.1836 1.28976 3.13026 2.23605 4.07691 3.18234C4.09907 3.20449 4.11317 3.23268 4.12928 3.25885C4.14137 3.25885 4.15144 3.25885 4.16352 3.25885C4.18165 3.23268 4.19575 3.20449 4.21589 3.18436C5.16859 2.23203 6.11928 1.2797 7.07198 0.327366C7.24117 0.158242 7.45265 0.107906 7.62184 0.23475C7.77895 0.351526 7.91994 0.498502 8.03676 0.653533C8.14955 0.80051 8.11531 1.00386 7.99446 1.14681C7.97432 1.17097 7.95217 1.19312 7.93203 1.21527C6.78597 2.3629 5.63991 3.51052 4.49385 4.65815C4.46565 4.68634 4.43544 4.71654 4.40321 4.7407C4.24409 4.86956 4.04469 4.86754 3.88557 4.73869C3.85133 4.7105 3.82111 4.6803 3.78889 4.6501C2.67304 3.53066 1.55719 2.41122 0.439332 1.29178C0.336609 1.18708 0.231873 1.08641 0.185547 0.941448C0.189575 0.885073 0.189575 0.828698 0.189575 0.772323Z" fill="#0A0E24"/>
</svg>
