<svg width="24" height="13" viewBox="0 0 24 13" fill="none" xmlns="http://www.w3.org/2000/svg">
<path d="M10.5 2.80078C10.5 3.62921 11.1716 4.30078 12 4.30078C12.8284 4.30078 13.5 3.62921 13.5 2.80078H10.5ZM13.0607 0.700121C12.4749 0.114335 11.5251 0.114335 10.9393 0.700121L1.3934 10.2461C0.807612 10.8318 0.807612 11.7816 1.3934 12.3674C1.97918 12.9532 2.92893 12.9532 3.51472 12.3674L12 3.8821L20.4853 12.3674C21.0711 12.9532 22.0208 12.9532 22.6066 12.3674C23.1924 11.7816 23.1924 10.8318 22.6066 10.2461L13.0607 0.700121ZM13.5 2.80078V1.76078H10.5V2.80078H13.5Z" fill="#30D1FF"/>
</svg>
