<svg width="15" height="18" viewBox="0 0 15 18" fill="none" xmlns="http://www.w3.org/2000/svg">
<path d="M12.9274 18H2.09936C1.93526 17.9626 1.77447 17.9119 1.6186 17.8483C1.34643 17.7233 1.11821 17.5192 0.963687 17.2625C0.809167 17.0058 0.735522 16.7085 0.752357 16.4093V7.30713C0.752357 6.87369 0.860638 6.75233 1.29809 6.75233H2.25529V5.335C2.24488 4.53746 2.41564 3.74797 2.75468 3.02612C3.09371 2.30427 3.59217 1.66892 4.21242 1.16802C4.83267 0.667113 5.55852 0.313744 6.33518 0.134579C7.11184 -0.0445857 7.91902 -0.0448615 8.69581 0.133765C9.83283 0.395211 10.8495 1.03035 11.5836 1.93778C12.3176 2.84521 12.7267 3.9726 12.7455 5.13995C12.7455 5.60806 12.7455 6.07617 12.7455 6.54861V6.74367H13.7893C14.1012 6.74367 14.2484 6.8867 14.2484 7.1771C14.2484 10.2632 14.2484 13.3521 14.2484 16.444C14.2599 16.6864 14.2089 16.9276 14.1005 17.1447C13.992 17.3618 13.8297 17.5473 13.6291 17.6836C13.4062 17.812 13.1711 17.918 12.9274 18ZM10.5063 6.73066C10.5063 6.21921 10.5063 5.72075 10.5063 5.2223C10.5169 4.57004 10.3011 3.93429 9.89555 3.42354C9.55584 2.9796 9.09872 2.63969 8.57595 2.44229C8.05317 2.24489 7.48562 2.19787 6.93752 2.30658C6.38943 2.41529 5.88269 2.67536 5.47467 3.05738C5.06665 3.43939 4.77363 3.92808 4.62879 4.46813C4.4209 5.20063 4.5465 5.95915 4.52918 6.70899C4.52918 6.70899 4.52918 6.70899 4.55516 6.73933L10.5063 6.73066ZM7.52638 15.0006C7.7516 15.0006 7.9595 15.0006 8.21071 15.0006C8.27584 15.0087 8.34197 15.0006 8.40322 14.977C8.46447 14.9534 8.51894 14.915 8.5618 14.8653C8.60466 14.8155 8.63457 14.756 8.64888 14.6919C8.66319 14.6278 8.66146 14.5611 8.64383 14.4978C8.57453 13.8563 8.5009 13.1975 8.43593 12.5777C8.43244 12.5428 8.43686 12.5075 8.44885 12.4745C8.46085 12.4414 8.48012 12.4115 8.50523 12.387C8.75385 12.1675 8.92298 11.872 8.9863 11.5463C9.04961 11.2207 9.00355 10.8832 8.85529 10.5865C8.70703 10.2897 8.46489 10.0504 8.16657 9.90566C7.86824 9.76095 7.53048 9.71902 7.20587 9.78638C6.93629 9.84932 6.68924 9.98534 6.49181 10.1795C6.29438 10.3737 6.15419 10.6185 6.08663 10.8872C6.01907 11.1558 6.02675 11.4379 6.10881 11.7025C6.19088 11.967 6.34416 12.2039 6.55185 12.387C6.57671 12.4117 6.59581 12.4416 6.60779 12.4746C6.61977 12.5076 6.62433 12.5428 6.62115 12.5777C6.55618 13.2192 6.48255 13.8563 6.41325 14.4978C6.39563 14.5611 6.39389 14.6278 6.4082 14.6919C6.42251 14.756 6.45243 14.8155 6.49528 14.8653C6.53814 14.915 6.59261 14.9534 6.65386 14.977C6.71511 15.0006 6.78124 15.0087 6.84638 15.0006C7.06727 15.0093 7.29682 15.0006 7.52638 15.0006Z" fill="#8CFEED"/>
</svg>