<svg width="21" height="22" viewBox="0 0 21 22" fill="none" xmlns="http://www.w3.org/2000/svg">
<path fill-rule="evenodd" clip-rule="evenodd" d="M21 11C21 16.799 16.299 21.5 10.5 21.5C4.70101 21.5 0 16.799 0 11C0 5.20101 4.70101 0.5 10.5 0.5C16.299 0.5 21 5.20101 21 11ZM15.7372 10.5238H15.5887C15.2456 10.5238 14.9024 10.5237 14.5592 10.5235C13.6541 10.5232 12.749 10.5229 11.8439 10.5249C11.3576 10.5258 10.9866 10.7191 10.7818 11.1266C10.7104 11.2687 10.6784 11.4376 10.6731 11.5953C10.6615 11.9376 10.6642 12.2802 10.6668 12.6229C10.6675 12.7099 10.6681 12.7968 10.6686 12.8837C10.6716 13.4843 11.1651 13.9376 11.8246 13.9407C12.3408 13.9431 12.857 13.9426 13.3732 13.942C13.5928 13.9418 13.8123 13.9416 14.0319 13.9416H15.734C15.7348 13.957 15.7357 13.9712 15.7366 13.9845C15.7382 14.0107 15.7397 14.0337 15.7397 14.0564V15.5668C15.7387 15.9961 15.4696 16.2436 15.0024 16.2436C11.7782 16.2442 8.55401 16.2442 5.32983 16.2436C4.86281 16.2436 4.58936 15.9935 4.58936 15.5682V8.92459C4.58936 8.51387 4.8663 8.26074 5.31751 8.26074H15.0247C15.4393 8.26074 15.7252 8.48633 15.7337 8.84959C15.7429 9.23641 15.7409 9.6236 15.7389 10.0166C15.7381 10.1845 15.7372 10.3534 15.7372 10.5238ZM10.0343 7.33182L9.05073 7.70979L9.0498 7.72825H14.0679C14.0498 7.63524 14.0321 7.54342 14.0145 7.45246L14.0144 7.45172C13.9736 7.24004 13.9337 7.03305 13.8919 6.82679C13.7777 6.26188 13.4722 6.023 13.0655 6.17775C12.055 6.56208 11.0446 6.94677 10.0343 7.33182ZM11.8354 6.45172L11.6502 6.50482C11.4493 6.56245 11.254 6.61846 11.0587 6.6738C10.7572 6.75912 10.4557 6.84484 10.1543 6.93055L10.1522 6.93114C9.25996 7.18487 8.36783 7.43856 7.47288 7.68189C7.33261 7.72003 7.18303 7.72129 7.03339 7.72254C6.96382 7.72312 6.89423 7.72371 6.82556 7.728L6.81738 7.69834L6.83664 7.68553C6.85497 7.67322 6.87323 7.66096 6.8927 7.65093C8.16512 6.9968 9.43781 6.34304 10.7108 5.68967C11.0881 5.49594 11.434 5.61814 11.6238 6.00772C11.6733 6.1093 11.7216 6.21145 11.772 6.31788L11.8354 6.45172ZM15.915 13.5233C16.1295 13.4473 16.2297 13.2663 16.2988 13.064L16.2987 11.4452C16.1251 11.0204 15.9767 10.9216 15.5126 10.9216H11.9843C11.5415 10.9218 11.2808 11.1803 11.2808 11.6201V12.878C11.2814 13.3201 11.5374 13.5813 11.9792 13.5813C13.1882 13.5837 14.3972 13.583 15.6062 13.5793C15.7115 13.5779 15.8159 13.559 15.915 13.5233ZM12.39 12.249C12.39 12.493 12.4273 12.5955 12.559 12.6506C12.6374 12.6855 12.7222 12.7035 12.808 12.7035C12.8938 12.7035 12.9786 12.6855 13.0569 12.6506C13.2292 12.5741 13.2298 12.412 13.2305 12.2522C13.2305 12.2475 13.2305 12.2428 13.2305 12.2381C13.2305 12.0892 13.1997 11.952 13.0541 11.8929C12.9751 11.8595 12.8901 11.8428 12.8043 11.8438C12.7186 11.8448 12.634 11.8636 12.5559 11.8989C12.3968 11.9706 12.382 12.1179 12.39 12.249Z" fill="#30D1FF"/>
</svg>
