<svg width="18" height="18" viewBox="0 0 18 18"  xmlns="http://www.w3.org/2000/svg">
<path d="M17.6119 0.613295C17.0919 0.0932946 16.2519 0.0932946 15.7319 0.613295L9.21188 7.11996L2.69188 0.599961C2.17188 0.0799609 1.33188 0.0799609 0.811875 0.599961C0.291875 1.11996 0.291875 1.95996 0.811875 2.47996L7.33188 8.99996L0.811875 15.52C0.291875 16.04 0.291875 16.88 0.811875 17.4C1.33188 17.92 2.17188 17.92 2.69188 17.4L9.21188 10.88L15.7319 17.4C16.2519 17.92 17.0919 17.92 17.6119 17.4C18.1319 16.88 18.1319 16.04 17.6119 15.52L11.0919 8.99996L17.6119 2.47996C18.1185 1.97329 18.1185 1.11996 17.6119 0.613295V0.613295Z" fill="white"/>
</svg>
