<svg width="59" height="53" viewBox="0 0 59 53" fill="none" xmlns="http://www.w3.org/2000/svg">
<path d="M0.00294372 32.2761C1.57416 29.9878 3.13143 27.691 4.72256 25.4152C5.34487 24.5237 6.55564 24.4637 7.41094 25.2563C8.53708 26.3029 9.63533 27.3704 10.7465 28.4294C11.4502 29.1011 12.1541 29.7728 12.8584 30.4445C13.409 30.9678 13.6211 31.5796 13.3483 32.2913C13.0755 33.003 12.4711 33.3084 11.7084 33.3769C10.871 33.4511 10.0356 33.5367 9.08272 33.629C9.33463 34.2474 9.53975 34.8431 9.81257 35.4092C12.9819 41.9856 18.1764 46.3574 25.4958 48.2708C30.9433 49.698 36.2912 49.2498 41.4409 46.9806C46.1775 44.8941 49.8207 41.6525 52.3558 37.3111C54.6399 33.3988 55.5898 29.1877 55.2592 24.7092C54.9675 20.756 53.6542 17.1376 51.376 13.8456C49.1452 10.6075 46.0792 7.97306 42.4735 6.19599C39.0881 4.50718 35.4837 3.68322 31.6711 3.64326C30.6077 3.6328 29.843 2.90494 29.859 1.97728C29.8749 1.04962 30.6555 0.338894 31.7219 0.359826C40.8266 0.555823 48.1509 4.12755 53.5805 11.0997C57.3562 15.9521 58.9782 21.4848 58.7511 27.5122C58.316 39.0494 49.4981 49.1956 37.6652 51.6789C29.4507 53.3991 21.8914 51.8587 15.1515 47.0491C10.6709 43.8485 7.55731 39.6336 5.78596 34.5443C5.63362 34.1085 5.45439 33.9401 4.94957 34.0143C4.10124 34.138 3.23299 34.1466 2.38366 34.2703C1.24458 34.4377 0.442052 34.08 0.00195312 33.0458L0.00294372 32.2761Z" fill="#30D1FF"/>
<path d="M20.9665 5.03609C20.9436 5.71923 20.5742 6.17211 19.9897 6.54508C18.7202 7.35476 17.4327 8.14731 16.2409 9.05309C14.4636 10.4013 13.0138 12.0549 11.7543 13.8569C11.2982 14.5096 10.6829 14.856 9.85448 14.6828C8.62579 14.4259 8.0911 13.1129 8.85878 12.1015C9.80071 10.8646 10.7705 9.63347 11.8459 8.5022C13.6949 6.55745 15.8715 4.98186 18.2661 3.68408C19.5267 3.0038 20.9595 3.72785 20.9665 5.03609Z" fill="#30D1FF"/>
<path d="M31.572 11.5459C23.0568 11.5583 16.0899 18.2203 16.0879 26.3514C16.0859 34.4824 23.0518 41.1425 31.569 41.1587C40.0862 41.1749 47.0481 34.53 47.073 26.3818C47.0979 18.2336 40.0982 11.5335 31.572 11.5459ZM30.1133 29.5282V31.7584H21.384V30.1857C21.384 29.5565 21.4016 29.0173 21.4368 28.5682C21.4592 28.1736 21.5376 27.7838 21.6698 27.4094C21.788 27.094 21.9877 26.8122 22.2503 26.5902C22.5783 26.3287 22.9481 26.1193 23.3455 25.9698L25.9782 24.9603C26.2376 24.8644 26.487 24.7452 26.7229 24.6045C26.8724 24.5148 26.983 24.3766 27.0346 24.2154C27.087 24.0041 27.1101 23.7873 27.1033 23.5703C27.1033 23.229 27.0456 22.9778 26.9301 22.8167C26.8146 22.6569 26.6074 22.5579 26.3067 22.5189C25.8872 22.4746 25.4652 22.4552 25.0432 22.4609C24.7883 22.4609 24.4737 22.472 24.0993 22.4942C23.7239 22.517 23.3216 22.5437 22.8955 22.577C22.4693 22.6103 22.0461 22.6493 21.6309 22.693V20.6037C22.012 20.5402 22.4434 20.4797 22.9254 20.4219C23.4073 20.3642 23.9051 20.3201 24.4189 20.2897C24.9327 20.2567 25.409 20.2402 25.8477 20.2402C26.3954 20.2379 26.9425 20.2739 27.4847 20.3477C27.9609 20.4075 28.4216 20.5503 28.8438 20.7692C29.245 20.9877 29.568 21.3166 29.7708 21.7131C29.9958 22.1323 30.1083 22.695 30.1083 23.4009C30.1083 24.1069 30.0303 24.6749 29.8743 25.105C29.7437 25.4982 29.5079 25.8521 29.1903 26.1316C28.8654 26.3993 28.4949 26.612 28.095 26.7605L25.1159 27.8689C24.9272 27.9354 24.7495 28.0273 24.5882 28.142C24.4669 28.2355 24.3792 28.3629 24.3373 28.5064C24.2851 28.6979 24.2616 28.8956 24.2676 29.0934V29.5244L30.1133 29.5282ZM41.7859 29.4778H40.3142V31.7613H37.3351V29.475H31.6546V27.5055L35.742 20.3696H38.9979L34.807 27.2543H37.4217L38.288 24.5065H40.3142V27.2543H41.7859V29.4778Z" fill="#30D1FF"/>
</svg>
