<svg width="28" height="28" viewBox="0 0 28 28" fill="none" xmlns="http://www.w3.org/2000/svg">
<path d="M24.9007 13.3199H26.1762C26.363 13.3314 26.5501 13.3058 26.7269 13.2446C26.9037 13.1834 27.0667 13.0877 27.2063 12.9632C27.346 12.8387 27.4596 12.6878 27.5407 12.5191C27.6217 12.3505 27.6685 12.1675 27.6785 11.9806C27.6685 11.7938 27.6217 11.6108 27.5407 11.4421C27.4596 11.2735 27.346 11.1225 27.2063 10.998C27.0667 10.8735 26.9037 10.7779 26.7269 10.7167C26.5501 10.6555 26.363 10.6299 26.1762 10.6413H1.51644C1.33027 10.6308 1.14384 10.6571 0.967855 10.7188C0.791871 10.7805 0.62979 10.8762 0.490891 11.0007C0.351992 11.1251 0.238969 11.2757 0.158383 11.4438C0.0777961 11.612 0.0312381 11.7944 0.0212791 11.9806C0.0312381 12.1668 0.0777961 12.3492 0.158383 12.5174C0.238969 12.6856 0.351992 12.8362 0.490891 12.9606C0.62979 13.085 0.791871 13.1808 0.967855 13.2424C1.14384 13.3041 1.33027 13.3304 1.51644 13.3199H2.83445V24.0908H0V27.067H27.6359V24.0908H24.8581L24.9007 13.3199ZM22.5126 13.3199V24.0908H19.9758V13.3199H22.5126ZM17.5948 13.3199V24.0908H15.058V13.3199H17.5948ZM12.6345 13.3199V24.0908H10.1048V13.3199H12.6345ZM5.1871 13.3199H7.7168V24.0908H5.1871V13.3199Z" fill="#30D1FF"/>
<path d="M14.0953 4.8378V0.94043H13.5993V4.84488C9.07853 4.88738 4.74638 6.66283 1.49609 9.80518H26.1983C22.9492 6.66024 18.617 4.8822 14.0953 4.8378Z" fill="#30D1FF"/>
<path d="M16.687 0.933594H16.2335L15.2344 3.51294H15.6879L16.687 0.933594Z" fill="#30D1FF"/>
<path d="M14.8863 0.933594L14.2344 2.60592V3.51294H14.3407L15.3398 0.933594H14.8863Z" fill="#30D1FF"/>
<path d="M17.3609 0.933594H16.9073L15.9082 3.51294H16.3617L17.3609 0.933594Z" fill="#30D1FF"/>
<path d="M16.0132 0.933594H15.5597L14.5605 3.51294H15.0141L16.0132 0.933594Z" fill="#30D1FF"/>
<path d="M17.9355 3.51244H18.2615V2.66211L17.9355 3.51244Z" fill="#30D1FF"/>
<path d="M18.0437 0.933594H17.5831L16.584 3.51294H17.0446L18.0437 0.933594Z" fill="#30D1FF"/>
<path d="M14.6666 0.933594H14.2344V2.03903L14.6666 0.933594Z" fill="#30D1FF"/>
<path d="M18.2609 2.09572V0.933594L17.2617 3.51294H17.7152L18.2609 2.09572Z" fill="#30D1FF"/>
</svg>
