<svg width="19" height="28" viewBox="0 0 19 28" fill="none" xmlns="http://www.w3.org/2000/svg">
<path d="M8.55622 5.3701V3.14648L2.89258 7.40777L4.36466 8.52346L8.55622 5.3701Z" fill="#30D1FF"/>
<path d="M8.55829 0L0.802734 5.83409L2.18184 6.8723L8.55829 2.07641V0Z" fill="#30D1FF"/>
<path d="M8.55757 9.73145L7.26367 10.7077L8.55757 11.6761V9.73145Z" fill="#30D1FF"/>
<path d="M8.55883 8.6621V6.43848L5.08008 9.05723L6.55991 10.1729L8.55883 8.6621Z" fill="#30D1FF"/>
<path d="M11.3634 5.31442C10.896 5.19368 10.4191 5.11332 9.93793 5.07423V2.26953H9.03906V9.39751H9.93793V6.48433C10.298 6.52633 10.6551 6.59103 11.007 6.67803C12.9642 7.18861 14.6398 8.45308 15.6676 10.1952C16.6955 11.9373 16.9921 14.0153 16.4925 15.9754C16.2864 16.8014 15.9433 17.5871 15.4775 18.2997L16.6087 19.152C17.1827 18.3032 17.6073 17.3625 17.8639 16.3705C18.467 14.0424 18.121 11.5701 16.9021 9.49697C15.6831 7.4238 13.691 5.91941 11.3634 5.31442V5.31442Z" fill="#30D1FF"/>
<path d="M8.32578 18.588V21.6871C7.9312 21.6502 7.54006 21.5828 7.15585 21.4857C5.19723 20.9768 3.51974 19.713 2.49034 17.9707C1.46094 16.2284 1.16333 14.1494 1.6626 12.1883C1.87987 11.3622 2.23062 10.5771 2.70087 9.86398L1.56972 9.01172C0.986738 9.86967 0.554292 10.8208 0.291219 11.8242C-0.00843214 12.978 -0.077638 14.1795 0.0873101 15.3601C0.252258 16.5408 0.648287 17.6773 1.2527 18.7048C1.85711 19.7323 2.658 20.6306 3.60976 21.3484C4.56152 22.0662 5.64543 22.5894 6.79949 22.888C7.30821 23.0152 7.82644 23.1007 8.34905 23.1437V25.7315H9.23997V18.588H8.32578Z" fill="#30D1FF"/>
<path d="M9.71289 21.6943V19.4707L15.3765 23.732L13.8967 24.8477L9.71289 21.6943Z" fill="#30D1FF"/>
<path d="M9.71289 16.3242L17.4607 22.1583L16.0816 23.1965L9.71289 18.4006V16.3242Z" fill="#30D1FF"/>
<path d="M9.71289 26.0547L10.999 27.0309L9.71289 27.9994V26.0547Z" fill="#30D1FF"/>
<path d="M9.71289 24.9863V22.7627L13.1839 25.3815L11.7118 26.4894L9.71289 24.9863Z" fill="#30D1FF"/>
</svg>
