<svg width="21" height="21" viewBox="0 0 21 21" fill="none" xmlns="http://www.w3.org/2000/svg">
<path d="M7.95539 11.9014C7.82459 11.9005 7.69869 11.9511 7.6049 12.0424C7.51111 12.1337 7.45695 12.2583 7.45415 12.3893C7.45325 12.4555 7.4655 12.5212 7.49017 12.5827C7.51483 12.6441 7.55144 12.7 7.59786 12.7472C7.64427 12.7944 7.69958 12.8318 7.76057 12.8574C7.82155 12.883 7.88701 12.8962 7.95313 12.8963C8.08373 12.8946 8.20845 12.8417 8.30064 12.7491C8.39284 12.6564 8.44518 12.5313 8.44649 12.4005C8.44665 12.2694 8.39519 12.1434 8.30327 12.05C8.21134 11.9565 8.08635 11.9032 7.95539 11.9014Z" fill="#30D1FF"/>
<path d="M7.97114 13.8929C7.90513 13.8904 7.83928 13.9011 7.77742 13.9244C7.71556 13.9476 7.65894 13.9829 7.61083 14.0283C7.56273 14.0736 7.5241 14.1281 7.4972 14.1885C7.4703 14.2489 7.45567 14.3141 7.45415 14.3803C7.45231 14.5113 7.50191 14.6379 7.59228 14.7327C7.68265 14.8275 7.80657 14.883 7.93739 14.8873C8.06762 14.8889 8.19333 14.8396 8.28786 14.7499C8.38239 14.6601 8.43828 14.537 8.44369 14.4067C8.44769 14.2762 8.40045 14.1493 8.31211 14.0533C8.22377 13.9572 8.10136 13.8996 7.97114 13.8929Z" fill="#30D1FF"/>
<path d="M13.4202 13.8932C12.2606 13.8898 11.1012 13.8898 9.94193 13.8932C9.85313 13.8903 9.76532 13.9125 9.68846 13.9571C9.6116 14.0017 9.54876 14.067 9.50707 14.1456C9.46354 14.2214 9.44088 14.3074 9.44142 14.3949C9.44195 14.4823 9.46564 14.5681 9.51009 14.6433C9.55454 14.7186 9.61814 14.7807 9.69441 14.8233C9.77067 14.8659 9.85686 14.8875 9.94417 14.8858C10.5236 14.892 11.1036 14.8858 11.683 14.8858C12.2625 14.8858 12.843 14.8892 13.4224 14.8858C13.4874 14.8858 13.5518 14.873 13.6117 14.8479C13.6717 14.8229 13.7262 14.7863 13.7719 14.7401C13.8177 14.6939 13.8538 14.6391 13.8783 14.5788C13.9029 14.5185 13.9152 14.454 13.9147 14.3889C13.9149 14.3238 13.9023 14.2593 13.8775 14.1991C13.8527 14.1389 13.8163 14.0841 13.7704 14.0381C13.7244 13.992 13.6698 13.9555 13.6097 13.9306C13.5496 13.9057 13.4852 13.893 13.4202 13.8932Z" fill="#30D1FF"/>
<path d="M7.9604 9.90827C7.89441 9.90715 7.82885 9.91919 7.76754 9.94367C7.70624 9.96816 7.65041 10.0046 7.6033 10.0509C7.55618 10.0972 7.51873 10.1524 7.49311 10.2133C7.4675 10.2742 7.45424 10.3396 7.4541 10.4057C7.45483 10.5367 7.5069 10.6621 7.59908 10.7549C7.69126 10.8478 7.81617 10.9006 7.9469 10.9021C8.07722 10.9024 8.20251 10.8517 8.29596 10.7607C8.38942 10.6698 8.44363 10.5458 8.44701 10.4153C8.44913 10.2836 8.39916 10.1564 8.30801 10.0614C8.21685 9.96642 8.09191 9.91138 7.9604 9.90827Z" fill="#30D1FF"/>
<path d="M10.1429 0.500005C4.51281 0.505639 0.00281277 5.03298 0 10.6809C0 16.1665 4.55669 20.7249 10.018 20.7553C15.6475 20.7863 20.2565 16.2826 20.2565 10.6048C20.2542 5.04312 15.6986 0.494371 10.1429 0.500005ZM12.1776 4.2634C12.1884 4.20196 12.2089 4.14262 12.2384 4.08763C12.2946 4.11467 12.3649 4.12819 12.4071 4.16988C13.251 5.01045 14.0927 5.85345 14.9324 6.6989C14.9707 6.73778 14.9808 6.80369 15.0039 6.85721C14.9546 6.88647 14.9008 6.90724 14.8447 6.91862C14.4824 6.92369 14.1201 6.91862 13.7578 6.91862C13.4107 6.91862 13.0642 6.91862 12.7171 6.91862C12.37 6.91862 12.1759 6.71637 12.1754 6.37665C12.1742 5.67411 12.1737 4.96876 12.1776 4.2634ZM15.6542 16.3299C15.6542 16.9496 15.2317 17.3761 14.6112 17.3767C11.9968 17.3767 9.38228 17.3767 6.76753 17.3767C6.13522 17.3767 5.71387 16.9564 5.71387 16.3254C5.71387 14.3494 5.71387 12.3735 5.71387 10.3975V4.53213C5.71387 3.84424 6.1189 3.43635 6.80072 3.43635H10.6064C10.9893 3.43635 11.181 3.62659 11.1813 4.00706C11.1813 4.79016 11.1813 5.57326 11.1813 6.35636C11.1813 7.2713 11.8221 7.91412 12.7329 7.91581C13.5204 7.91581 14.308 7.91581 15.0956 7.91581C15.4551 7.91581 15.6581 8.11412 15.6581 8.4713C15.6563 11.091 15.655 13.7109 15.6542 16.3311V16.3299Z" fill="#30D1FF"/>
<path d="M13.354 11.9004C12.7948 11.9004 12.2356 11.9004 11.6764 11.9004C11.1071 11.9004 10.5378 11.9004 9.96852 11.9004C9.73281 11.9004 9.55504 12.0164 9.47685 12.2125C9.34127 12.5505 9.58936 12.8948 9.97864 12.8953C11.1071 12.8953 12.2356 12.8953 13.3641 12.8953C13.6909 12.8953 13.9171 12.6863 13.9143 12.3928C13.9115 12.0993 13.6853 11.9004 13.354 11.9004Z" fill="#30D1FF"/>
<path d="M13.3554 9.9082H10.0009C9.66951 9.9082 9.44506 10.1082 9.44337 10.4023C9.44168 10.6964 9.66839 10.9026 9.99523 10.9031C10.5544 10.9031 11.1134 10.9031 11.6722 10.9031C12.231 10.9031 12.7902 10.9031 13.3497 10.9031C13.6907 10.9031 13.9185 10.6998 13.9157 10.4006C13.9129 10.1014 13.6873 9.9082 13.3554 9.9082Z" fill="#30D1FF"/>
</svg>
