<svg width="21" height="22" viewBox="0 0 21 22" fill="none" xmlns="http://www.w3.org/2000/svg">
<path d="M10.5175 0.500004C16.2772 0.494748 21 5.21012 21 10.9769C21 16.8627 16.2241 21.532 10.3857 21.4998C4.7222 21.4689 -0.00291467 16.7424 1.34895e-06 11.0551C0.00699979 5.19961 4.68546 0.505845 10.5175 0.500004ZM16.5 7.55583C16.5009 7.39785 16.448 7.24428 16.3501 7.12046C16.2521 6.99665 16.1149 6.90998 15.9611 6.87478C15.6573 6.80293 15.4281 6.92501 15.2181 7.13529C13.1186 9.23801 11.0163 11.3407 8.91136 13.4435C8.69557 13.6596 8.646 13.6596 8.43313 13.447C8.03072 13.0459 7.6285 12.644 7.22648 12.2414C6.72142 11.7368 6.21812 11.2303 5.71015 10.7274C5.62021 10.6304 5.50371 10.562 5.37521 10.5308C5.2467 10.4997 5.11187 10.5071 4.98756 10.5522C4.8673 10.5869 4.75946 10.6553 4.67679 10.7494C4.59411 10.8435 4.54005 10.9593 4.521 11.0832C4.46734 11.3577 4.57932 11.575 4.77411 11.7683C5.9895 12.9852 7.20296 14.2038 8.41446 15.4241C8.64775 15.6613 8.69032 15.6613 8.92535 15.4241L13.0538 11.2969C14.1098 10.2405 15.1666 9.18447 16.2241 8.12882C16.3892 7.96762 16.5082 7.79297 16.5017 7.55583H16.5Z" fill="#30D1FF"/>
</svg>
