<svg width="28" height="28" viewBox="0 0 28 28" fill="none" xmlns="http://www.w3.org/2000/svg">
<path d="M14.0233 5.85476e-06C21.703 -0.00700324 28 6.28016 28 13.9691C28 21.817 21.6322 28.0426 13.8476 27.9998C6.29627 27.9585 -0.00388623 21.6566 1.79861e-06 14.0735C0.00933306 6.26614 6.24728 0.00779374 14.0233 5.85476e-06ZM22 9.40777C22.0012 9.19713 21.9307 8.99237 21.8001 8.82728C21.6694 8.66219 21.4865 8.54664 21.2815 8.4997C20.8764 8.40391 20.5708 8.56668 20.2908 8.84705C17.4914 11.6507 14.6884 14.4543 11.8818 17.258C11.5941 17.5461 11.528 17.5461 11.2442 17.2626C10.7076 16.7279 10.1713 16.1921 9.63531 15.6552C8.9619 14.9823 8.29083 14.3071 7.61353 13.6366C7.49361 13.5072 7.33828 13.416 7.16694 13.3744C6.9956 13.3329 6.81583 13.3428 6.65008 13.403C6.48973 13.4492 6.34595 13.5404 6.23572 13.6658C6.12548 13.7913 6.0534 13.9457 6.02799 14.1109C5.95645 14.4769 6.10576 14.7666 6.36548 15.0244C7.986 16.6469 9.60394 18.2717 11.2193 19.8988C11.5303 20.215 11.5871 20.215 11.9005 19.8988L17.4051 14.3959C18.8131 12.9873 20.2221 11.5793 21.6322 10.1718C21.8523 9.95682 22.0109 9.72396 22.0023 9.40777H22Z" fill="#30D1FF"/>
</svg>
