<svg width="21" height="22" viewBox="0 0 21 22" fill="none" xmlns="http://www.w3.org/2000/svg">
<path d="M10.5155 0.500005C4.67891 0.505846 0.00291594 5.1996 0 11.0551C0 16.7424 4.72382 21.4683 10.386 21.4998C16.2219 21.532 21 16.8627 21 10.9763C20.9977 5.21012 16.275 0.494165 10.5155 0.500005ZM16.5561 11.7408C16.5397 11.8005 16.5107 11.856 16.4711 11.9035C16.4315 11.9511 16.3822 11.9895 16.3265 12.0164C16.2708 12.0432 16.21 12.0578 16.1482 12.0591C16.0864 12.0605 16.0251 12.0485 15.9683 12.0241C15.7426 11.9371 15.5233 11.8302 15.2923 11.7642C14.5511 11.5533 13.8099 11.6211 13.0937 11.8623C12.2189 12.1544 11.3657 12.5013 10.4997 12.8144C9.89261 13.0328 9.27501 13.2075 8.62068 13.2168C8.1536 13.2282 7.68974 13.1367 7.26185 12.9487C7.22569 12.933 7.1872 12.9225 7.13355 12.9038V13.079C7.13355 14.6993 7.12422 16.3195 7.13938 17.9392C7.14346 18.3966 7.007 18.7219 6.55619 18.8738H6.28209C6.18116 18.8334 6.08365 18.785 5.9905 18.7289C5.75723 18.5624 5.69483 18.32 5.69541 18.0432C5.69774 13.9787 5.69774 9.91438 5.69541 5.85028C5.69541 5.79537 5.69541 5.74047 5.70066 5.68615C5.7122 5.50375 5.79361 5.33286 5.92791 5.20912C6.06221 5.08538 6.23903 5.01836 6.42148 5.02204C6.60151 5.02352 6.77436 5.09297 6.90549 5.21651C7.03663 5.34006 7.11641 5.5086 7.12888 5.68848C7.12888 5.71535 7.12888 5.74281 7.12888 5.77026C7.13413 6.07807 7.13413 6.07749 7.42748 6.18555C8.13897 6.44722 8.86037 6.42853 9.58527 6.25681C10.2938 6.08859 10.9633 5.80706 11.6375 5.54013C12.3117 5.2732 12.9695 5.01445 13.6787 4.88244C14.6456 4.70371 15.539 4.86433 16.3508 5.43558C16.4187 5.47832 16.4744 5.53786 16.5126 5.60846C16.5508 5.67905 16.5702 5.75831 16.5689 5.8386C16.5689 6.03953 16.5689 6.24104 16.5689 6.44255C16.5689 8.12629 16.5689 9.81042 16.5689 11.4949C16.5744 11.5771 16.5701 11.6597 16.5561 11.7408Z" fill="#30D1FF"/>
</svg>
