<svg width="28" height="28" viewBox="0 0 28 28" fill="none" xmlns="http://www.w3.org/2000/svg">
<path d="M16.3022 4.53068C14.9444 5.418 13.68 6.44041 12.5281 7.5823C11.7646 8.34881 11.0546 9.16676 10.403 10.0304C8.29456 12.9234 6.71466 16.1667 5.73633 19.6103L8.28643 22.1604C11.73 21.182 14.9733 19.6021 17.8663 17.4937C18.7299 16.8421 19.5478 16.1321 20.3143 15.3686C21.4562 14.2167 22.4787 12.9522 23.366 11.5945C25.6245 8.0689 27.1536 4.12644 27.8627 0C23.7443 0.719229 19.8126 2.26006 16.3022 4.53068ZM21.1899 10.9824C20.6417 11.5295 19.8988 11.8368 19.1243 11.8368C18.3498 11.8368 17.607 11.5295 17.0588 10.9824C16.5117 10.4342 16.2044 9.69135 16.2044 8.91685C16.2044 8.14234 16.5117 7.39948 17.0588 6.85127C17.607 6.30416 18.3498 5.9969 19.1243 5.9969C19.8988 5.9969 20.6417 6.30416 21.1899 6.85127C21.737 7.39948 22.0443 8.14234 22.0443 8.91685C22.0443 9.69135 21.737 10.4342 21.1899 10.9824Z" fill="#30D1FF"/>
<path d="M22.1163 19.9415C23.3953 17.7253 23.9259 15.1558 23.6294 12.6143C22.7471 13.9783 21.7242 15.2461 20.5777 16.3969C19.8111 17.1577 18.9933 17.8649 18.1297 18.5135C18.2955 19.1334 18.3979 19.7685 18.4356 20.4091C18.5114 21.6538 18.3557 22.9017 17.9766 24.0897C19.6843 23.0783 21.1084 21.6513 22.1163 19.9415Z" fill="#30D1FF"/>
<path d="M15.7072 3.94346C13.1656 3.64695 10.5962 4.17754 8.37999 5.45652C6.67219 6.46407 5.24778 7.88838 4.24023 9.59618C5.42821 9.21705 6.67624 9.06141 7.92094 9.13717C8.56144 9.1756 9.19645 9.27812 9.8165 9.44318C10.4626 8.5776 11.1699 7.75947 11.9331 6.99508C13.0828 5.85072 14.3475 4.8281 15.7072 3.94346Z" fill="#30D1FF"/>
<path d="M5.15947 20.7917L2.60938 27.592C2.80488 27.541 3.00887 27.4815 3.22137 27.405L5.66937 20.9448L5.43133 20.6982H5.34646L5.15947 20.7917Z" fill="#30D1FF"/>
<path d="M4.23369 21.0883L1.68359 27.7866L2.08308 27.6931L2.27858 27.6421L4.82867 20.8418L4.23369 21.0883Z" fill="#30D1FF"/>
<path d="M6.81875 22.0929L6.42777 21.6934L4.47266 26.7936C4.72692 26.6549 4.97128 26.4987 5.20378 26.326L6.81875 22.0929Z" fill="#30D1FF"/>
<path d="M3.50195 27.278C3.72264 27.1973 3.93837 27.1036 4.14799 26.9975L6.23053 21.5062L5.83954 21.1152L3.50195 27.278Z" fill="#30D1FF"/>
<path d="M1.92025 22.3564C0.837733 23.8045 0.183884 25.5275 0.0332031 27.3291L1.92025 22.3564Z" fill="#30D1FF"/>
<path d="M5.57617 26.0619C5.72544 25.9339 5.86468 25.7947 5.99268 25.6454C6.6472 24.9314 6.68113 24.0219 7.19115 22.6448L7.26773 22.5428L7.01268 22.2793L5.57617 26.0619Z" fill="#30D1FF"/>
<path d="M3.00915 21.4971C2.75002 21.5945 2.51084 21.7386 2.30356 21.9221L0 27.9998H0.560947L3.00915 21.4971Z" fill="#30D1FF"/>
<path d="M3.93477 21.1738L3.31406 21.3778L0.832031 27.9231L1.41 27.8381L3.93477 21.1738Z" fill="#30D1FF"/>
</svg>
