<svg width="25" height="25" viewBox="0 0 25 25" fill="none" xmlns="http://www.w3.org/2000/svg">
<path d="M11.7646 20.1142L10.4395 18.8892C8.37288 16.9725 6.58122 15.1433 5.06455 13.4017C3.54788 11.66 2.78955 9.83918 2.78955 7.93918C2.78955 6.43918 3.29372 5.18502 4.30205 4.17668C5.31038 3.16835 6.55622 2.66418 8.03955 2.66418C8.88955 2.66418 9.73122 2.86835 10.5645 3.27668C11.3979 3.68502 12.1396 4.35585 12.7896 5.28918C13.5229 4.35585 14.2812 3.68502 15.0645 3.27668C15.8479 2.86835 16.6729 2.66418 17.5395 2.66418C19.0229 2.66418 20.2687 3.16835 21.277 4.17668C22.2854 5.18502 22.7896 6.43918 22.7896 7.93918C22.7896 9.83918 22.0312 11.66 20.5145 13.4017C18.9979 15.1433 17.2062 16.9725 15.1396 18.8892L13.8145 20.1142C13.5312 20.3809 13.1896 20.5142 12.7896 20.5142C12.3896 20.5142 12.0479 20.3809 11.7646 20.1142ZM12.1396 6.93918C11.6896 6.12252 11.0979 5.45585 10.3646 4.93918C9.63122 4.42252 8.85622 4.16418 8.03955 4.16418C6.93955 4.16418 6.03955 4.51835 5.33955 5.22668C4.63955 5.93502 4.28955 6.83918 4.28955 7.93918C4.28955 8.90585 4.61455 9.91835 5.26455 10.9767C5.91455 12.035 6.68955 13.0642 7.58955 14.0642C8.48955 15.0642 9.42288 15.9934 10.3896 16.8517C11.3562 17.71 12.1562 18.4309 12.7896 19.0142C13.4229 18.4475 14.2229 17.7309 15.1896 16.8642C16.1562 15.9975 17.0896 15.06 17.9896 14.0517C18.8896 13.0434 19.6645 12.01 20.3145 10.9517C20.9645 9.89335 21.2896 8.88918 21.2896 7.93918C21.2896 6.83918 20.9354 5.93502 20.227 5.22668C19.5187 4.51835 18.6229 4.16418 17.5395 4.16418C16.7062 4.16418 15.927 4.41835 15.2021 4.92668C14.477 5.43502 13.8729 6.10585 13.3896 6.93918C13.3062 7.07252 13.2146 7.16835 13.1145 7.22668C13.0146 7.28502 12.8979 7.31418 12.7646 7.31418C12.6312 7.31418 12.5104 7.28502 12.4021 7.22668C12.2937 7.16835 12.2062 7.07252 12.1396 6.93918Z" fill="#787CA9"/>
<path d="M12.1396 6.93918C11.6896 6.12252 11.0979 5.45585 10.3646 4.93918C9.63122 4.42252 8.85622 4.16418 8.03955 4.16418C6.93955 4.16418 6.03955 4.51835 5.33955 5.22668C4.63955 5.93502 4.28955 6.83918 4.28955 7.93918C4.28955 8.90585 4.61455 9.91835 5.26455 10.9767C5.91455 12.035 6.68955 13.0642 7.58955 14.0642C8.48955 15.0642 9.42288 15.9934 10.3896 16.8517C11.3562 17.71 12.1562 18.4309 12.7896 19.0142C13.4229 18.4475 14.2229 17.7309 15.1896 16.8642C16.1562 15.9975 17.0896 15.06 17.9896 14.0517C18.8896 13.0434 19.6645 12.01 20.3145 10.9517C20.9645 9.89335 21.2896 8.88918 21.2896 7.93918C21.2896 6.83918 20.9354 5.93502 20.227 5.22668C19.5187 4.51835 18.6229 4.16418 17.5395 4.16418C16.7062 4.16418 15.927 4.41835 15.2021 4.92668C14.477 5.43502 13.8729 6.10585 13.3896 6.93918C13.3062 7.07252 13.2146 7.16835 13.1145 7.22668C13.0146 7.28502 12.8979 7.31418 12.7646 7.31418C12.6312 7.31418 12.5104 7.28502 12.4021 7.22668C12.2937 7.16835 12.2062 7.07252 12.1396 6.93918Z" fill="#787CA9"/>
</svg>
