<svg width="25" height="24" viewBox="0 0 25 24" fill="none" xmlns="http://www.w3.org/2000/svg">
  <mask id="path-1-inside-1_2182_9921" fill="white">
    <path fill-rule="evenodd" clip-rule="evenodd"
      d="M12.5 23.3516C18.7692 23.3516 23.8514 18.2694 23.8514 12.0002C23.8514 5.73107 18.7692 0.648893 12.5 0.648893C6.23082 0.648893 1.14865 5.73107 1.14865 12.0002C1.14865 18.2694 6.23082 23.3516 12.5 23.3516ZM12.5 24.0002C19.1274 24.0002 24.5 18.6277 24.5 12.0002C24.5 5.37283 19.1274 0.000244141 12.5 0.000244141C5.87258 0.000244141 0.5 5.37283 0.5 12.0002C0.5 18.6277 5.87258 24.0002 12.5 24.0002Z" />
  </mask>
  <path fill-rule="evenodd" clip-rule="evenodd"
    d="M12.5 23.3516C18.7692 23.3516 23.8514 18.2694 23.8514 12.0002C23.8514 5.73107 18.7692 0.648893 12.5 0.648893C6.23082 0.648893 1.14865 5.73107 1.14865 12.0002C1.14865 18.2694 6.23082 23.3516 12.5 23.3516ZM12.5 24.0002C19.1274 24.0002 24.5 18.6277 24.5 12.0002C24.5 5.37283 19.1274 0.000244141 12.5 0.000244141C5.87258 0.000244141 0.5 5.37283 0.5 12.0002C0.5 18.6277 5.87258 24.0002 12.5 24.0002Z"
    fill="white" />
  <path
    d="M22.8514 12.0002C22.8514 17.7171 18.2169 22.3516 12.5 22.3516V24.3516C19.3215 24.3516 24.8514 18.8217 24.8514 12.0002H22.8514ZM12.5 1.64889C18.2169 1.64889 22.8514 6.28335 22.8514 12.0002H24.8514C24.8514 5.17878 19.3215 -0.351107 12.5 -0.351107V1.64889ZM2.14865 12.0002C2.14865 6.28335 6.78311 1.64889 12.5 1.64889V-0.351107C5.67854 -0.351107 0.148649 5.17878 0.148649 12.0002H2.14865ZM12.5 22.3516C6.78311 22.3516 2.14865 17.7171 2.14865 12.0002H0.148649C0.148649 18.8217 5.67854 24.3516 12.5 24.3516V22.3516ZM23.5 12.0002C23.5 18.0754 18.5751 23.0002 12.5 23.0002V25.0002C19.6797 25.0002 25.5 19.1799 25.5 12.0002H23.5ZM12.5 1.00024C18.5751 1.00024 23.5 5.92511 23.5 12.0002H25.5C25.5 4.82054 19.6797 -0.999756 12.5 -0.999756V1.00024ZM1.5 12.0002C1.5 5.92511 6.42487 1.00024 12.5 1.00024V-0.999756C5.3203 -0.999756 -0.5 4.82054 -0.5 12.0002H1.5ZM12.5 23.0002C6.42487 23.0002 1.5 18.0754 1.5 12.0002H-0.5C-0.5 19.1799 5.3203 25.0002 12.5 25.0002V23.0002Z"
    fill="#30D1FF" mask="url(#path-1-inside-1_2182_9921)" />
  <path
    d="M13.9862 7.56546C13.9862 8.42991 13.2058 9.13068 12.2431 9.13068C11.2804 9.13068 10.5 8.42991 10.5 7.56546C10.5 6.70102 11.2804 6.00024 12.2431 6.00024C13.2058 6.00024 13.9862 6.70102 13.9862 7.56546Z"
    fill="#30D1FF" />
  <path d="M10.5 10.1731H12.5414C13.3393 10.1731 13.9862 10.7539 13.9862 11.4704V17.9992H10.5V10.1731Z"
    fill="#30D1FF" />
</svg>