<svg width="28" height="28" viewBox="0 0 28 28" fill="none" xmlns="http://www.w3.org/2000/svg">
<path d="M12.4158 15.499C12.3556 15.1477 12.3677 14.8238 12.4518 14.5274C12.536 14.231 12.6563 13.962 12.8126 13.7205C12.9809 13.468 13.1673 13.2374 13.3718 13.0288C13.5882 12.8202 13.7866 12.6226 13.967 12.436C14.1474 12.2494 14.2977 12.0737 14.4179 11.909C14.5502 11.7334 14.6163 11.5577 14.6163 11.3821C14.6163 11.0856 14.5141 10.877 14.3097 10.7563C14.1173 10.6245 13.8828 10.5587 13.6062 10.5587C13.2936 10.5587 13.029 10.6245 12.8126 10.7563C12.5961 10.888 12.3677 11.0527 12.1272 11.2503L10.4316 9.8341C10.8766 9.373 11.3997 8.99973 12.0009 8.71429C12.6142 8.42885 13.2816 8.28613 14.0031 8.28613C14.4961 8.28613 14.9591 8.34103 15.392 8.45081C15.8249 8.56059 16.2036 8.73076 16.5283 8.96131C16.853 9.19186 17.1055 9.49376 17.2859 9.86703C17.4783 10.2293 17.5745 10.6685 17.5745 11.1844C17.5745 11.5138 17.5084 11.8102 17.3761 12.0737C17.2438 12.3262 17.0815 12.5622 16.8891 12.7818C16.7087 13.0014 16.5043 13.21 16.2758 13.4076C16.0593 13.6052 15.8609 13.8083 15.6806 14.0169C15.5002 14.2255 15.3499 14.4505 15.2296 14.6921C15.1214 14.9336 15.0853 15.2026 15.1214 15.499H12.4158ZM13.7505 19.7147C13.2214 19.7147 12.7885 19.55 12.4518 19.2207C12.1151 18.8913 11.9468 18.4851 11.9468 18.0021C11.9468 17.519 12.1151 17.1128 12.4518 16.7835C12.7885 16.4541 13.2214 16.2894 13.7505 16.2894C14.2796 16.2894 14.7125 16.4541 15.0492 16.7835C15.3859 17.1128 15.5543 17.519 15.5543 18.0021C15.5543 18.4851 15.3859 18.8913 15.0492 19.2207C14.7125 19.55 14.2796 19.7147 13.7505 19.7147Z" fill="#E0EAF8"/>
<path fill-rule="evenodd" clip-rule="evenodd" d="M14 22.8235C18.8731 22.8235 22.8235 18.8731 22.8235 14C22.8235 9.1269 18.8731 5.17647 14 5.17647C9.1269 5.17647 5.17647 9.1269 5.17647 14C5.17647 18.8731 9.1269 22.8235 14 22.8235ZM14 24C19.5228 24 24 19.5228 24 14C24 8.47715 19.5228 4 14 4C8.47715 4 4 8.47715 4 14C4 19.5228 8.47715 24 14 24Z" fill="#E0EAF8"/>
</svg>
