<svg width="25" height="24" viewBox="0 0 25 24" fill="none" xmlns="http://www.w3.org/2000/svg">
<path fill-rule="evenodd" clip-rule="evenodd" d="M12.7496 1.93374C14.0017 0.679541 15.6787 -0.0144506 17.4194 0.00123684C19.1601 0.0169242 20.8253 0.741035 22.0562 2.01761C23.2871 3.29418 23.9853 5.02108 24.0004 6.82636C24.0155 8.63165 23.3464 10.3709 22.137 11.6694L22.1236 11.6837L18.8043 15.1261C18.1312 15.8244 17.3213 16.3644 16.4293 16.7094C15.5374 17.0545 14.5843 17.1966 13.6347 17.126C12.6852 17.0555 11.7614 16.774 10.9259 16.3007C10.0905 15.8273 9.363 15.1731 8.79278 14.3825C8.42675 13.875 8.52671 13.1559 9.01606 12.7763C9.5054 12.3966 10.1988 12.5003 10.5648 13.0078C10.945 13.5349 11.43 13.971 11.9869 14.2866C12.5439 14.6022 13.1598 14.7898 13.7928 14.8368C14.4259 14.8839 15.0612 14.7891 15.6559 14.5591C16.2505 14.329 16.7905 13.9691 17.2392 13.5036L17.2393 13.5034L20.5516 10.0682C21.3538 9.20326 21.7976 8.04669 21.7875 6.84631C21.7774 5.64279 21.312 4.49152 20.4914 3.64047C19.6708 2.78942 18.5607 2.30668 17.4002 2.29622C16.2423 2.28579 15.1266 2.74641 14.2925 3.5791L12.3953 5.53523C11.9619 5.98206 11.2613 5.97994 10.8305 5.5305C10.3996 5.08105 10.4017 4.35447 10.835 3.90764L12.7382 1.94535L12.7496 1.93374Z" fill="#F16929"/>
<path fill-rule="evenodd" clip-rule="evenodd" d="M7.57135 7.29066C8.4633 6.9456 9.41637 6.80351 10.3659 6.87404C11.3155 6.94456 12.2393 7.22606 13.0747 7.69943C13.9102 8.1728 14.6377 8.82697 15.2079 9.61757C15.5739 10.1251 15.4739 10.8442 14.9846 11.2238C14.4953 11.6034 13.8018 11.4998 13.4358 10.9923C13.0557 10.4652 12.5707 10.0291 12.0137 9.71351C11.4568 9.39793 10.8409 9.21026 10.2078 9.16324C9.5748 9.11623 8.93942 9.21095 8.34479 9.441C7.75016 9.67104 7.21019 10.031 6.7615 10.4965L3.44908 13.9318C2.64684 14.7968 2.20308 15.9534 2.21314 17.1538C2.22322 18.3573 2.68869 19.5086 3.5093 20.3596C4.3299 21.2107 5.43998 21.6934 6.60045 21.7039C7.75788 21.7143 8.87307 21.2541 9.7071 20.4221L11.592 18.4672C12.0241 18.0191 12.7247 18.0191 13.1568 18.4672C13.5889 18.9154 13.5889 19.6419 13.1568 20.0901L11.2647 22.0524L11.251 22.0663C9.99892 23.3205 8.32192 24.0145 6.58122 23.9988C4.84052 23.9832 3.1754 23.259 1.94449 21.9825C0.713584 20.7059 0.0153772 18.979 0.000250968 17.1737C-0.0148752 15.3684 0.654289 13.6292 1.86362 12.3306L1.8771 12.3164L5.19641 8.87396C5.19646 8.87391 5.19636 8.87401 5.19641 8.87396C5.86941 8.17578 6.67946 7.63571 7.57135 7.29066Z" fill="#F16929"/>
</svg>
