<svg width="32" height="32" viewBox="0 0 32 32" fill="none" xmlns="http://www.w3.org/2000/svg">
<g clip-path="url(#clip0_3531_43031)">
<path d="M26.8749 18.8424L20.4868 7.25015C20.1178 6.58068 19.1541 6.58068 18.7852 7.25015L15.9658 12.3665L19.5344 18.8424C19.6093 18.9755 19.644 19.1273 19.6343 19.2796C19.6053 19.7116 19.2142 20.0912 18.6841 20.0915H18.6846C18.6842 20.0915 18.684 20.0916 18.6836 20.0916H17.5284V24.5121C17.5284 24.6206 17.5498 24.7279 17.5914 24.8281C17.6329 24.9283 17.6939 25.0194 17.7707 25.096C17.8475 25.1727 17.9387 25.2335 18.0391 25.275C18.1394 25.3165 18.247 25.3379 18.3556 25.3379H20.9165C21.1359 25.3379 21.3463 25.2509 21.5014 25.096C21.6565 24.9412 21.7437 24.7311 21.7437 24.5121V20.0914H26.024C26.7311 20.0915 27.1911 19.4163 26.8749 18.8424Z" fill="white"/>
<path d="M13.1463 7.25016C12.7774 6.58068 11.8137 6.58068 11.4448 7.25016L5.05671 18.8425C4.74051 19.4163 5.20044 20.0915 5.90752 20.0915H10.1879V24.5121C10.1879 24.7311 10.2751 24.9412 10.4302 25.096C10.5853 25.2509 10.7957 25.3379 11.0151 25.3379H13.5759C13.7953 25.3379 14.0057 25.2509 14.1609 25.096C14.316 24.9412 14.4031 24.7311 14.4031 24.5121V20.0916H13.2479C13.2476 20.0916 13.2474 20.0915 13.247 20.0915H13.2474C12.7174 20.0913 12.3263 19.7116 12.2972 19.2797C12.2876 19.1274 12.3223 18.9755 12.3971 18.8425L15.9657 12.3665L13.1463 7.25016Z" fill="white"/>
</g>
<defs>
<clipPath id="clip0_3531_43031">
<rect width="22.6631" height="18.963" fill="white" transform="translate(4.74072 6.51758)"/>
</clipPath>
</defs>
</svg>
