<svg width="13" height="17" viewBox="0 0 13 17" fill="none" xmlns="http://www.w3.org/2000/svg">
<path d="M10.9546 16.8594H2.07006C1.93541 16.8261 1.80348 16.781 1.67559 16.7245C1.45227 16.6134 1.26501 16.432 1.13822 16.2038C1.01144 15.9756 0.951011 15.7114 0.964825 15.4454V7.3546C0.964825 6.96932 1.05367 6.86145 1.41261 6.86145H2.198V5.6016C2.18946 4.89267 2.32957 4.1909 2.60775 3.54926C2.88594 2.90762 3.29492 2.34286 3.80385 1.89761C4.31278 1.45236 4.90834 1.13826 5.5456 0.979001C6.18286 0.819743 6.84516 0.819498 7.48253 0.978278C8.41547 1.21067 9.24968 1.77524 9.85198 2.58185C10.4543 3.38845 10.7899 4.39058 10.8053 5.42822C10.8053 5.84432 10.8053 6.26041 10.8053 6.68037V6.85374H11.6618C11.9177 6.85374 12.0385 6.98089 12.0385 7.23902C12.0385 9.98219 12.0385 12.7279 12.0385 15.4762C12.0479 15.6917 12.0061 15.9062 11.9171 16.0991C11.8281 16.292 11.695 16.457 11.5303 16.5781C11.3474 16.6922 11.1546 16.7864 10.9546 16.8594ZM8.96802 6.84219C8.96802 6.38756 8.96802 5.94449 8.96802 5.50142C8.97678 4.92163 8.79967 4.35652 8.46693 3.90252C8.18819 3.50791 7.81312 3.20576 7.38418 3.0303C6.95524 2.85483 6.48955 2.81304 6.03983 2.90967C5.59012 3.0063 5.17433 3.23748 4.83954 3.57704C4.50475 3.91661 4.26433 4.351 4.14549 4.83104C3.97491 5.48216 4.07797 6.15639 4.06375 6.82292C4.06375 6.82292 4.06375 6.82292 4.08508 6.84989L8.96802 6.84219ZM6.52299 14.1933C6.70779 14.1933 6.87838 14.1933 7.0845 14.1933C7.13794 14.2005 7.1922 14.1933 7.24246 14.1723C7.29271 14.1513 7.33741 14.1172 7.37257 14.073C7.40774 14.0287 7.43228 13.9758 7.44402 13.9188C7.45577 13.8618 7.45434 13.8026 7.43988 13.7463C7.38302 13.1761 7.3226 12.5905 7.2693 12.0396C7.26643 12.0085 7.27006 11.9771 7.2799 11.9478C7.28974 11.9184 7.30555 11.8919 7.32616 11.87C7.53015 11.675 7.66893 11.4122 7.72088 11.1228C7.77283 10.8333 7.73504 10.5333 7.61339 10.2696C7.49174 10.0058 7.29306 9.79303 7.04828 9.66441C6.8035 9.53578 6.52636 9.4985 6.26001 9.55838C6.03882 9.61433 5.83611 9.73523 5.67412 9.90783C5.51212 10.0804 5.3971 10.2981 5.34167 10.5369C5.28623 10.7757 5.29253 11.0264 5.35986 11.2616C5.4272 11.4967 5.55297 11.7072 5.72339 11.87C5.74378 11.892 5.75946 11.9186 5.76929 11.9479C5.77911 11.9772 5.78286 12.0085 5.78025 12.0396C5.72694 12.6098 5.66652 13.1761 5.60966 13.7463C5.5952 13.8026 5.59378 13.8618 5.60552 13.9188C5.61726 13.9758 5.6418 14.0287 5.67697 14.073C5.71213 14.1172 5.75683 14.1513 5.80709 14.1723C5.85734 14.1933 5.9116 14.2005 5.96504 14.1933C6.14629 14.201 6.33464 14.1933 6.52299 14.1933Z" fill="#F26929"/>
</svg>
