<svg width="24" height="28" viewBox="0 0 24 28" fill="none" xmlns="http://www.w3.org/2000/svg">
<g clip-path="url(#clip0_2042_29628)">
<path d="M21.4356 5.18307C20.1571 3.32768 18.3678 1.88283 16.284 1.02313C14.2001 0.163425 11.911 -0.0743314 9.69313 0.338603C7.47528 0.751538 5.42368 1.79748 3.78627 3.35002C2.14886 4.90257 0.995739 6.89526 0.466265 9.08727C-0.0632088 11.2793 0.0536308 13.5768 0.802659 15.7021C1.55169 17.8274 2.90085 19.6896 4.68708 21.0635C6.47331 22.4375 8.62016 23.2644 10.8682 23.4444C13.1162 23.6244 15.3691 23.1497 17.3547 22.0777L21.3414 27.8623L23.4276 26.4245L19.4409 20.6399C21.62 18.7592 23.0287 16.1415 23.3968 13.2889C23.7649 10.4364 23.0665 7.54986 21.4356 5.18307ZM16.2432 18.2306C14.9718 19.1074 13.4694 19.588 11.9259 19.6116C10.3824 19.6353 8.86716 19.2009 7.57183 18.3635C6.2765 17.5261 5.25927 16.3232 4.64878 14.9069C4.03829 13.4907 3.86196 11.9247 4.1421 10.4071C4.42225 8.8895 5.14628 7.48839 6.22262 6.38098C7.29896 5.27358 8.67926 4.50962 10.189 4.18574C11.6987 3.86186 13.27 3.99259 14.7041 4.56141C16.1382 5.13023 17.3708 6.11158 18.2459 7.38135C19.4191 9.08362 19.8672 11.1828 19.4917 13.2174C19.1161 15.2519 17.9476 17.0552 16.2432 18.2306Z" fill="#2FCDFA"/>
</g>
<defs>
<clipPath id="clip0_2042_29628">
<rect width="23.5789" height="28" fill="white"/>
</clipPath>
</defs>
</svg>
