<svg width="28" height="28" viewBox="0 0 28 28" fill="none" xmlns="http://www.w3.org/2000/svg">
<path d="M14.2749 4.1377H12.9844L27.1448 16.3228C27.2762 16.0564 27.3877 15.7805 27.4784 15.4976L14.2749 4.1377Z" fill="#30D1FF"/>
<path d="M11.6675 4.1377H10.377L26.179 17.7274C26.3714 17.525 26.5475 17.3078 26.7057 17.0778L11.6675 4.1377Z" fill="#30D1FF"/>
<path d="M26.9433 4.13847H26.0215L27.7773 5.62206V4.93738C27.7774 4.82945 27.7556 4.72257 27.7133 4.62328C27.671 4.52399 27.6089 4.43432 27.531 4.35966C27.4531 4.285 27.3608 4.22685 27.2598 4.18884C27.1588 4.15082 27.0511 4.13373 26.9433 4.13847Z" fill="#30D1FF"/>
<path d="M16.8755 4.1377H15.5938L27.6911 14.5407C27.722 14.2843 27.7396 14.0264 27.7438 13.7681V13.4785L16.8755 4.1377Z" fill="#30D1FF"/>
<path d="M22.0864 4.1377H20.8047L27.74 10.1074V9.00121L22.0864 4.1377Z" fill="#30D1FF"/>
<path d="M19.4878 4.1377H18.1973L27.7399 12.346V11.2398L19.4878 4.1377Z" fill="#30D1FF"/>
<path d="M24.5371 21.2129H8.26975C8.07775 21.2127 7.89223 21.1435 7.74713 21.0177C7.60204 20.892 7.50708 20.7182 7.47965 20.5282L7.3304 19.6503H21.9034C23.2283 19.6502 24.5135 19.198 25.5466 18.3685L9.34078 4.3662L9.5427 4.13794H4.95132L4.77573 2.97038C4.68939 2.40199 4.40163 1.88351 3.9649 1.50962C3.52816 1.13574 2.97156 0.931305 2.39665 0.933613H0.798884C0.587008 0.933613 0.383813 1.01784 0.233994 1.16766C0.0841743 1.31748 0 1.52065 0 1.73252C0 1.9444 0.0841743 2.14757 0.233994 2.29739C0.383813 2.44721 0.587008 2.53144 0.798884 2.53144H2.39665C2.58916 2.52972 2.77568 2.59835 2.92117 2.72444C3.06665 2.85053 3.16109 3.02531 3.18675 3.21611L5.89943 20.7739C5.98382 21.3416 6.26986 21.8599 6.70515 22.2339C7.14043 22.608 7.69585 22.8127 8.26975 22.8107H8.59456C8.37926 23.2224 8.26776 23.6805 8.26975 24.1451C8.27129 24.5876 8.37298 25.024 8.56718 25.4217C8.76138 25.8193 9.04305 26.1677 9.39109 26.441C9.73914 26.7143 10.1445 26.9052 10.5769 26.9995C11.0092 27.0939 11.4573 27.0891 11.8875 26.9856C12.3178 26.8821 12.719 26.6827 13.0612 26.4021C13.4034 26.1215 13.6776 25.767 13.8633 25.3654C14.049 24.9637 14.1414 24.5253 14.1336 24.0829C14.1257 23.6404 14.0179 23.2055 13.818 22.8107H18.7254C18.5256 23.2055 18.4177 23.6404 18.4099 24.0829C18.402 24.5253 18.4944 24.9637 18.6802 25.3654C18.8659 25.767 19.1401 26.1215 19.4823 26.4021C19.8244 26.6827 20.2257 26.8821 20.6559 26.9856C21.0862 27.0891 21.5343 27.0939 21.9666 26.9995C22.3989 26.9052 22.8043 26.7143 23.1523 26.441C23.5004 26.1677 23.7821 25.8193 23.9763 25.4217C24.1705 25.024 24.2722 24.5876 24.2737 24.1451C24.2757 23.6805 24.1642 23.2224 23.9489 22.8107H24.5371C24.749 22.8107 24.9521 22.7265 25.102 22.5767C25.2518 22.4268 25.336 22.2237 25.336 22.0118C25.336 21.7999 25.2518 21.5967 25.102 21.4469C24.9521 21.2971 24.749 21.2129 24.5371 21.2129Z" fill="#30D1FF"/>
<path d="M24.6948 4.1377H23.4043L27.7411 7.85995V6.75381L24.6948 4.1377Z" fill="#30D1FF"/>
</svg>
