<svg width="38" height="28" viewBox="0 0 38 28" fill="none" xmlns="http://www.w3.org/2000/svg">
<path d="M29.1621 14.3296C27.7461 15.7114 23.0685 15.7058 21.6514 14.2446C19.9659 15.7301 15.4208 15.6904 13.7828 14.2324C13.0613 14.8437 12.1637 15.209 11.2204 15.2751C10.5752 15.3201 9.92826 15.3319 9.28194 15.3104C8.17742 15.2972 7.26067 15.0001 6.5074 14.4765C6.41572 14.4136 6.32736 14.3473 6.29975 14.3274C5.73424 14.5903 5.24052 14.8929 4.65733 15.0685C4.07415 15.2442 3.40592 15.2894 2.73438 15.3999V23.7191C2.73438 24.5143 2.73438 25.31 2.73438 26.1059C2.73438 26.7333 2.99946 26.9034 3.97143 26.9034H31.4992C32.4337 26.9034 32.7087 26.7245 32.7087 26.1137V15.3999C32.0128 15.2894 31.3402 15.2342 30.7592 15.0575C30.1782 14.8808 29.69 14.5792 29.1621 14.3296Z" fill="#2FCDFA"/>
<path d="M16.6929 14.0478C17.1866 14.1428 17.7057 14.1284 18.2127 14.1218C18.5855 14.1196 18.9536 14.0385 19.2927 13.8838C19.6319 13.7292 19.9345 13.5044 20.1805 13.2243C20.4266 12.9443 20.6105 12.6153 20.7202 12.259C20.83 11.9027 20.863 11.5272 20.8171 11.1573C20.6367 9.51596 20.457 7.87466 20.2781 6.23335C20.0572 4.264 19.8363 2.29576 19.6253 0.325305C19.5988 0.0767893 19.5016 -0.00605085 19.262 0.00609881C18.7528 0.0204575 18.2425 0.00609881 17.7333 0.00609881C17.2241 0.00609881 16.7138 0.0182431 16.2047 0.000570844C15.9407 -0.00826527 15.8512 0.0845145 15.8236 0.346284C15.4319 3.95436 15.0339 7.56503 14.6296 11.1783C14.4805 12.5291 15.3663 13.7993 16.6929 14.0478Z" fill="#2FCDFA"/>
<path d="M22.7048 12.1429C22.8418 13.3335 23.7519 14.1166 24.9547 14.131C25.2441 14.131 25.5335 14.131 25.8218 14.131C27.5404 14.131 28.5411 12.8254 28.0882 11.1764C27.7245 9.85099 27.3563 8.52557 26.9837 7.20015C26.3512 4.92264 25.7161 2.64588 25.0784 0.36984C25.0409 0.237298 24.9128 0.0296525 24.8233 0.0274435C23.6834 0.00424869 22.5436 0.0119787 21.3496 0.0119787C21.4678 1.05464 21.5782 2.0233 21.681 2.99417C22.0278 6.04152 22.3558 9.09108 22.7048 12.1429Z" fill="#2FCDFA"/>
<path d="M9.5713 14.1304C9.88719 14.1304 10.2042 14.1304 10.5212 14.1304C11.7185 14.116 12.6198 13.3241 12.76 12.129C13.1577 8.64426 13.5398 5.1573 13.9275 1.67145C13.9871 1.13134 14.038 0.591239 14.0976 0.03125H10.4803C10.4406 0.164896 10.3986 0.294132 10.3621 0.425569C10.0219 1.64274 9.68212 2.86028 9.34267 4.07819C8.67996 6.46173 8.01062 8.84306 7.35454 11.2277C6.92489 12.795 7.94104 14.1171 9.5713 14.1304Z" fill="#2FCDFA"/>
<path d="M5.24266 12.2149C6.08798 9.16861 6.93477 6.12271 7.78304 3.0772C8.06138 2.0743 8.3353 1.07031 8.62799 0.00886987C7.85483 0.00886987 7.12475 0.00886987 6.39908 0.00886987C5.50222 0.00224279 4.88479 0.403174 4.52804 1.23046C4.12489 2.16487 3.70407 3.09156 3.29098 4.02046C2.2693 6.32006 1.2399 8.61525 0.227057 10.9182C-0.416875 12.3839 0.359598 13.8363 1.91475 14.0936C2.18806 14.127 2.46365 14.1377 2.73872 14.1257C4.13814 14.129 4.86822 13.5646 5.24266 12.2149Z" fill="#2FCDFA"/>
<path d="M35.2785 11.0563C33.8261 7.71511 32.3339 4.39162 30.8483 1.06482C30.5755 0.454024 30.0818 0.0707665 29.4124 0.0387356C28.5774 -0.00213143 27.738 0.0287853 26.872 0.0287853C26.8682 0.0706677 26.8682 0.112819 26.872 0.154701C28.0207 4.30105 29.1617 8.44961 30.327 12.5904C30.5876 13.5171 31.4392 14.1058 32.4079 14.1246C32.7105 14.1312 33.0142 14.1367 33.3169 14.1246C34.9074 14.034 35.9114 12.5109 35.2785 11.0563Z" fill="#2FCDFA"/>
</svg>
