<svg width="25" height="16" viewBox="0 0 25 16" fill="none" xmlns="http://www.w3.org/2000/svg">
<path d="M1.54427 16H22.8776C23.6109 16 24.2109 15.4 24.2109 14.6667C24.2109 13.9333 23.6109 13.3333 22.8776 13.3333H1.54427C0.810938 13.3333 0.210938 13.9333 0.210938 14.6667C0.210938 15.4 0.810938 16 1.54427 16ZM1.54427 9.33333H22.8776C23.6109 9.33333 24.2109 8.73333 24.2109 8C24.2109 7.26667 23.6109 6.66667 22.8776 6.66667H1.54427C0.810938 6.66667 0.210938 7.26667 0.210938 8C0.210938 8.73333 0.810938 9.33333 1.54427 9.33333ZM0.210938 1.33333C0.210938 2.06667 0.810938 2.66667 1.54427 2.66667H22.8776C23.6109 2.66667 24.2109 2.06667 24.2109 1.33333C24.2109 0.6 23.6109 0 22.8776 0H1.54427C0.810938 0 0.210938 0.6 0.210938 1.33333Z" fill="white"/>
</svg>
