<svg width="22" height="20" viewBox="0 0 22 20" fill="none" xmlns="http://www.w3.org/2000/svg">
<path d="M11 20C16.799 20 21.5 15.5229 21.5 10C21.5 4.47714 16.799 0 11 0C5.20102 0 0.5 4.47714 0.5 10C0.5 15.5229 5.20102 20 11 20Z" fill="url(#paint0_radial_4993_67190)" fill-opacity="0.4"/>
<path d="M11 20C16.799 20 21.5 15.5229 21.5 10C21.5 4.47714 16.799 0 11 0C5.20102 0 0.5 4.47714 0.5 10C0.5 15.5229 5.20102 20 11 20Z" fill="url(#paint1_linear_4993_67190)" fill-opacity="0.5"/>
<path d="M16.0077 13.5566L16.0017 13.5538C15.9837 13.5792 15.9627 13.6046 15.9447 13.63C15.9657 13.6046 15.9897 13.582 16.0077 13.5566Z" fill="#041836"/>
<path d="M17.6397 8.96968C17.5857 6.94139 15.8248 5.31363 13.6588 5.31363C12.5938 5.31363 11.6308 5.70858 10.9138 6.34895C10.2028 5.70858 9.24286 5.31363 8.18684 5.31363C6.0209 5.31363 4.25992 6.96112 4.20591 9.01484V9.04304C4.20591 10.6059 4.80888 11.9938 5.36089 12.9473C5.6399 13.4325 5.92189 13.8275 6.13489 14.1039C6.23989 14.2422 6.33289 14.3522 6.39887 14.4312C6.43186 14.4707 6.45889 14.5017 6.47987 14.5243C6.48889 14.5355 6.49788 14.544 6.50388 14.5525C6.50686 14.5553 6.50988 14.5581 6.51286 14.5609L6.51588 14.5637L6.51886 14.5666C6.98086 15.0715 7.78486 15.1223 8.31585 14.6823C8.84386 14.2422 8.89783 13.4777 8.43886 12.9727C8.43886 12.9727 8.43886 12.9727 8.43886 12.9699C8.43886 12.9671 8.43584 12.9642 8.42984 12.9614C8.42085 12.9501 8.40587 12.9332 8.38186 12.9078C8.33985 12.857 8.27384 12.7781 8.19284 12.6708C8.03084 12.4593 7.81184 12.1518 7.59587 11.7738C7.15188 11.0064 6.76186 10.0389 6.75586 9.05714C6.78289 8.32369 7.41586 7.73691 8.18986 7.73691C8.96985 7.73691 9.60585 8.32931 9.62385 9.07124C9.62985 9.26026 9.68085 9.43799 9.76483 9.59595C9.94483 10.0502 10.4098 10.3746 10.9558 10.3746C11.6578 10.3746 12.2278 9.83856 12.2278 9.17561V9.01484C12.2548 8.28982 12.8878 7.71152 13.6618 7.71152C14.4358 7.71152 15.0688 8.29263 15.0958 9.01484C15.0928 9.80469 14.8228 10.5805 14.5198 11.1955C14.3698 11.4973 14.2228 11.7428 14.1148 11.912C14.0608 11.9966 14.0158 12.0587 13.9888 12.0982C13.9738 12.1179 13.9648 12.132 13.9588 12.1377C13.9558 12.1405 13.9558 12.1433 13.9528 12.1433C13.9498 12.149 13.9408 12.1603 13.9408 12.1603C14.1748 11.8838 14.5318 11.7089 14.9368 11.7089C15.6388 11.7089 16.2087 12.2449 16.2087 12.905C16.2087 13.1448 16.1337 13.3648 16.0048 13.5538C16.0108 13.5567 16.0108 13.5567 16.0108 13.5567V13.5538L16.0138 13.551C16.0167 13.5482 16.0167 13.5454 16.0198 13.5426C16.0258 13.5369 16.0318 13.5284 16.0378 13.5172C16.0527 13.4974 16.0708 13.472 16.0948 13.4382C16.1428 13.3733 16.2058 13.2802 16.2808 13.1645C16.4308 12.9332 16.6288 12.606 16.8267 12.2026C17.2168 11.4127 17.6367 10.273 17.6367 8.99788V8.98378L17.6397 8.96968Z" fill="#041836"/>
<path d="M14.9338 11.7089C14.5318 11.7089 14.1718 11.8866 13.9378 12.1603C13.7638 12.3634 13.6618 12.6229 13.6618 12.905C13.6618 13.5651 14.2318 14.1011 14.9338 14.1011C15.3478 14.1011 15.7108 13.9149 15.9448 13.63C15.9658 13.6046 15.9838 13.5793 16.0018 13.5539C16.1308 13.3677 16.2058 13.1448 16.2058 12.905C16.2058 12.2449 15.6388 11.7089 14.9338 11.7089Z" fill="#B7E803"/>
<defs>
<radialGradient id="paint0_radial_4993_67190" cx="0" cy="0" r="1" gradientUnits="userSpaceOnUse" gradientTransform="translate(7.28879 -0.967741) rotate(85.6238) scale(21.3526 23.9476)">
<stop offset="0.00520833" stop-color="#ECF5FC"/>
<stop offset="1" stop-color="#CEE4F3"/>
</radialGradient>
<linearGradient id="paint1_linear_4993_67190" x1="11" y1="0" x2="11" y2="20" gradientUnits="userSpaceOnUse">
<stop stop-color="white"/>
<stop offset="1" stop-color="white" stop-opacity="0"/>
</linearGradient>
</defs>
</svg>
