<svg width="16" height="18" viewBox="0 0 16 18" fill="none" xmlns="http://www.w3.org/2000/svg">
<path d="M14.4254 3.33038C13.6134 2.15192 12.4769 1.23422 11.1534 0.688175C9.82981 0.142132 8.37583 -0.00887942 6.96715 0.253398C5.55848 0.515674 4.25539 1.18001 3.21539 2.16611C2.17538 3.15222 1.44297 4.41788 1.10667 5.81015C0.770377 7.20241 0.844588 8.66167 1.32034 10.0116C1.79609 11.3615 2.65301 12.5442 3.78754 13.4169C4.92207 14.2896 6.28566 14.8148 7.71348 14.9291C9.14131 15.0434 10.5723 14.742 11.8334 14.0611L14.3656 17.7352L15.6907 16.822L13.1585 13.1479C14.5425 11.9533 15.4373 10.2906 15.6711 8.47884C15.9049 6.66704 15.4613 4.83366 14.4254 3.33038ZM11.1275 11.6176C10.32 12.1744 9.36567 12.4797 8.38531 12.4947C7.40494 12.5098 6.44253 12.2339 5.6198 11.702C4.79707 11.1701 4.15097 10.406 3.76321 9.50652C3.37546 8.60699 3.26346 7.61237 3.4414 6.64845C3.61933 5.68453 4.0792 4.79461 4.76285 4.09124C5.44649 3.38787 6.32319 2.90264 7.28209 2.69692C8.24098 2.49121 9.23899 2.57424 10.1499 2.93553C11.0608 3.29681 11.8437 3.92013 12.3995 4.72663C13.1447 5.80783 13.4293 7.14116 13.1907 8.4334C12.9522 9.72564 12.21 10.871 11.1275 11.6176Z" fill="#F26929"/>
</svg>