<svg width="29" height="20" viewBox="0 0 29 20" fill="none" xmlns="http://www.w3.org/2000/svg">
<path d="M20.3145 15.3079C20.4455 15.4555 20.5753 15.6042 20.7052 15.7518L28.1121 11.5024C28.092 11.2946 28.0672 11.0857 28.0389 10.8779L20.3145 15.3079Z" fill="#30D1FF"/>
<path d="M28.181 12.4316L21.2852 16.3836C21.4233 16.5288 21.5637 16.6704 21.7089 16.8073L28.201 13.0856C28.1999 12.8684 28.1916 12.65 28.181 12.4316Z" fill="#30D1FF"/>
<path d="M28.0367 15.7734L23.4863 18.3833C23.6504 18.5131 23.8168 18.6406 23.9868 18.7634L27.9281 16.5017C27.9706 16.2657 28.006 16.0166 28.0367 15.7734Z" fill="#30D1FF"/>
<path d="M19.716 14.6881L27.9032 9.99486C27.7985 9.40467 27.6655 8.81447 27.5042 8.22428C26.9837 6.31677 26.2058 4.52258 24.9687 2.96211C23.5523 1.16202 21.7097 0.356995 19.4056 0.79728C18.3151 1.01555 17.2827 1.46075 16.3755 2.10397C15.9026 2.43875 15.3366 2.61669 14.7572 2.61272C14.3464 2.61272 13.9309 2.61272 13.5261 2.61272C12.9099 2.61272 12.3775 2.40025 11.8464 2.09571C11.1464 1.69437 10.4299 1.28714 9.67446 1.02509C7.93103 0.421916 6.23481 0.552939 4.68024 1.63063C3.73593 2.28811 3.04068 3.17458 2.46465 4.15784C0.796762 7.00258 0.0838075 10.0964 0 13.3755C0.094431 14.3552 0.153453 15.3397 0.29746 16.3111C0.377713 16.8999 0.540225 17.4744 0.780238 18.018C1.35509 19.2621 2.76683 19.6705 3.9543 18.9894C4.28163 18.7967 4.59377 18.5793 4.88799 18.339C6.12503 17.344 7.19328 16.1789 8.2273 14.982C8.59441 14.5582 9.05358 14.2938 9.6178 14.2915C12.6081 14.2812 15.5961 14.2789 18.5817 14.2844C18.995 14.284 19.3958 14.4266 19.716 14.6881V14.6881ZM10.8053 8.81211C10.7704 8.85045 10.7277 8.88084 10.68 8.90121C10.6324 8.92157 10.5809 8.93144 10.5291 8.93015C9.97664 8.94195 9.42304 8.93605 8.81632 8.93605C8.81632 9.50381 8.80688 10.0255 8.82222 10.5461C8.83406 10.6317 8.81419 10.7187 8.76636 10.7906C8.71853 10.8626 8.64604 10.9146 8.56253 10.9368C8.07385 11.1351 7.59226 11.1729 7.10594 10.9262C7.02963 10.8964 6.96521 10.8424 6.92257 10.7724C6.87992 10.7025 6.8614 10.6205 6.86986 10.539C6.88166 10.0869 6.86986 9.63484 6.87694 9.18393C6.87694 8.99861 6.8191 8.93015 6.62906 8.93369C6.17815 8.94432 5.72606 8.93369 5.27515 8.94077C5.19383 8.95121 5.11149 8.93169 5.0435 8.88585C4.97551 8.84002 4.92653 8.77102 4.90569 8.69171C4.72273 8.22894 4.71685 7.71494 4.88917 7.2481C4.90961 7.16419 4.96 7.09065 5.03087 7.0413C5.10173 6.99196 5.18819 6.97021 5.27398 6.98015C5.81459 6.99432 6.35757 6.98015 6.94422 6.98015C6.94422 6.43835 6.96547 5.92724 6.93596 5.41968C6.91825 5.10569 7.03865 4.98175 7.32785 4.92037C7.76247 4.83514 8.21144 4.85907 8.63454 4.99001C8.67441 4.99643 8.71261 5.01074 8.74688 5.03211C8.78115 5.05348 8.81081 5.08147 8.83412 5.11446C8.85743 5.14744 8.87391 5.18474 8.88261 5.22418C8.89131 5.26362 8.89205 5.3044 8.88478 5.34413C8.87416 5.8753 8.88478 6.40648 8.88478 6.98251C9.40297 6.98251 9.89283 6.99903 10.3803 6.97543C10.653 6.96244 10.7828 7.0734 10.895 7.30358C11.1464 7.83475 11.0626 8.33051 10.8053 8.81211ZM23.4012 6.07007C23.8045 6.07443 24.1898 6.23829 24.4727 6.52583C24.7556 6.81337 24.9131 7.20121 24.9109 7.60457C24.9086 7.80464 24.8669 8.00229 24.7881 8.18623C24.7094 8.37017 24.5952 8.53678 24.452 8.67655C24.3088 8.81632 24.1395 8.9265 23.9538 9.0008C23.768 9.0751 23.5694 9.11206 23.3693 9.10957C23.1692 9.10588 22.9719 9.0628 22.7884 8.98278C22.605 8.90275 22.4392 8.78737 22.3004 8.64321C22.1616 8.49905 22.0526 8.32895 21.9796 8.14263C21.9066 7.95631 21.871 7.75743 21.8749 7.55736C21.8854 7.16007 22.0503 6.7825 22.3346 6.50481C22.6189 6.22711 23.0002 6.07116 23.3976 6.07007H23.4012ZM19.5885 3.82733C19.7887 3.82702 19.9869 3.86613 20.1719 3.94243C20.3569 4.01872 20.5251 4.13071 20.6668 4.272C20.8085 4.41328 20.921 4.5811 20.9979 4.76587C21.0747 4.95063 21.1145 5.14874 21.1148 5.34886C21.1143 5.54919 21.0742 5.74745 20.9966 5.93216C20.9191 6.11688 20.8056 6.28438 20.663 6.42499C20.5203 6.56561 20.3511 6.67653 20.1653 6.75136C19.9794 6.82619 19.7806 6.86343 19.5803 6.86093C19.38 6.86112 19.1816 6.82136 18.9969 6.74397C18.8122 6.66659 18.6447 6.55312 18.5043 6.41023C18.364 6.26734 18.2535 6.09789 18.1794 5.91179C18.1054 5.7257 18.0692 5.52669 18.0729 5.32643C18.0757 4.92692 18.2361 4.54466 18.5193 4.26283C18.8025 3.98099 19.1855 3.82236 19.585 3.82143L19.5885 3.82733ZM18.0765 9.53097C18.0783 9.13208 18.2376 8.75006 18.5197 8.468C18.8017 8.18594 19.1837 8.02666 19.5826 8.02479C19.9808 8.02456 20.3634 8.17909 20.6497 8.45572C20.9361 8.73236 21.1037 9.10945 21.1171 9.50736C21.1201 9.71016 21.0828 9.91153 21.0075 10.0998C20.9322 10.2881 20.8202 10.4596 20.6782 10.6044C20.5362 10.7492 20.3668 10.8644 20.18 10.9433C19.9932 11.0223 19.7925 11.0634 19.5897 11.0643C19.3889 11.0635 19.1901 11.023 19.005 10.9451C18.8198 10.8672 18.6519 10.7535 18.5109 10.6104C18.37 10.4673 18.2587 10.2978 18.1835 10.1115C18.1083 9.92522 18.0707 9.72592 18.0729 9.52507L18.0765 9.53097Z" fill="#30D1FF"/>
<path d="M28.1489 14.7479C28.1666 14.5178 28.1795 14.2888 28.1878 14.0586L22.3496 17.405C22.5007 17.5419 22.6526 17.6773 22.8052 17.811L28.1489 14.7479Z" fill="#30D1FF"/>
<path d="M24.8496 19.2343C25.8966 19.5636 26.9885 19.0631 27.5161 17.9642C27.5692 17.8532 27.6164 17.7387 27.6601 17.623L24.8496 19.2343Z" fill="#30D1FF"/>
</svg>
