<svg id="Calque_1" data-name="Calque 1" xmlns="http://www.w3.org/2000/svg" viewBox="0 0 21.84 21.84"><defs><style>.cls-1{fill:#f26929;}.cls-2{fill:#fff;stroke:#f26929;stroke-miterlimit:10;stroke-width:0.75px;}</style></defs><circle class="cls-1" cx="10.92" cy="10.92" r="10.92"/><path class="cls-2" d="M17.28,11.59a6.35,6.35,0,0,1-1.38,3.93,6.17,6.17,0,0,1-3.31,2.19A6.35,6.35,0,0,1,5.52,8.23a6.47,6.47,0,0,1,.9-1.13,1.64,1.64,0,0,1,.5-.41,1.26,1.26,0,0,1,1.75.92,1.18,1.18,0,0,1-.38,1.14,3.81,3.81,0,0,0-1.14,1.9,3.54,3.54,0,0,0,.12,2.25,3.75,3.75,0,0,0,3.21,2.51,3.66,3.66,0,0,0,3-.9,3.83,3.83,0,0,0,.44-5.4A.34.34,0,0,0,13.79,9a1.21,1.21,0,0,1-.5-1.24,1.18,1.18,0,0,1,.91-1,1.17,1.17,0,0,1,1.13.25,5.32,5.32,0,0,1,1.41,2A6.35,6.35,0,0,1,17.28,11.59Z"/><path class="cls-2" d="M12.17,7.7v2.61a1.26,1.26,0,0,1-.87,1.23,1.25,1.25,0,0,1-1.58-.85,1.58,1.58,0,0,1-.05-.43c0-1.68,0-3.36,0-5a1.25,1.25,0,0,1,1.05-1.3,1.22,1.22,0,0,1,1.4.89,1.4,1.4,0,0,1,.06.41Z"/></svg>