<svg width="24" height="24" viewBox="0 0 24 24" fill="none" xmlns="http://www.w3.org/2000/svg">
<path d="M10.4915 2C10.0125 2 9.60305 2.33859 9.51105 2.80859L9.17707 4.52344C8.35631 4.8338 7.59739 5.2674 6.93097 5.81445L5.28644 5.24805C4.83344 5.09205 4.33504 5.27936 4.09504 5.69336L2.58722 8.30664C2.34822 8.72164 2.43521 9.2485 2.79621 9.5625L4.11457 10.709C4.046 11.1303 4.00129 11.5593 4.00129 12C4.00129 12.4407 4.046 12.8697 4.11457 13.291L2.79621 14.4375C2.43521 14.7515 2.34822 15.2784 2.58722 15.6934L4.09504 18.3066C4.33404 18.7216 4.83344 18.9089 5.28644 18.7539L6.93097 18.1875C7.59717 18.7342 8.35668 19.1663 9.17707 19.4766L9.51105 21.1914C9.60305 21.6614 10.0125 22 10.4915 22H13.5111C13.9901 22 14.3995 21.6614 14.4915 21.1914L14.8255 19.4766C15.6463 19.1662 16.4052 18.7326 17.0716 18.1855L18.7161 18.752C19.1691 18.908 19.6675 18.7216 19.9075 18.3066L21.4153 15.6914C21.6543 15.2764 21.5674 14.7515 21.2064 14.4375L19.888 13.291C19.9566 12.8697 20.0013 12.4407 20.0013 12C20.0013 11.5593 19.9566 11.1303 19.888 10.709L21.2064 9.5625C21.5674 9.2485 21.6543 8.72164 21.4153 8.30664L19.9075 5.69336C19.6685 5.27836 19.1691 5.09109 18.7161 5.24609L17.0716 5.8125C16.4054 5.26579 15.6459 4.83366 14.8255 4.52344L14.4915 2.80859C14.3995 2.33859 13.9901 2 13.5111 2H10.4915ZM12.0013 8C14.2103 8 16.0013 9.791 16.0013 12C16.0013 14.209 14.2103 16 12.0013 16C9.79229 16 8.00129 14.209 8.00129 12C8.00129 9.791 9.79229 8 12.0013 8Z" fill="white"/>
</svg>