<svg width="26" height="27" viewBox="0 0 26 27" fill="none" xmlns="http://www.w3.org/2000/svg">
<circle cx="13" cy="13.5" r="13" fill="#787CA9"/>
<path d="M18.2673 19.4969C16.0473 21.5499 12.2859 22.2718 9.06507 20.454C5.82044 18.623 4.26223 14.7554 5.33815 11.1923C6.43408 7.56112 9.70937 5.61196 12.4992 5.51562V8.82594C10.3161 9.2244 8.87929 10.4429 8.42765 12.6417C8.04358 14.5083 8.88992 16.3699 10.44 17.3888C11.2636 17.9269 12.2353 18.1928 13.2181 18.1491C14.2008 18.1055 15.1451 17.7544 15.9178 17.1455L18.2673 19.4969Z" fill="#0A0E22"/>
<path d="M21.0023 12.9782H17.6501C17.5181 11.8942 17.0796 10.9584 16.3089 10.1877C15.5383 9.41708 14.6125 8.98046 13.5234 8.84785V5.5C15.2705 5.61885 16.8225 6.22624 18.1555 7.35845C19.8832 8.82533 20.8184 10.7051 21.0023 12.9782Z" fill="#0A0E22"/>
<path d="M17.6466 13.9941H20.9951C20.8904 15.7592 20.1961 17.438 19.0234 18.7613L16.6602 16.3993C17.2109 15.7077 17.5531 14.8733 17.6466 13.9941Z" fill="#0A0E22"/>
</svg>
