<svg width="28" height="28" viewBox="0 0 28 28" fill="none" xmlns="http://www.w3.org/2000/svg">
<path d="M14.0206 7.22643e-06C6.23855 0.00779511 0.00388792 6.26613 0 14.0735C0 21.6565 6.29842 27.9577 13.848 27.9998C21.6293 28.0426 28 21.817 28 13.9684C27.9969 6.28015 21.7 -0.00778066 14.0206 7.22643e-06ZM22.0748 14.9878C22.0529 15.0674 22.0143 15.1413 21.9615 15.2047C21.9087 15.2681 21.8429 15.3194 21.7687 15.3552C21.6944 15.391 21.6134 15.4104 21.531 15.4122C21.4486 15.414 21.3667 15.3981 21.291 15.3655C20.9901 15.2495 20.6977 15.1069 20.3898 15.0189C19.4015 14.7378 18.4132 14.8281 17.4583 15.1498C16.2919 15.5392 15.1543 16.0018 13.9996 16.4192C13.1901 16.7105 12.3667 16.9433 11.4942 16.9558C10.8715 16.9709 10.253 16.8489 9.68247 16.5983C9.63426 16.5773 9.58293 16.5633 9.5114 16.5384V16.772C9.5114 18.9323 9.49896 21.0927 9.51917 23.2523C9.52462 23.8621 9.34266 24.2959 8.74159 24.4983H8.37613C8.24155 24.4446 8.11153 24.38 7.98733 24.3052C7.6763 24.0833 7.5931 23.7601 7.59388 23.3909C7.59699 17.9716 7.59699 12.5525 7.59388 7.13371C7.59388 7.0605 7.59388 6.9873 7.60088 6.91487C7.61626 6.67167 7.72481 6.44381 7.90388 6.27883C8.08295 6.11384 8.31871 6.02449 8.56197 6.02939C8.80201 6.03136 9.03247 6.12396 9.20732 6.28868C9.38218 6.45341 9.48854 6.67813 9.50518 6.91798C9.50518 6.9538 9.50518 6.99041 9.50518 7.02701C9.51218 7.43743 9.51218 7.43665 9.9033 7.58073C10.852 7.92963 11.8138 7.90471 12.7804 7.67575C13.7251 7.45146 14.6178 7.07608 15.5167 6.72017C16.4156 6.36427 17.2927 6.01926 18.2382 5.84326C19.5275 5.60495 20.7187 5.81911 21.8011 6.58077C21.8916 6.63776 21.9659 6.71715 22.0168 6.81128C22.0678 6.9054 22.0936 7.01109 22.0919 7.11813C22.0919 7.38604 22.0919 7.65472 22.0919 7.9234C22.0919 10.1684 22.0919 12.4139 22.0919 14.6599C22.0992 14.7695 22.0934 14.8796 22.0748 14.9878Z" fill="#30D1FF"/>
</svg>
