<svg width="16" height="15" viewBox="0 0 16 15" fill="none" xmlns="http://www.w3.org/2000/svg">
<path d="M0.626953 5.34693C0.760261 5.00997 1.07662 5.01767 1.36513 4.97724C2.44221 4.82319 3.51729 4.67172 4.59038 4.52281C4.91868 4.4766 5.24499 4.42654 5.57329 4.38995C5.62128 4.38655 5.66726 4.36986 5.70572 4.34186C5.74417 4.31386 5.77349 4.27574 5.79017 4.23206C6.45339 2.92784 7.11662 1.62554 7.77984 0.325171C7.80889 0.238525 7.86324 0.161864 7.93633 0.10446C8.00942 0.0470561 8.09811 0.0113548 8.19171 0.00167279C8.28877 -0.00660588 8.38597 0.0159989 8.46857 0.0660411C8.55116 0.116083 8.61463 0.19083 8.64933 0.278949C8.86223 0.698713 9.07711 1.11656 9.29199 1.53632C9.7536 2.4349 10.2145 3.33925 10.6748 4.24938C10.6886 4.28617 10.713 4.3184 10.7451 4.34227C10.7772 4.36614 10.8156 4.38067 10.8559 4.38417C11.6517 4.49007 12.4297 4.60369 13.2156 4.71537L15.3844 5.02152C15.4815 5.02519 15.575 5.05844 15.6514 5.11653C15.7279 5.17461 15.7834 5.25457 15.8102 5.34501C15.8329 5.43378 15.8282 5.52706 15.7968 5.6133C15.7653 5.69954 15.7084 5.77496 15.6331 5.83024C14.6847 6.71983 13.7383 7.61135 12.7938 8.5048C12.6585 8.63188 12.5272 8.76282 12.3959 8.8899C12.3606 8.9179 12.3344 8.95508 12.3203 8.99705C12.3062 9.03902 12.3048 9.08403 12.3163 9.12674C12.5809 10.5863 12.8376 12.0458 13.0963 13.5035C13.1154 13.586 13.109 13.6723 13.0779 13.7514C13.0467 13.8304 12.9922 13.8989 12.9212 13.9483C12.8431 14.0004 12.7504 14.0284 12.6555 14.0284C12.5607 14.0284 12.468 14.0004 12.3899 13.9483L9.84712 12.6543C9.3497 12.4001 8.85228 12.1498 8.35287 11.8841C8.31674 11.8614 8.27458 11.8493 8.2315 11.8493C8.18842 11.8493 8.14625 11.8614 8.11012 11.8841C6.77439 12.567 5.43733 13.248 4.09894 13.9271C4.03524 13.9681 3.96285 13.9947 3.88709 14.0051C3.81133 14.0154 3.73414 14.0091 3.66121 13.9868C3.55733 13.9508 3.47073 13.8791 3.4179 13.7854C3.36507 13.6917 3.3497 13.5824 3.3747 13.4784C3.63999 12.0112 3.90196 10.5433 4.16062 9.07475C4.16751 9.03846 4.16348 9.00103 4.14902 8.96689C4.13456 8.93276 4.11027 8.90335 4.07904 8.88219C3.02849 7.89504 1.97993 6.90533 0.933359 5.91304C0.823927 5.80906 0.734391 5.68198 0.634907 5.56645L0.626953 5.34693Z" fill="#DEFDFA"/>
</svg>
