<svg width="54" height="34" viewBox="0 0 54 34" fill="none" xmlns="http://www.w3.org/2000/svg">
<path d="M19.0273 22.3334H3.00065C1.53398 22.3334 0.333984 23.5334 0.333984 25.0001C0.333984 26.4667 1.53398 27.6667 3.00065 27.6667H19.0273V32.4401C19.0273 33.6401 20.4673 34.2267 21.294 33.3734L28.7073 25.9334C29.214 25.4001 29.214 24.5734 28.7073 24.0401L21.294 16.6001C20.4673 15.7467 19.0273 16.3601 19.0273 17.5334V22.3334ZM34.974 16.4401V11.6667H51.0007C52.4673 11.6667 53.6673 10.4667 53.6673 9.00008C53.6673 7.53341 52.4673 6.33341 51.0007 6.33341H34.974V1.56008C34.974 0.360081 33.534 -0.226585 32.7073 0.626748L25.294 8.06674C24.7873 8.60008 24.7873 9.42674 25.294 9.96008L32.7073 17.4001C33.534 18.2267 34.974 17.6401 34.974 16.4401Z" fill="#787CA9" fill-opacity="0.3"/>
</svg>
