<svg width="18" height="18" viewBox="0 0 18 18" fill="none" xmlns="http://www.w3.org/2000/svg">
<circle cx="9" cy="9" r="9" fill="#E0EAF8"/>
<path d="M8.74021 10.184C8.84397 10.0735 9.01273 10.0902 9.10399 10.2158L10.0666 11.5293V6.27962C10.0666 6.1071 10.1841 5.96484 10.3266 5.96484C10.4691 5.96484 10.5866 6.1071 10.5866 6.27962V11.5293L11.5492 10.2158C11.653 10.0902 11.8092 10.0735 11.913 10.184C12.0167 10.3096 12.0305 10.4988 11.9392 10.6244L10.5216 12.5448C10.4154 12.7037 10.2278 12.6795 10.1441 12.5448L8.71396 10.6244C8.6227 10.5003 8.6352 10.2945 8.74021 10.184Z" fill="#0C112A"/>
<path d="M5.95615 7.28847L7.36126 5.36806C7.48627 5.21522 7.64254 5.20614 7.7513 5.36806L9.18142 7.28847C9.27267 7.41407 9.25892 7.61837 9.15516 7.72884C8.99515 7.8832 8.83389 7.77727 8.79138 7.69706L7.8288 6.3835V11.6181C7.8288 11.7906 7.71129 11.9328 7.56878 11.9328C7.42627 11.9328 7.30876 11.8072 7.30876 11.6332V6.38501L6.34618 7.69858C6.24242 7.82418 6.08616 7.84083 5.9824 7.73036C5.87864 7.60324 5.86489 7.41407 5.95615 7.28847Z" fill="#0C112A"/>
</svg>