<svg width="57" height="20" viewBox="0 0 57 20" fill="none" xmlns="http://www.w3.org/2000/svg">
<path d="M31.7761 6.05322H29.822V10.4871C29.822 11.6283 29.3437 12.535 27.9413 12.535C26.5527 12.5485 26.1527 11.6148 26.1527 10.4285V6.05322H24.1939V10.9157C24.1939 12.3185 24.6997 14.3257 27.3896 14.3392C28.8655 14.3527 29.5966 13.6491 29.9415 13.0221V14.0911H31.7761V6.05322ZM32.5532 14.0911H34.5074V9.65719C34.5074 8.52954 34.9856 7.62291 36.3742 7.60938C37.749 7.60938 38.1491 8.52954 38.1491 9.73387V14.0911H40.1033V9.24673C40.1033 7.82589 39.5975 5.82318 36.926 5.80514C35.4638 5.79161 34.7327 6.49075 34.3741 7.12223C34.3878 6.74334 34.3878 6.40505 34.3878 6.05322H32.5532V14.0911ZM40.8527 14.0911H42.8069V6.05322H40.8527V14.0911ZM40.8527 4.97068H42.8069V3.25665H40.8527V4.97068ZM44.8531 14.0911H46.8073V7.5327H48.2097L47.6303 6.05322H46.8073V3.25665H44.8531V6.05322H43.4966V7.5327H44.8531V14.0911ZM50.0995 16.9012H52.187L56.5 6.05322H54.4125L52.4445 11.3983L50.4443 6.05322H48.3568L51.4467 13.7844L50.0995 16.9012ZM13.4758 10L17.0439 3.95579L18.7682 10L17.0439 16.0442L13.4758 10ZM11.7377 10.9788L15.3058 17.023L9.08921 15.4623L4.59689 10.9788H11.7377ZM15.3058 2.97248L11.7377 9.01669H4.59689L9.08921 4.53315L15.3058 2.97248ZM20.4005 7.94316L18.221 0L10.0962 2.129L8.89149 4.20388L6.44991 4.18583L0.5 10L6.44991 15.8142L8.89149 15.7961L10.0962 17.871L18.221 20L20.4005 12.0568L19.1636 10L20.4005 7.94316Z" fill="white"/>
</svg>
