<svg width="23" height="22" viewBox="0 0 23 22" fill="none" xmlns="http://www.w3.org/2000/svg">
<circle cx="11.5" cy="11" r="11" fill="#30D1FF"/>
<path d="M6.5 16.9616C6.5 15.5272 6.5 14.089 6.5 12.6508V12.4668H16.3307V16.9729L6.5 16.9616Z" fill="#0C112A"/>
<path d="M9.88014 9.57909H8.56588V10.4015H14.2961C14.2961 10.3601 14.2961 10.3188 14.2961 10.2813V9.60162H12.9743C13.0119 9.55656 13.0306 9.52652 13.0532 9.50399C13.4061 9.15101 13.7591 8.79429 14.1158 8.44508C14.1543 8.40359 14.2061 8.37699 14.2623 8.36997C14.9232 8.36997 15.5841 8.36997 16.2449 8.36997H16.3163V11.6293H6.51562V8.36621H6.65456C7.28165 8.36621 7.90874 8.36621 8.53208 8.36621C8.61115 8.36991 8.68662 8.40037 8.74612 8.45258C9.09534 8.79054 9.43705 9.13975 9.77876 9.48522C9.81255 9.50024 9.83508 9.53028 9.88014 9.57909Z" fill="#0C112A"/>
<path d="M15.4667 5.89514L15.3765 5.98902L11.9031 9.46619C11.8721 9.50164 11.8331 9.52928 11.7894 9.54689C11.7457 9.5645 11.6985 9.57159 11.6515 9.56758C11.4537 9.59134 11.2532 9.58245 11.0582 9.54129C10.8893 9.4737 10.7654 9.2822 10.6227 9.13951L8.6062 7.12304L8.52734 7.04043L12.5715 3L15.4667 5.89514ZM11.43 8.22702L13.4014 6.22559L12.8607 5.65107L11.3586 7.07423L10.878 6.51098L10.2396 7.0855L11.43 8.22702Z" fill="#0C112A"/>
</svg>
