<svg width="22" height="22" viewBox="0 0 22 22" fill="none" xmlns="http://www.w3.org/2000/svg">
<circle cx="11" cy="11" r="11" fill="#30D1FF"/>
<path d="M11.1658 4C11.2111 4.01863 11.2564 4.03653 11.3021 4.05553C11.4541 4.11428 11.5848 4.21742 11.6773 4.35152C11.7699 4.48561 11.8199 4.64446 11.8209 4.80737C11.8234 5.14019 11.8209 5.473 11.8209 5.82444H12.0035C13.2248 5.82444 14.4461 5.82444 15.6674 5.82189C15.781 5.82189 15.8318 5.8544 15.8705 5.96473C16.2132 6.93979 16.5646 7.91192 16.9113 8.88515C16.9249 8.92168 16.9373 8.96187 16.9592 9.02544H16.3663C16.0872 9.02544 16.0872 9.02544 15.9925 8.76204C15.8402 8.33862 15.6882 7.91484 15.5268 7.46439C15.37 7.90096 15.2221 8.31086 15.0752 8.72112C14.9656 9.02544 14.9656 9.02544 14.6481 9.02544H14.0914C14.376 8.22975 14.6533 7.4527 14.9353 6.6636H11.83V13.9077H10.1831V6.66141H7.06615L7.91005 9.02361C7.62108 9.02361 7.34964 9.02763 7.07894 9.01813C7.04752 9.01813 7.00587 8.94507 6.99053 8.90013C6.83271 8.46831 6.6789 8.03504 6.52364 7.60249C6.51049 7.56596 6.49514 7.52942 6.47286 7.4717C6.30079 7.94991 6.12982 8.40548 5.97565 8.86689C5.93254 8.99621 5.87226 9.03384 5.74367 9.02836C5.5168 9.0185 5.28956 9.02544 5.04297 9.02544C5.08498 8.90196 5.12005 8.79565 5.15768 8.69043C5.48428 7.77712 5.81271 6.86562 6.13603 5.95048C6.17073 5.85257 6.21713 5.82042 6.32088 5.82079C7.54205 5.82444 8.76334 5.8253 9.98475 5.82335H10.1813V5.45108C10.1813 5.25015 10.1813 5.04922 10.1813 4.84829C10.1813 4.43949 10.3976 4.15161 10.7914 4.02594C10.8075 4.01901 10.8228 4.01031 10.8371 4H11.1658Z" fill="#0C112A"/>
<path d="M6.21484 18.0287V16.8037H15.7864V18.0287H6.21484Z" fill="#0C112A"/>
<path d="M4 9.83594C4.72871 9.8374 5.45765 9.83862 6.18685 9.83959C7.05267 9.83959 7.9185 9.83959 8.78432 9.83959H8.93995C8.9889 10.4435 8.86177 10.9907 8.53152 11.4858C7.96745 12.3322 6.92408 12.7553 5.95852 12.535C4.93304 12.3015 4.18339 11.5015 4.02667 10.4742C4.01996 10.4434 4.01105 10.4131 4 10.3836V9.83594Z" fill="#0C112A"/>
<path d="M13.0643 9.84473H17.9941C18.0543 10.7168 17.7781 11.4522 17.1056 12.0137C16.7277 12.3338 16.2613 12.5315 15.7684 12.5805C15.2755 12.6294 14.7794 12.5273 14.3459 12.2877C13.4698 11.8095 12.9507 10.8264 13.0643 9.84473Z" fill="#0C112A"/>
<path d="M14.9597 14.749V15.9663H7.04492V14.749H14.9597Z" fill="#0C112A"/>
</svg>
