<svg width="29" height="28" viewBox="0 0 29 28" fill="none" xmlns="http://www.w3.org/2000/svg">
<circle cx="14.9961" cy="14" r="13.5" fill="#0A0E24" stroke="#30D1FF"/>
<path d="M22.6575 15.5564C22.5636 15.844 22.4276 16.1014 22.1365 16.2096C22.0019 16.2603 21.8603 16.2872 21.7173 16.2892C20.076 16.2945 18.4349 16.2955 16.7938 16.2921C16.194 16.2921 15.8466 15.9206 15.8457 15.2918C15.8457 14.6955 15.8457 14.0992 15.8457 13.5031C15.8457 12.8776 16.1996 12.51 16.8007 12.5098C18.3973 12.5098 19.9939 12.5098 21.5902 12.5098C22.2202 12.5098 22.4216 12.6502 22.6573 13.2544L22.6575 15.5564ZM17.3515 14.3973C17.3515 14.7443 17.402 14.8902 17.5809 14.9686C17.6872 15.0181 17.8024 15.0438 17.9188 15.0438C18.0353 15.0438 18.1504 15.0181 18.2567 14.9686C18.4975 14.8566 18.4913 14.6155 18.4924 14.3819C18.4924 14.1702 18.4506 13.9751 18.2529 13.8911C18.1457 13.8435 18.0303 13.8197 17.9139 13.8212C17.7975 13.8226 17.6826 13.8493 17.5766 13.8996C17.3607 14.0015 17.3405 14.211 17.3515 14.3973Z" fill="#30D1FF"/>
<path d="M21.8943 11.9448H21.6928C19.9984 11.9448 18.3039 11.9424 16.6094 11.9463C15.9493 11.9476 15.4457 12.2226 15.1676 12.8021C15.0707 13.0042 15.0273 13.2443 15.02 13.4686C15.0004 14.0789 15.011 14.69 15.0139 15.3009C15.018 16.1549 15.6879 16.7996 16.5832 16.8039C17.5818 16.8089 18.5807 16.8052 19.5795 16.8052H21.89C21.8932 16.8701 21.8977 16.9196 21.8977 16.9685C21.8977 17.6844 21.8977 18.4004 21.8977 19.1164C21.8964 19.7269 21.531 20.0789 20.8969 20.0789C16.5202 20.0797 12.1435 20.0797 7.76687 20.0789C7.13292 20.0789 6.76172 19.7232 6.76172 19.1184C6.76172 15.9691 6.76172 12.8199 6.76172 9.67061C6.76172 9.08653 7.13766 8.72656 7.75015 8.72656C12.1425 8.72656 16.5348 8.72656 20.9271 8.72656C21.4899 8.72656 21.8781 9.04737 21.8896 9.56395C21.9074 10.349 21.8943 11.1351 21.8943 11.9448Z" fill="#30D1FF"/>
<path d="M12.8196 7.94355C13.2647 7.76449 13.7097 7.58532 14.1548 7.40605C15.5262 6.85847 16.8978 6.31141 18.2695 5.76485C18.8215 5.54479 19.2363 5.8845 19.3913 6.68786C19.4724 7.10754 19.5483 7.52937 19.6301 7.96981H12.8184L12.8196 7.94355Z" fill="#30D1FF"/>
<path d="M16.6008 6.15388C16.238 6.26278 15.8922 6.36705 15.5465 6.46969C13.9244 6.95049 12.305 7.4401 10.6789 7.90328C10.3999 7.98276 10.0938 7.94963 9.80016 7.96886L9.78906 7.92668C9.823 7.90351 9.85565 7.87849 9.8913 7.85926C11.6186 6.92902 13.3462 5.99933 15.0741 5.07017C15.5864 4.79467 16.0559 4.96845 16.3135 5.52247C16.4083 5.72637 16.5001 5.9319 16.6008 6.15388Z" fill="#30D1FF"/>
</svg>
