<svg width="19" height="18" viewBox="0 0 19 18" fill="none" xmlns="http://www.w3.org/2000/svg">
<path d="M0.00195312 6.52069C0.164526 6.10975 0.550338 6.11915 0.902175 6.06984C2.21246 5.88198 3.52356 5.69726 4.83547 5.51566C5.23584 5.4593 5.63378 5.39825 6.03414 5.35363C6.09259 5.34921 6.14851 5.32873 6.19536 5.29463C6.24221 5.26052 6.27802 5.2142 6.29862 5.16108C7.10744 3.57055 7.91626 1.98238 8.72508 0.396553C8.7605 0.290886 8.82679 0.197396 8.91592 0.127391C9.00505 0.0573858 9.11321 0.0138474 9.22735 0.00203999C9.34573 -0.008056 9.46428 0.019511 9.56501 0.0805384C9.66573 0.141566 9.74311 0.232721 9.78544 0.340184C10.0451 0.852095 10.3071 1.36166 10.5692 1.87358C11.1321 2.96941 11.6942 4.07228 12.2556 5.1822C12.2724 5.22708 12.3022 5.26638 12.3413 5.29549C12.3804 5.3246 12.4272 5.34232 12.4764 5.34658C13.447 5.47573 14.3957 5.61429 15.3542 5.75048L17.999 6.12384C18.1175 6.12832 18.2314 6.16887 18.3247 6.2397C18.4179 6.31054 18.4856 6.40805 18.5183 6.51834C18.546 6.62683 18.5401 6.74084 18.5013 6.84609C18.4624 6.95135 18.3924 7.04317 18.2999 7.1101C17.1449 8.19497 15.9915 9.2822 14.8398 10.3718C14.6748 10.5268 14.5146 10.6864 14.3545 10.8414C14.311 10.8752 14.2786 10.9205 14.2614 10.9718C14.2442 11.0231 14.2428 11.0782 14.2574 11.1302C14.5801 12.9102 14.8931 14.6901 15.2086 16.4677C15.2319 16.5684 15.2241 16.6736 15.1861 16.77C15.1482 16.8665 15.0817 16.95 14.9951 17.0102C14.8998 17.0738 14.7868 17.1079 14.6711 17.1079C14.5554 17.1079 14.4424 17.0738 14.3472 17.0102L11.2462 15.4322C10.6371 15.1222 10.0329 14.8169 9.4239 14.4929C9.37983 14.4652 9.32842 14.4505 9.27589 14.4505C9.22335 14.4505 9.17194 14.4652 9.12788 14.4929C7.49406 15.3445 5.86024 16.1805 4.22643 17.0008C4.14874 17.0508 4.06045 17.0833 3.96807 17.0959C3.87568 17.1085 3.78154 17.1009 3.6926 17.0736C3.56592 17.0297 3.46031 16.9423 3.39589 16.828C3.33146 16.7137 3.31271 16.5805 3.34319 16.4536C3.66672 14.6643 3.99025 12.8742 4.31377 11.0833C4.32218 11.039 4.31727 10.9934 4.29963 10.9517C4.28199 10.9101 4.25238 10.8743 4.2143 10.8485C2.93313 9.6446 1.65438 8.43762 0.378066 7.22751C0.248257 7.09366 0.126723 6.95253 0.0140973 6.80483L0.00195312 6.52069Z" fill="#F9CB2A"/>
</svg>
