<svg width="29" height="22" viewBox="0 0 29 22" fill="none" xmlns="http://www.w3.org/2000/svg">
<path d="M20.0279 21.9731C20.8345 21.9728 21.6164 21.6955 22.2429 21.1875C22.8694 20.6795 23.3024 19.9717 23.4693 19.1826H16.5801C16.7483 19.9722 17.1826 20.6802 17.8101 21.1881C18.4377 21.696 19.2206 21.9731 20.0279 21.9731Z" fill="#30D1FF"/>
<path d="M7.97708 21.9731C8.78364 21.9728 9.56566 21.6955 10.1921 21.1875C10.8186 20.6795 11.2515 19.9717 11.4184 19.1826H4.5293C4.69865 19.9717 5.13314 20.6789 5.76045 21.1866C6.38777 21.6944 7.17005 21.9719 7.97708 21.9731Z" fill="#30D1FF"/>
<path d="M5.11625 0.78418H3.36335L2.41602 3.32975H4.16247L5.11625 0.78418Z" fill="#30D1FF"/>
<path d="M11.8663 0.78418H10.1134L9.16602 3.32975H10.9125L11.8663 0.78418Z" fill="#30D1FF"/>
<path d="M1.72835 0.78418C1.38652 0.78418 1.0587 0.919973 0.816982 1.16169C0.575267 1.4034 0.439454 1.73124 0.439454 2.07308C0.439196 2.25649 0.479466 2.43769 0.557456 2.6037C0.635447 2.76971 0.749195 2.91641 0.890537 3.03331L1.7219 0.797071L1.72835 0.78418Z" fill="#30D1FF"/>
<path d="M26.9122 0.963867L26.0293 3.32899H26.2742C26.616 3.32899 26.9438 3.1932 27.1856 2.95149C27.4273 2.70977 27.5631 2.38193 27.5631 2.0401C27.5556 1.82005 27.4918 1.6056 27.3778 1.4172C27.2639 1.2288 27.1036 1.07273 26.9122 0.963867Z" fill="#30D1FF"/>
<path d="M8.48735 0.78418H6.74089L5.78711 3.32975H7.54001L8.48735 0.78418Z" fill="#30D1FF"/>
<path d="M25.3584 0.78418H23.6055L22.6582 3.32975H24.4047L25.3584 0.78418Z" fill="#30D1FF"/>
<path d="M21.9815 0.78418H20.235L19.2812 3.32975H21.0341L21.9815 0.78418Z" fill="#30D1FF"/>
<path d="M15.2334 0.78418H13.487L12.5332 3.32975H14.2861L15.2334 0.78418Z" fill="#30D1FF"/>
<path d="M18.6104 0.78418H16.8575L15.9102 3.32975H17.6566L18.6104 0.78418Z" fill="#30D1FF"/>
<path d="M26.7125 10.8048V3.90918H1.2889V10.8048H0V11.707H1.2889V17.6359C1.2906 17.8912 1.3932 18.1354 1.57431 18.3153C1.75541 18.4952 2.00031 18.5962 2.25557 18.5962H25.7458C26.0022 18.5962 26.248 18.4943 26.4293 18.313C26.6106 18.1318 26.7125 17.8859 26.7125 17.6295V11.707H28.0014V10.7983L26.7125 10.8048ZM18.515 7.89832C18.5861 7.84324 18.6761 7.81845 18.7654 7.82931C18.8547 7.84017 18.9361 7.88581 18.9919 7.95632L19.2948 8.35588C19.3499 8.42699 19.3747 8.51696 19.3638 8.60625C19.353 8.69553 19.3073 8.77693 19.2368 8.83277L18.7922 9.17433L18.0704 8.23988L18.515 7.89832ZM8.71941 16.9206L7.99763 15.9862L16.1177 9.70278L16.8395 10.6372L8.71941 16.9206ZM19.7588 15.7864C19.1264 13.6939 18.1054 11.7394 16.7492 10.025C15.4321 8.28367 13.799 6.80579 11.9352 5.66852C13.1579 5.69129 14.3592 5.99349 15.4472 6.55199C16.5352 7.11049 17.4809 7.91049 18.2121 8.89077C18.9797 9.84558 19.5182 10.9636 19.7863 12.159C20.0544 13.3543 20.045 14.5952 19.7588 15.7864Z" fill="#30D1FF"/>
</svg>
