<svg width="28" height="28" viewBox="0 0 28 28" fill="none" xmlns="http://www.w3.org/2000/svg">
<circle cx="14" cy="14" r="14" fill="#F26929"/>
<path d="M9.28174 5.59961H18.7368C18.7451 5.60693 18.7519 5.61838 18.7615 5.62112C19.5035 5.84174 19.8276 6.2752 19.8276 7.04966V19.3051H12.2899V19.5037C12.2899 20.2745 12.2958 21.0453 12.2876 21.8161C12.2803 22.5169 11.7914 23.0597 11.1172 23.1357C10.7986 23.1681 10.4794 23.0818 10.2205 22.8934C9.96164 22.7049 9.78139 22.4276 9.71428 22.1146C9.68905 21.9743 9.67892 21.8318 9.68407 21.6893C9.68407 16.807 9.68407 11.9247 9.68407 7.04234C9.68453 6.52191 9.57422 6.03673 9.28174 5.59961ZM18.0164 9.69299H11.4861V10.6972H18.0164V9.69299ZM18.0164 11.9505H11.4866V12.9542H18.0173L18.0164 11.9505ZM11.4838 15.2122H18.0118V14.2052H11.4847L11.4838 15.2122ZM18.0136 16.4549H11.4861V17.4619H18.0146L18.0136 16.4549ZM11.482 8.44067H14.7396V7.43827H11.482V8.44067ZM16.8831 8.44067H18.0155V7.43598H16.8831V8.44067Z" fill="white"/>
<path d="M12.9116 23.142C13.2906 22.59 13.3355 21.9977 13.319 21.3926C13.3098 21.0456 13.319 20.6982 13.319 20.3398H22.3136V20.8374C22.3136 21.1688 22.3205 21.4997 22.3136 21.8306C22.2926 22.6065 21.7415 23.1425 20.9647 23.1434C19.0588 23.1452 17.1528 23.1452 15.2469 23.1434L12.9116 23.142Z" fill="white"/>
</svg>
