<svg width="28" height="28" viewBox="0 0 28 28" fill="none" xmlns="http://www.w3.org/2000/svg">
<circle cx="14" cy="14" r="14" fill="#F26929"/>
<path d="M23.0999 7.03391V23.1004H11.8999V4.90039L23.0999 7.03391ZM16.3721 7.94416H14.1507V9.44H16.3721V7.94416ZM16.3677 15.5104V14.0145H14.1523V15.5104H16.3677ZM18.6272 15.5104H20.8464V14.0145H18.6272V15.5104ZM16.3721 17.0472H14.1518V18.5375H16.3721V17.0472ZM20.8524 17.0439H18.6288V18.5397H20.8524V17.0439ZM16.3721 10.9829H14.155V12.4716H16.3721V10.9829ZM20.8524 10.9829H18.6354V12.4716H20.8524V10.9829ZM14.148 21.5685H16.3721V20.0804H14.1491L14.148 21.5685ZM18.6288 21.5685H20.8459V20.0799H18.6288V21.5685Z" fill="white"/>
<path d="M10.4876 23.1004H4.8999V9.37545C4.93716 9.37548 4.97438 9.37326 5.01133 9.36882L9.68315 8.53968C9.94918 8.49215 10.2158 8.44848 10.4999 8.40039V22.9252C10.4976 22.9838 10.4912 23.0451 10.4876 23.1004ZM6.51124 15.5276H8.8909V14.0352H6.51124V15.5276ZM6.51765 17.0588V18.5545H8.89032V17.056L6.51765 17.0588ZM8.88798 12.498V11.0077H6.51707V12.4952L8.88798 12.498ZM8.89207 20.0912H6.51707V21.5748H8.89207V20.0912Z" fill="white"/>
</svg>
