<svg width="28" height="28" viewBox="0 0 28 28" fill="none" xmlns="http://www.w3.org/2000/svg">
<circle cx="14" cy="14" r="14" fill="#F26929"/>
<path d="M4.2002 10.9386C4.26845 10.6728 4.31366 10.3983 4.40793 10.1426C5.00513 8.52622 6.72548 7.92161 8.17113 8.81168C9.66412 9.73108 10.2421 11.7993 9.43462 13.3325C8.74059 14.6508 7.15035 15.0929 5.8941 14.3198C4.95096 13.7397 4.41604 12.8824 4.23944 11.7805C4.23017 11.7466 4.21744 11.7139 4.20147 11.6828L4.2002 10.9386Z" fill="white"/>
<path d="M24.4996 13.9976C24.3506 14.4082 24.2604 14.8509 24.0414 15.2227C23.4869 16.1653 22.6401 16.7334 21.4958 16.7967C20.2542 16.8656 19.2639 16.1281 18.9763 14.9563C18.526 13.1218 20.1458 11.1672 22.0876 11.2016C22.6645 11.2077 23.2202 11.4128 23.6548 11.7799C24.0895 12.1471 24.3746 12.6523 24.459 13.2047C24.47 13.2559 24.4838 13.3065 24.5004 13.3562L24.4996 13.9976Z" fill="white"/>
<path d="M7 19.2971C7.03338 18.7719 7.12048 18.2665 7.38676 17.8305C8.2163 16.4705 8.99443 15.0661 9.93524 13.7909C11.089 12.2264 12.7047 11.6449 14.5948 12.002C15.9346 12.2553 16.9633 13.0168 17.705 14.1821C18.4161 15.3005 19.1163 16.4261 19.8057 17.5589C20.9472 19.4299 20.0202 21.8173 17.964 22.312C17.3716 22.4547 16.7807 22.4309 16.214 22.1931C15.3169 21.8129 14.3953 21.5838 13.4172 21.6294C12.641 21.6655 11.9093 21.8716 11.1918 22.1701C10.8108 22.3307 10.402 22.4088 9.99057 22.3997C9.57917 22.3905 9.17395 22.2944 8.79996 22.117C8.42597 21.9397 8.09115 21.685 7.81621 21.3688C7.54126 21.0525 7.33203 20.6813 7.20144 20.2781C7.09822 19.9626 7.06523 19.6245 7 19.2971Z" fill="white"/>
<path d="M9.1009 8.02727C9.12587 7.08702 9.43623 6.26104 10.1389 5.60976C11.2452 4.58585 12.8503 4.68204 13.8797 5.8228C14.983 7.04537 14.9718 9.09504 13.8563 10.3088C12.6621 11.6065 10.7202 11.4694 9.71307 10.0161C9.30844 9.43266 9.08488 8.69919 9.1009 8.02727Z" fill="white"/>
<path d="M21.0004 9.04176C20.9354 10.4217 20.4862 11.4223 19.4859 12.1062C17.9917 13.1271 16.1966 12.5099 15.5856 10.7848C15.0276 9.20521 15.7733 7.31378 17.2476 6.57705C18.6306 5.88586 20.2368 6.53639 20.766 8.02896C20.8992 8.40424 20.9486 8.81042 21.0004 9.04176Z" fill="white"/>
</svg>
