<svg width="28" height="28" viewBox="0 0 28 28" fill="none" xmlns="http://www.w3.org/2000/svg">
<circle cx="14" cy="14" r="14" fill="#F26929"/>
<path d="M13.7349 5.62831C14.3039 5.97289 14.8589 6.33185 15.4417 6.63336C16.6383 7.24874 17.9299 7.64234 19.2578 7.79632C19.9933 7.88246 20.7565 7.79631 21.5058 7.88246H21.7001C21.7001 8.09782 21.7001 8.29882 21.7001 8.49982C21.7001 9.33256 21.7001 10.1797 21.7001 11.0268C21.661 14.9262 20.1699 18.6598 17.5371 21.4503C16.4559 22.617 15.2229 23.6221 13.8737 24.4367C13.8192 24.4776 13.7536 24.4996 13.6863 24.4996C13.6191 24.4996 13.5535 24.4776 13.499 24.4367C11.0076 22.9693 8.94227 20.8373 7.51818 18.263C6.58639 16.5823 5.98289 14.7285 5.74197 12.8071C5.63346 11.811 5.58711 10.8087 5.60321 9.80637V7.85371H5.82524C6.53295 7.85371 7.2129 7.85373 7.94836 7.78194C9.35603 7.64791 10.7263 7.23866 11.9865 6.57591C12.5138 6.31748 13.0133 5.98726 13.5268 5.68575L13.6239 5.59961L13.7349 5.62831ZM7.8096 10.0935C7.80429 10.1316 7.80429 10.1703 7.8096 10.2084C7.77948 11.254 7.86796 12.2996 8.07325 13.3239C8.76569 16.835 10.7578 19.9267 13.6239 21.9385C13.6369 21.9538 13.6529 21.966 13.6709 21.9744C13.6888 21.9828 13.7083 21.9871 13.728 21.9871C13.7477 21.9871 13.7671 21.9828 13.7851 21.9744C13.803 21.966 13.819 21.9538 13.8321 21.9385C14.8138 21.2189 15.7001 20.3694 16.4686 19.4116C18.4116 17.0754 19.5231 14.1215 19.6186 11.0411C19.6186 10.7252 19.6186 10.4094 19.6186 10.0935L18.7583 9.96428C17.1092 9.73528 15.5147 9.19512 14.0541 8.37061C13.9565 8.30682 13.8434 8.27294 13.728 8.27294C13.6125 8.27294 13.4995 8.30682 13.4019 8.37061C12.0773 9.11682 10.6425 9.63107 9.15562 9.89251L7.8096 10.0935Z" fill="white"/>
<path d="M13.8394 9.85208C13.7863 9.81854 13.7253 9.80078 13.6632 9.80078C13.601 9.80078 13.54 9.81854 13.4869 9.85208C12.4179 10.4219 11.2808 10.8416 10.1054 11.1003L9.1001 11.3038C9.16538 11.86 9.20455 12.4027 9.309 12.9454C9.80007 15.8391 11.3075 18.4403 13.5391 20.2447C13.6305 20.3125 13.6827 20.3261 13.7741 20.2447C14.9689 19.2782 15.9681 18.0759 16.7142 16.7068C17.4603 15.3377 17.9387 13.8289 18.1218 12.2671C18.1218 11.9415 18.1218 11.6158 18.2001 11.2902C16.683 11.0513 15.2114 10.566 13.8394 9.85208Z" fill="white"/>
</svg>
