<svg width="28" height="28" viewBox="0 0 28 28" fill="none" xmlns="http://www.w3.org/2000/svg">
<circle cx="14" cy="14" r="14" fill="#F26929"/>
<path d="M5.6001 12.6727V12.4374C5.6524 12.3417 5.69947 12.2418 5.75701 12.1507C6.62524 10.8456 7.49486 9.54118 8.36588 8.23744C8.60177 7.88387 8.87269 7.81901 9.25816 8.00835L10.4355 8.59466C11.5799 9.16721 12.7241 9.74027 13.8681 10.3139C14.2798 10.5231 14.3676 10.8704 14.1161 11.2553C14.0235 11.3976 13.9246 11.5362 13.8347 11.68C13.6935 11.907 13.49 12.0038 13.2259 12.0012C12.7426 11.997 12.2588 12.0012 11.775 12.0012C11.0495 12.0012 10.3236 11.998 9.59813 12.0012C9.5144 11.9985 9.43111 12.0142 9.35407 12.0471C9.27704 12.08 9.20812 12.1294 9.15213 12.1917C9.09614 12.254 9.05444 12.3278 9.02993 12.4079C9.00543 12.488 8.99871 12.5725 9.01025 12.6555C9.04163 12.9599 9.30419 13.1738 9.66508 13.1754C10.4104 13.1785 11.1557 13.1816 11.901 13.1722C12.0663 13.1722 12.1526 13.2156 12.2279 13.3684C13.0742 15.0769 13.9253 16.7827 14.7814 18.4857C14.8186 18.5691 14.8638 18.6488 14.9163 18.7237C14.9817 18.8148 15.0722 18.8848 15.1769 18.9251C15.2815 18.9655 15.3956 18.9743 15.5052 18.9507C15.6062 18.9346 15.7006 18.8903 15.7775 18.8228C15.8543 18.7554 15.9104 18.6675 15.9393 18.5694C16.0047 18.379 15.9566 18.2006 15.8672 18.0228C15.0906 16.4767 14.3162 14.9296 13.5439 13.3814C13.5141 13.3208 13.4869 13.259 13.4586 13.1978L13.4942 13.1408C13.6793 13.1863 13.876 13.2057 14.0476 13.281C15.7919 14.0488 17.5304 14.8297 19.2742 15.5986C19.974 15.9071 20.6241 15.8046 21.2094 15.313C21.2361 15.291 21.2669 15.2748 21.3014 15.2518C21.3014 15.9098 21.3171 16.5494 21.2941 17.187C21.2779 17.4671 21.2251 17.7438 21.1372 18.0102C20.8631 18.8994 20.2732 19.5333 19.4923 20.0046C19.2355 20.1615 19.1351 20.3785 19.1372 20.674C19.144 21.6218 19.1288 22.57 19.145 23.5172C19.1513 23.8792 19.0404 24.1365 18.702 24.2819H9.52282C9.09603 24.0727 9.00607 23.875 9.12427 23.3995C9.4564 22.0648 9.78276 20.7284 10.1264 19.3963C10.1662 19.2661 10.1733 19.1281 10.147 18.9945C10.1207 18.861 10.0619 18.736 9.97576 18.6306C8.92063 17.2187 7.87109 15.8031 6.82712 14.3836C6.41079 13.8197 6.00858 13.2444 5.6001 12.6727Z" fill="white"/>
<path d="M22.3108 11.5734C22.224 11.7256 22.1455 11.8825 22.0493 12.0284C21.5611 12.7645 21.0729 13.4986 20.5848 14.2309C20.3327 14.608 20.0942 14.677 19.6831 14.4955C19.3729 14.358 19.0622 14.222 18.7531 14.0813C18.3551 13.9003 18.2463 13.5264 18.4916 13.1592C19.0652 12.2931 19.6405 11.4288 20.2176 10.5665C20.4399 10.2344 20.7637 10.1675 21.0989 10.3793C21.3531 10.5393 21.6 10.7119 21.8584 10.8652C22.0676 10.9891 22.2344 11.1413 22.3118 11.3772L22.3108 11.5734Z" fill="white"/>
<path d="M11.5234 4.19922C11.9894 4.4963 12.4591 4.78815 12.9209 5.09203C13.1892 5.26882 13.2803 5.60512 13.1124 5.86611C12.6683 6.55704 12.207 7.23697 11.7441 7.93365L9.36328 6.74324L9.94384 5.87239C10.2258 5.44874 10.5124 5.02822 10.788 4.60091C10.9046 4.41889 11.0427 4.27297 11.2488 4.19922H11.5234Z" fill="white"/>
<path d="M17.795 8.32812C17.908 8.37363 18.0298 8.40397 18.1324 8.46621C18.4388 8.65293 18.7396 8.84959 19.0388 9.04781C19.3677 9.26644 19.4415 9.60275 19.2255 9.92912C18.5808 10.9037 17.9326 11.8762 17.2809 12.8466C17.079 13.1478 16.8175 13.2174 16.4796 13.072C16.1417 12.9266 15.8101 12.7802 15.4775 12.6285C15.1024 12.4569 14.9874 12.0772 15.2159 11.733C15.9004 10.6985 16.5882 9.66604 17.2793 8.63567C17.3356 8.54799 17.4115 8.47458 17.5009 8.42121C17.5904 8.36784 17.6911 8.33598 17.795 8.32812Z" fill="white"/>
<path d="M12.8032 8.46311C13.2483 7.79729 13.6772 7.14193 14.1223 6.49756C14.2902 6.25487 14.6197 6.20048 14.8786 6.36053C15.3057 6.62483 15.7278 6.89803 16.1449 7.18011C16.2682 7.25913 16.3552 7.38374 16.387 7.52672C16.4187 7.66969 16.3926 7.81943 16.3143 7.94322C15.9482 8.51541 15.568 9.07714 15.1856 9.65457L12.8032 8.46311Z" fill="white"/>
</svg>
