<svg width="28" height="28" viewBox="0 0 28 28" fill="none" xmlns="http://www.w3.org/2000/svg">
<circle cx="14" cy="14" r="14" fill="#F26929"/>
<path d="M19.4873 6.30078H19.8649C20.2708 6.40846 20.6335 6.63882 20.9032 6.96032C21.1728 7.2385 21.456 7.52117 21.7527 7.80832C22.0708 8.07288 22.2973 8.43086 22.3999 8.83132V9.2082C22.2505 9.71254 21.9434 10.1559 21.5234 10.4734C21.9549 10.9445 21.9954 11.3214 21.6852 11.6714C21.3751 12.0214 20.9975 11.981 20.4447 11.5637L17.7479 14.2558C17.667 14.3231 17.6804 14.3904 17.7479 14.4711C17.9894 15.0434 18.1527 15.6456 18.2333 16.2614C18.3947 17.5434 18.1768 18.8445 17.6066 20.0045C17.0364 21.1645 16.1387 22.1326 15.0241 22.7896C14.0382 23.4152 12.9016 23.7639 11.7339 23.7991C10.9729 23.8165 10.2148 23.6979 9.49555 23.4491C8.58913 23.1585 7.75617 22.676 7.05349 22.0348C6.35081 21.3936 5.79494 20.6086 5.42377 19.7335C5.05261 18.8583 4.87489 17.9135 4.90274 16.9636C4.93058 16.0136 5.16334 15.0809 5.58513 14.2289C6.21285 12.9722 7.23596 11.9557 8.49772 11.3349C9.35672 10.888 10.3048 10.6379 11.2728 10.603C12.2409 10.5681 13.2046 10.7491 14.0936 11.133C14.1307 11.1661 14.1787 11.1844 14.2285 11.1844C14.2782 11.1844 14.3263 11.1661 14.3633 11.133L17.0602 8.44096L17.168 8.33325C16.75 7.78138 16.7096 7.43142 17.0467 7.12184C17.1849 7.01137 17.3462 6.9332 17.5186 6.89304C17.6632 6.8843 17.8076 6.91317 17.9376 6.97688C18.0676 7.04058 18.1788 7.13694 18.2603 7.25645C18.5492 6.80854 18.9818 6.47165 19.4873 6.30078ZM16.3725 15.4403C16.2646 15.198 16.1702 14.9826 16.0623 14.7673C16 14.6838 15.955 14.5887 15.9301 14.4876C15.9051 14.3865 15.9007 14.2814 15.917 14.1785C15.9333 14.0757 15.9701 13.9771 16.0252 13.8887C16.0802 13.8002 16.1525 13.7237 16.2376 13.6635L19.2985 10.608L19.4064 10.5004L18.2603 9.35625L18.1389 9.47738L15.0241 12.479C14.961 12.5722 14.8794 12.6515 14.7844 12.7119C14.6894 12.7723 14.583 12.8126 14.4717 12.8302C14.3605 12.8479 14.2468 12.8426 14.1377 12.8146C14.0286 12.7866 13.9264 12.7365 13.8375 12.6675C12.9554 12.2051 11.9563 12.0131 10.9653 12.1156C10.2213 12.1787 9.50084 12.4074 8.85685 12.7847C8.21286 13.162 7.66167 13.6785 7.24369 14.2962C7.07806 14.5441 6.92504 14.8001 6.78522 15.0634H6.90659C7.57629 15.2603 8.28303 15.2973 8.96966 15.1711C10.0078 14.9501 11.0855 15.0011 12.098 15.3191C12.6488 15.4865 13.2327 15.5143 13.797 15.3999C14.4263 15.3013 15.0664 15.2923 15.6983 15.373L16.3725 15.4403ZM14.3364 20.1783C14.3364 19.9427 14.2426 19.7167 14.0757 19.5501C13.9088 19.3835 13.6824 19.2899 13.4464 19.2899C13.2104 19.2899 12.984 19.3835 12.8171 19.5501C12.6502 19.7167 12.5564 19.9427 12.5564 20.1783C12.5564 20.4152 12.6498 20.6425 12.8163 20.8113C12.9828 20.98 13.2091 21.0766 13.4464 21.0801C13.673 21.0601 13.884 20.9567 14.0385 20.7901C14.193 20.6234 14.28 20.4054 14.2824 20.1783H14.3364ZM8.09319 18.8323C8.09319 19.008 8.14538 19.1797 8.24317 19.3258C8.34096 19.4719 8.47995 19.5858 8.64257 19.653C8.80519 19.7202 8.98413 19.7379 9.15676 19.7036C9.3294 19.6693 9.48797 19.5847 9.61243 19.4604C9.7369 19.3362 9.82166 19.1779 9.856 19.0056C9.89034 18.8333 9.87272 18.6547 9.80536 18.4923C9.738 18.33 9.62393 18.1912 9.47757 18.0936C9.33122 17.996 9.15916 17.9439 8.98314 17.9439C8.85713 17.936 8.7309 17.955 8.6128 17.9996C8.4947 18.0441 8.38745 18.1132 8.29817 18.2024C8.2089 18.2915 8.13964 18.3985 8.095 18.5164C8.05036 18.6343 8.03135 18.7603 8.03925 18.8861L8.09319 18.8323ZM10.7091 19.9226C10.5911 19.919 10.4736 19.9389 10.3634 19.9811C10.2532 20.0233 10.1524 20.0869 10.0671 20.1683C9.98178 20.2498 9.91353 20.3473 9.86633 20.4553C9.81913 20.5633 9.79393 20.6796 9.7922 20.7975C9.79217 21.0343 9.8855 21.2617 10.052 21.4305C10.2185 21.5992 10.4449 21.6958 10.6821 21.6993C10.9182 21.6993 11.1445 21.6057 11.3114 21.4391C11.4783 21.2725 11.5721 21.0466 11.5721 20.8109C11.5721 20.5753 11.4783 20.3493 11.3114 20.1827C11.1445 20.0161 10.9182 19.9226 10.6821 19.9226H10.7091Z" fill="white"/>
</svg>
