<svg width="28" height="28" viewBox="0 0 28 28" fill="none" xmlns="http://www.w3.org/2000/svg">
<circle cx="14" cy="14" r="14" fill="#F26929"/>
<path d="M19.7623 18.5311H16.9525L17.0387 18.7653C17.6074 20.0097 18.4857 21.0875 19.5898 21.8955C19.6639 21.9403 19.7498 21.9618 19.8363 21.9572H20.8961C20.9085 22.1994 20.9085 22.4421 20.8961 22.6843C20.8961 22.6843 20.7729 22.7829 20.699 22.7829H8.28873V21.9572H9.21302C9.33115 21.9558 9.44483 21.9121 9.53342 21.8339C10.5051 21.0169 11.2944 20.0051 11.8503 18.8638C11.8906 18.7848 11.9236 18.7023 11.9489 18.6174C11.9489 18.6174 11.9489 18.6174 11.9489 18.5311H9.38554V18.1121C9.38554 17.8533 9.38554 17.5945 9.38554 17.3357C9.38554 17.0769 9.32392 17.0522 9.11441 16.9906C8.34956 16.7793 7.63802 16.4088 7.02636 15.9033C6.41469 15.3978 5.91675 14.7689 5.56514 14.0575C5.56514 13.9712 5.49119 13.885 5.44189 13.774H9.3609V12.8867H19.7377C19.7377 13.2564 19.7377 13.6138 19.7377 13.9712C19.7377 14.1314 19.7377 14.1931 19.9348 14.2424C20.861 14.4774 21.7103 14.9487 22.3996 15.6103C21.9085 16.067 21.362 16.4604 20.7729 16.7811C20.5061 16.9259 20.2303 17.0535 19.9472 17.1631C19.895 17.1776 19.8499 17.2106 19.8204 17.256C19.7909 17.3014 19.779 17.3561 19.787 17.4096C19.7746 17.767 19.7623 18.1367 19.7623 18.5311Z" fill="white"/>
<path d="M11.1974 12.0987L9.84178 9.90501L1.95446 13.4543L1.3999 12.2219L9.28723 8.67262L8.54778 6.20782L9.86646 5.60392C9.92574 5.57994 9.99202 5.57994 10.0513 5.60392L12.3559 7.85923C12.4083 7.91012 12.4466 7.97384 12.4668 8.04408C12.7749 9.03 13.0707 10.0036 13.3665 10.9895V11.0758L11.1974 12.0987Z" fill="white"/>
<path d="M16.6573 12.0249V10.7186L13.8721 12.0249L15.2523 8.11823L15.5974 9.48617L18.9249 4.19922L18.0006 8.32775L21.1678 6.63934L19.1221 9.58478L22.1291 9.68336L16.6573 12.0249Z" fill="white"/>
</svg>
