<svg width="28" height="28" viewBox="0 0 28 28" fill="none" xmlns="http://www.w3.org/2000/svg">
<circle cx="14" cy="14" r="14" fill="#F26929"/>
<path d="M23.8001 14.9075C23.6592 15.2129 23.4161 15.3052 23.085 15.2995C22.1848 15.2843 21.2845 15.2921 20.3843 15.2963C19.0078 15.3027 17.7561 15.7206 16.6002 16.441C16.5478 16.4769 16.5058 16.5256 16.4783 16.5824C15.7122 18.0939 14.9478 19.6061 14.1851 21.1192C14.1509 21.1926 14.1335 21.2727 14.1343 21.3536C14.13 21.9333 14.1193 22.5138 14.1368 23.0932C14.1465 23.4202 14.0478 23.6589 13.741 23.8003H13.4568C13.1507 23.6589 13.0496 23.4202 13.0607 23.0932C13.0789 22.5431 13.0689 21.992 13.0607 21.4416C13.058 21.363 13.0273 21.2879 12.9741 21.2295C12.0734 20.3308 11.1687 19.4363 10.2601 18.5459C10.1954 18.4914 10.1131 18.4613 10.0281 18.461C8.76673 18.4557 7.50537 18.4575 6.24365 18.4572C5.80103 18.4572 5.6001 18.2613 5.6001 17.8286C5.6001 17.3432 5.6001 16.8578 5.6001 16.3481H5.81461C7.44924 16.3481 9.08386 16.3385 10.7185 16.3505C12.697 16.365 14.4811 15.8029 16.076 14.6437C17.4375 13.6539 18.9674 13.1756 20.6556 13.1837C21.2715 13.187 21.8874 13.187 22.5033 13.1837C22.616 13.1837 22.6789 13.2169 22.7483 13.3088C22.9885 13.627 23.2452 13.9339 23.4955 14.2453C23.597 14.3719 23.6971 14.4999 23.7983 14.6275L23.8001 14.9075ZM14.785 17.5673C14.2734 17.7625 13.7839 17.9841 13.2741 18.133C12.7643 18.2818 12.2308 18.3589 11.6927 18.4706L13.4418 20.2251L14.785 17.5673Z" fill="white"/>
<path d="M22.2834 12.1238C22.279 12.0938 22.273 12.0641 22.2654 12.0347C21.8778 10.5819 21.1867 9.30025 20.1491 8.22325C17.5785 5.5555 13.7234 4.83897 10.4148 6.45832C8.16875 7.55842 6.68914 9.35892 5.94897 11.7861C5.58845 12.9731 5.5834 14.1917 5.60936 15.4164C5.60936 15.426 5.62162 15.4355 5.63568 15.4557H5.75213C7.50826 15.4557 9.26439 15.4637 11.0205 15.4494C11.4622 15.4434 11.9026 15.4008 12.3375 15.3222C13.541 15.1102 14.6193 14.5987 15.5956 13.8554C16.1288 13.4546 16.7084 13.1221 17.3215 12.8653C18.5011 12.3607 19.732 12.1455 21.0082 12.1744C21.4315 12.184 21.8551 12.1744 22.2769 12.1744C22.2808 12.1578 22.283 12.1409 22.2834 12.1238Z" fill="white"/>
</svg>
