<svg width="60" height="58" viewBox="0 0 60 58" fill="none" xmlns="http://www.w3.org/2000/svg">
<g filter="url(#filter0_d_1846_5151)">
<path d="M45.4501 11.2275H11.4902V41.5307H45.4501V11.2275Z" fill="white"/>
<path fill-rule="evenodd" clip-rule="evenodd" d="M56.0385 29C56.0385 43.9118 43.7178 56 28.5192 56C13.3208 56 1 43.9118 1 29C1 14.0883 13.3208 2 28.5192 2C43.7178 2 56.0385 14.0883 56.0385 29ZM20.7211 39.7446H15.3804C14.2581 39.7446 13.7038 39.7446 13.3658 39.5325C13.0007 39.3003 12.7776 38.9156 12.7506 38.491C12.7303 38.0998 13.0075 37.6221 13.5618 36.667L26.7487 13.8618C27.3098 12.8934 27.5937 12.4092 27.952 12.2302C28.3374 12.0378 28.7971 12.0378 29.1824 12.2302C29.5407 12.4092 29.8247 12.8934 30.3858 13.8618L33.0967 18.5048L33.1105 18.5285C33.7166 19.5674 34.0239 20.0943 34.1581 20.6472C34.3068 21.2508 34.3068 21.8876 34.1581 22.4912C34.0229 23.0483 33.7187 23.579 33.1035 24.6336L26.1767 36.6471L26.1588 36.6779C25.5488 37.7253 25.2396 38.2562 24.8111 38.6567C24.3447 39.0946 23.7835 39.4128 23.1683 39.5922C22.6072 39.7446 21.9785 39.7446 20.7211 39.7446ZM34.2081 39.7446H41.8607C42.9897 39.7446 43.5577 39.7446 43.8959 39.526C44.2609 39.2938 44.4906 38.9023 44.5112 38.478C44.5306 38.0995 44.2594 37.6404 43.7281 36.7407C43.7098 36.7101 43.6915 36.6789 43.6728 36.6472L39.8395 30.2134L39.7959 30.1409C39.2572 29.2472 38.9853 28.7959 38.6361 28.6215C38.251 28.4291 37.7977 28.4291 37.4126 28.6215C37.061 28.8006 36.7771 29.2715 36.216 30.22L32.3963 36.6539L32.3832 36.676C31.8241 37.623 31.5447 38.0962 31.5648 38.4845C31.5919 38.9091 31.8149 39.3003 32.18 39.5325C32.5113 39.7446 33.0791 39.7446 34.2081 39.7446Z" fill="#E84142"/>
</g>
<defs>
<filter id="filter0_d_1846_5151" x="0" y="0" width="59.0391" height="58" filterUnits="userSpaceOnUse" color-interpolation-filters="sRGB">
<feFlood flood-opacity="0" result="BackgroundImageFix"/>
<feColorMatrix in="SourceAlpha" type="matrix" values="0 0 0 0 0 0 0 0 0 0 0 0 0 0 0 0 0 0 127 0" result="hardAlpha"/>
<feOffset dx="1"/>
<feGaussianBlur stdDeviation="1"/>
<feComposite in2="hardAlpha" operator="out"/>
<feColorMatrix type="matrix" values="0 0 0 0 0 0 0 0 0 0 0 0 0 0 0 0 0 0 0.57 0"/>
<feBlend mode="normal" in2="BackgroundImageFix" result="effect1_dropShadow_1846_5151"/>
<feBlend mode="normal" in="SourceGraphic" in2="effect1_dropShadow_1846_5151" result="shape"/>
</filter>
</defs>
</svg>