<svg width="33" height="33" viewBox="0 0 33 33" fill="none" xmlns="http://www.w3.org/2000/svg">
<path d="M16.027 32.0539C24.8784 32.0539 32.0539 24.8784 32.0539 16.027C32.0539 7.17552 24.8784 0 16.027 0C7.17552 0 0 7.17552 0 16.027C0 24.8784 7.17552 32.0539 16.027 32.0539Z" fill="#53545B"/>
<path d="M14.3789 18.7478C14.3088 18.2579 14.3228 17.8112 14.4211 17.4078C14.5333 17.0043 14.6877 16.6297 14.8842 16.2839C15.0807 15.938 15.2982 15.621 15.5368 15.3329C15.7895 15.0447 16.0281 14.7709 16.2526 14.5115C16.4772 14.2378 16.6596 13.9784 16.8 13.7334C16.9544 13.4741 17.0316 13.2075 17.0316 12.9337C17.0316 12.487 16.8982 12.1484 16.6316 11.9179C16.3789 11.6873 16.0421 11.572 15.6211 11.572C15.2281 11.572 14.8772 11.6657 14.5684 11.853C14.2737 12.0403 13.986 12.2781 13.7053 12.5663L12 10.9669C12.4912 10.3761 13.0737 9.90058 13.7474 9.54035C14.4351 9.18012 15.193 9 16.0211 9C16.5825 9 17.1018 9.07205 17.5789 9.21614C18.0702 9.36023 18.4912 9.58357 18.8421 9.88617C19.207 10.1888 19.4877 10.5778 19.6842 11.0533C19.8947 11.5144 20 12.062 20 12.696C20 13.1427 19.9228 13.5461 19.7684 13.9063C19.614 14.2522 19.4175 14.5764 19.1789 14.879C18.9544 15.1816 18.7088 15.4769 18.4421 15.7651C18.1895 16.0389 17.9509 16.3271 17.7263 16.6297C17.5158 16.9323 17.3474 17.2565 17.2211 17.6023C17.0947 17.9337 17.0526 18.3156 17.0947 18.7478H14.3789ZM15.7263 24C15.193 24 14.7509 23.8127 14.4 23.438C14.0491 23.049 13.8737 22.5735 13.8737 22.0115C13.8737 21.4352 14.0491 20.9597 14.4 20.585C14.7509 20.196 15.193 20.0014 15.7263 20.0014C16.2596 20.0014 16.7018 20.196 17.0526 20.585C17.4175 20.9597 17.6 21.4352 17.6 22.0115C17.6 22.5735 17.4175 23.049 17.0526 23.438C16.7018 23.8127 16.2596 24 15.7263 24Z" fill="white"/>
</svg>
