<svg width="58" height="58" viewBox="0 0 58 58" fill="none" xmlns="http://www.w3.org/2000/svg">
<g filter="url(#filter0_d_1846_5359)">
<path d="M27.9989 55.9977C42.9608 55.9977 54.9977 43.9608 54.9977 28.9989C54.9977 14.0369 42.9608 2 27.9989 2C13.0369 2 1 14.0369 1 28.9989C1 43.9608 13.0369 55.9977 27.9989 55.9977Z" fill="#2775CA"/>
<path d="M35.4239 33.2739C35.4239 29.3366 33.0615 27.9867 28.3367 27.4243C24.9618 26.9742 24.2869 26.0744 24.2869 24.4992C24.2869 22.9241 25.4119 21.9119 27.6617 21.9119C29.6866 21.9119 30.8117 22.5869 31.3741 24.2743C31.4866 24.6118 31.8241 24.8367 32.1616 24.8367H33.9614C34.4114 24.8367 34.7489 24.4992 34.7489 24.0494V23.9369C34.2988 21.4619 32.2739 19.5495 29.6866 19.3246V16.6248C29.6866 16.1747 29.3491 15.8372 28.7868 15.7246H27.0993C26.6493 15.7246 26.3118 16.0621 26.1992 16.6248V19.2121C22.8243 19.6621 20.6871 21.9119 20.6871 24.7244C20.6871 28.4368 22.9369 29.899 27.6617 30.4617C30.8117 31.0241 31.8241 31.699 31.8241 33.499C31.8241 35.2991 30.249 36.5364 28.1118 36.5364C25.1867 36.5364 24.1743 35.2988 23.8368 33.6114C23.7245 33.1616 23.387 32.9364 23.0495 32.9364H21.1369C20.6871 32.9364 20.3496 33.2739 20.3496 33.7239V33.8365C20.7994 36.6487 22.5994 38.6737 26.3118 39.2363V41.9362C26.3118 42.386 26.6493 42.7235 27.2116 42.8361H28.8991C29.3491 42.8361 29.6866 42.4986 29.7992 41.9362V39.2363C33.1741 38.6737 35.4239 36.3112 35.4239 33.2739Z" fill="white"/>
<path d="M22.2621 45.0859C13.4875 41.9362 8.9876 32.1491 12.2501 23.4868C13.9376 18.762 17.6499 15.1622 22.2621 13.4748C22.7122 13.2499 22.9371 12.9124 22.9371 12.3497V10.7749C22.9371 10.3248 22.7122 9.98732 22.2621 9.875C22.1495 9.875 21.9246 9.875 21.8121 9.98731C11.1251 13.3622 5.27525 24.7244 8.65011 35.4114C10.675 41.711 15.5124 46.5484 21.8121 48.5733C22.2621 48.7982 22.7122 48.5733 22.8245 48.1232C22.9371 48.0109 22.9371 47.8983 22.9371 47.6734V46.0983C22.9371 45.7608 22.5996 45.311 22.2621 45.0859ZM34.1867 9.98731C33.7367 9.76241 33.2866 9.98732 33.1743 10.4374C33.0617 10.55 33.0617 10.6623 33.0617 10.8875V12.4623C33.0617 12.9124 33.3992 13.3622 33.7367 13.5873C42.5113 16.737 47.0112 26.5241 43.7486 35.1865C42.0612 39.9113 38.3489 43.511 33.7367 45.1985C33.2866 45.4234 33.0617 45.7608 33.0617 46.3235V47.8983C33.0617 48.3484 33.2866 48.6859 33.7367 48.7982C33.8492 48.7982 34.0741 48.7982 34.1867 48.6859C44.8737 45.311 50.7235 33.9488 47.3487 23.2619C45.3238 16.8496 40.3738 12.0122 34.1867 9.98731Z" fill="white"/>
</g>
<defs>
<filter id="filter0_d_1846_5359" x="0" y="0" width="58" height="58" filterUnits="userSpaceOnUse" color-interpolation-filters="sRGB">
<feFlood flood-opacity="0" result="BackgroundImageFix"/>
<feColorMatrix in="SourceAlpha" type="matrix" values="0 0 0 0 0 0 0 0 0 0 0 0 0 0 0 0 0 0 127 0" result="hardAlpha"/>
<feOffset dx="1"/>
<feGaussianBlur stdDeviation="1"/>
<feComposite in2="hardAlpha" operator="out"/>
<feColorMatrix type="matrix" values="0 0 0 0 0 0 0 0 0 0 0 0 0 0 0 0 0 0 0.57 0"/>
<feBlend mode="normal" in2="BackgroundImageFix" result="effect1_dropShadow_1846_5359"/>
<feBlend mode="normal" in="SourceGraphic" in2="effect1_dropShadow_1846_5359" result="shape"/>
</filter>
</defs>
</svg>
