<svg width="58" height="58" viewBox="0 0 58 58" fill="none" xmlns="http://www.w3.org/2000/svg">
<g filter="url(#filter0_d_1846_9783)">
<path d="M28 56C42.9117 56 55 43.9117 55 29C55 14.0883 42.9117 2 28 2C13.0883 2 1 14.0883 1 29C1 43.9117 13.0883 56 28 56Z" fill="#26A17B"/>
<path fill-rule="evenodd" clip-rule="evenodd" d="M31.241 31.3346V31.3312C31.0554 31.3447 30.0986 31.4021 27.9639 31.4021C26.2595 31.4021 25.0597 31.3514 24.6378 31.3312V31.3363C18.0768 31.0477 13.1797 29.9053 13.1797 28.5384C13.1797 27.1732 18.0768 26.0308 24.6378 25.7371V30.1989C25.0665 30.2292 26.295 30.3018 27.9926 30.3018C30.0294 30.3018 31.0503 30.2174 31.241 30.2006V25.7405C37.7885 26.0324 42.6738 27.1749 42.6738 28.5384C42.6738 29.9053 37.7885 31.0443 31.241 31.3346ZM31.241 25.2764V21.2838H40.3772V15.1953H15.5017V21.2838H24.6378V25.2747C17.2128 25.6156 11.6289 27.0871 11.6289 28.8489C11.6289 30.6106 17.2128 32.0804 24.6378 32.423V45.2176H31.241V32.4196C38.6542 32.0787 44.2247 30.6089 44.2247 28.8489C44.2247 27.0888 38.6542 25.619 31.241 25.2764Z" fill="white"/>
</g>
<defs>
<filter id="filter0_d_1846_9783" x="0" y="0" width="58" height="58" filterUnits="userSpaceOnUse" color-interpolation-filters="sRGB">
<feFlood flood-opacity="0" result="BackgroundImageFix"/>
<feColorMatrix in="SourceAlpha" type="matrix" values="0 0 0 0 0 0 0 0 0 0 0 0 0 0 0 0 0 0 127 0" result="hardAlpha"/>
<feOffset dx="1"/>
<feGaussianBlur stdDeviation="1"/>
<feComposite in2="hardAlpha" operator="out"/>
<feColorMatrix type="matrix" values="0 0 0 0 0 0 0 0 0 0 0 0 0 0 0 0 0 0 0.57 0"/>
<feBlend mode="normal" in2="BackgroundImageFix" result="effect1_dropShadow_1846_9783"/>
<feBlend mode="normal" in="SourceGraphic" in2="effect1_dropShadow_1846_9783" result="shape"/>
</filter>
</defs>
</svg>
