<svg width="58" height="58" viewBox="0 0 58 58" fill="none" xmlns="http://www.w3.org/2000/svg">
<g filter="url(#filter0_d_2032_17115)">
<path d="M54.1927 35.5318C50.5861 49.9961 35.9336 58.7981 21.4658 55.1919C7.00486 51.5858 -1.79897 36.935 1.80847 22.4715C5.41337 8.00544 20.0651 -0.798202 34.5286 2.80797C48.9954 6.41414 57.7984 21.0666 54.1918 35.5318H54.1927Z" fill="#F7931A"/>
<path d="M40.9809 25.756C41.5237 22.2785 38.7567 20.4091 34.9732 19.162L36.2005 14.4513L33.2031 13.7367L32.0083 18.3232C31.2213 18.1354 30.4122 17.9582 29.6083 17.7826L30.8117 13.1658L27.8168 12.4512L26.5887 17.1603C25.9366 17.0182 25.2965 16.8777 24.6752 16.7299L24.6786 16.7152L20.546 15.7278L19.7489 18.7904C19.7489 18.7904 21.9722 19.278 21.9253 19.3082C23.1389 19.5981 23.3591 20.3666 23.3216 20.9759L21.9236 26.3424C22.0072 26.3628 22.1156 26.3922 22.2351 26.438L21.9193 26.3628L19.9589 33.8806C19.8103 34.2334 19.434 34.7626 18.5856 34.5617C18.6155 34.6033 16.4075 34.0415 16.4075 34.0415L14.9199 37.3246L18.8203 38.2548C19.5458 38.4288 20.2567 38.6109 20.9557 38.7824L19.7156 43.5478L22.7088 44.2625L23.9378 39.5485C24.7545 39.7608 25.5483 39.9568 26.3249 40.1414L25.1011 44.8333L28.0976 45.5479L29.3377 40.7923C34.4475 41.7176 38.2907 41.3444 39.9063 36.9228C41.2096 33.362 39.8423 31.308 37.1539 29.9678C39.1117 29.5341 40.5866 28.3017 40.98 25.756H40.9809ZM34.1334 34.9431C33.2065 38.5039 26.942 36.5798 24.9099 36.0963L26.5554 29.784C28.5867 30.2691 35.0995 31.2296 34.1343 34.9431H34.1334ZM35.0594 25.7046C34.2145 28.9436 28.9997 27.298 27.3073 26.8945L28.7992 21.1694C30.4916 21.5729 35.9402 22.3259 35.0594 25.7046Z" fill="white"/>
</g>
<defs>
<filter id="filter0_d_2032_17115" x="0" y="0" width="58" height="58" filterUnits="userSpaceOnUse" color-interpolation-filters="sRGB">
<feFlood flood-opacity="0" result="BackgroundImageFix"/>
<feColorMatrix in="SourceAlpha" type="matrix" values="0 0 0 0 0 0 0 0 0 0 0 0 0 0 0 0 0 0 127 0" result="hardAlpha"/>
<feOffset dx="1"/>
<feGaussianBlur stdDeviation="1"/>
<feComposite in2="hardAlpha" operator="out"/>
<feColorMatrix type="matrix" values="0 0 0 0 0 0 0 0 0 0 0 0 0 0 0 0 0 0 0.57 0"/>
<feBlend mode="normal" in2="BackgroundImageFix" result="effect1_dropShadow_2032_17115"/>
<feBlend mode="normal" in="SourceGraphic" in2="effect1_dropShadow_2032_17115" result="shape"/>
</filter>
</defs>
</svg>